<?xml version="1.0" standalone="no"?>
<svg xmlns="http://www.w3.org/2000/svg" version="1.1" width="483" height="483">
	<!-- Created with https://api.qrserver.com (QR Code API, see goQR.me/api for information) -->
	<title>QR Code</title>
	<desc>Report generated at 2024/11/04 18:39:03

Latitude: 23.7104
Lonitude: 90.40744

Current temperature in dhaka is 25.7째C
Wind speed is 2.9 km/h
Humidity is 77%
Precipitation is 0.0 mm
Visibility is 24140.0m
Cloud cover is 74%
Pressure is 1012.0hPa
Dew point is 21.4째C
Max temperature today is 30.7째C
Min temperature today is 24.2째C
Daily precipitation is 2.1mm
Sunrise at 2024-11-05T06:06
Sunset at 2024-11-05T17:17</desc>
	<rect style="fill:rgb(255, 255, 255);fill-opacity:1" x="0" y="0" width="483" height="483" />
	<g id="elements">
		<path style="fill:rgb(0, 0, 0)" d="M 0,0 l 7,0 0,7 -7,0 z M 7,0 l 7,0 0,7 -7,0 z M 14,0 l 7,0 0,7 -7,0 z M 21,0 l 7,0 0,7 -7,0 z M 28,0 l 7,0 0,7 -7,0 z M 35,0 l 7,0 0,7 -7,0 z M 42,0 l 7,0 0,7 -7,0 z M 70,0 l 7,0 0,7 -7,0 z M 77,0 l 7,0 0,7 -7,0 z M 91,0 l 7,0 0,7 -7,0 z M 105,0 l 7,0 0,7 -7,0 z M 126,0 l 7,0 0,7 -7,0 z M 133,0 l 7,0 0,7 -7,0 z M 140,0 l 7,0 0,7 -7,0 z M 147,0 l 7,0 0,7 -7,0 z M 154,0 l 7,0 0,7 -7,0 z M 168,0 l 7,0 0,7 -7,0 z M 182,0 l 7,0 0,7 -7,0 z M 189,0 l 7,0 0,7 -7,0 z M 238,0 l 7,0 0,7 -7,0 z M 245,0 l 7,0 0,7 -7,0 z M 252,0 l 7,0 0,7 -7,0 z M 259,0 l 7,0 0,7 -7,0 z M 266,0 l 7,0 0,7 -7,0 z M 273,0 l 7,0 0,7 -7,0 z M 280,0 l 7,0 0,7 -7,0 z M 287,0 l 7,0 0,7 -7,0 z M 301,0 l 7,0 0,7 -7,0 z M 322,0 l 7,0 0,7 -7,0 z M 336,0 l 7,0 0,7 -7,0 z M 343,0 l 7,0 0,7 -7,0 z M 357,0 l 7,0 0,7 -7,0 z M 364,0 l 7,0 0,7 -7,0 z M 371,0 l 7,0 0,7 -7,0 z M 392,0 l 7,0 0,7 -7,0 z M 399,0 l 7,0 0,7 -7,0 z M 406,0 l 7,0 0,7 -7,0 z M 413,0 l 7,0 0,7 -7,0 z M 420,0 l 7,0 0,7 -7,0 z M 434,0 l 7,0 0,7 -7,0 z M 441,0 l 7,0 0,7 -7,0 z M 448,0 l 7,0 0,7 -7,0 z M 455,0 l 7,0 0,7 -7,0 z M 462,0 l 7,0 0,7 -7,0 z M 469,0 l 7,0 0,7 -7,0 z M 476,0 l 7,0 0,7 -7,0 z M 0,7 l 7,0 0,7 -7,0 z M 42,7 l 7,0 0,7 -7,0 z M 56,7 l 7,0 0,7 -7,0 z M 63,7 l 7,0 0,7 -7,0 z M 70,7 l 7,0 0,7 -7,0 z M 84,7 l 7,0 0,7 -7,0 z M 112,7 l 7,0 0,7 -7,0 z M 126,7 l 7,0 0,7 -7,0 z M 140,7 l 7,0 0,7 -7,0 z M 161,7 l 7,0 0,7 -7,0 z M 189,7 l 7,0 0,7 -7,0 z M 210,7 l 7,0 0,7 -7,0 z M 231,7 l 7,0 0,7 -7,0 z M 238,7 l 7,0 0,7 -7,0 z M 273,7 l 7,0 0,7 -7,0 z M 280,7 l 7,0 0,7 -7,0 z M 287,7 l 7,0 0,7 -7,0 z M 308,7 l 7,0 0,7 -7,0 z M 336,7 l 7,0 0,7 -7,0 z M 343,7 l 7,0 0,7 -7,0 z M 350,7 l 7,0 0,7 -7,0 z M 364,7 l 7,0 0,7 -7,0 z M 434,7 l 7,0 0,7 -7,0 z M 476,7 l 7,0 0,7 -7,0 z M 0,14 l 7,0 0,7 -7,0 z M 14,14 l 7,0 0,7 -7,0 z M 21,14 l 7,0 0,7 -7,0 z M 28,14 l 7,0 0,7 -7,0 z M 42,14 l 7,0 0,7 -7,0 z M 77,14 l 7,0 0,7 -7,0 z M 98,14 l 7,0 0,7 -7,0 z M 105,14 l 7,0 0,7 -7,0 z M 112,14 l 7,0 0,7 -7,0 z M 133,14 l 7,0 0,7 -7,0 z M 140,14 l 7,0 0,7 -7,0 z M 147,14 l 7,0 0,7 -7,0 z M 168,14 l 7,0 0,7 -7,0 z M 175,14 l 7,0 0,7 -7,0 z M 182,14 l 7,0 0,7 -7,0 z M 210,14 l 7,0 0,7 -7,0 z M 231,14 l 7,0 0,7 -7,0 z M 245,14 l 7,0 0,7 -7,0 z M 252,14 l 7,0 0,7 -7,0 z M 266,14 l 7,0 0,7 -7,0 z M 280,14 l 7,0 0,7 -7,0 z M 287,14 l 7,0 0,7 -7,0 z M 294,14 l 7,0 0,7 -7,0 z M 301,14 l 7,0 0,7 -7,0 z M 322,14 l 7,0 0,7 -7,0 z M 350,14 l 7,0 0,7 -7,0 z M 371,14 l 7,0 0,7 -7,0 z M 378,14 l 7,0 0,7 -7,0 z M 392,14 l 7,0 0,7 -7,0 z M 399,14 l 7,0 0,7 -7,0 z M 406,14 l 7,0 0,7 -7,0 z M 434,14 l 7,0 0,7 -7,0 z M 448,14 l 7,0 0,7 -7,0 z M 455,14 l 7,0 0,7 -7,0 z M 462,14 l 7,0 0,7 -7,0 z M 476,14 l 7,0 0,7 -7,0 z M 0,21 l 7,0 0,7 -7,0 z M 14,21 l 7,0 0,7 -7,0 z M 21,21 l 7,0 0,7 -7,0 z M 28,21 l 7,0 0,7 -7,0 z M 42,21 l 7,0 0,7 -7,0 z M 56,21 l 7,0 0,7 -7,0 z M 70,21 l 7,0 0,7 -7,0 z M 119,21 l 7,0 0,7 -7,0 z M 126,21 l 7,0 0,7 -7,0 z M 147,21 l 7,0 0,7 -7,0 z M 154,21 l 7,0 0,7 -7,0 z M 175,21 l 7,0 0,7 -7,0 z M 189,21 l 7,0 0,7 -7,0 z M 203,21 l 7,0 0,7 -7,0 z M 217,21 l 7,0 0,7 -7,0 z M 231,21 l 7,0 0,7 -7,0 z M 238,21 l 7,0 0,7 -7,0 z M 245,21 l 7,0 0,7 -7,0 z M 252,21 l 7,0 0,7 -7,0 z M 259,21 l 7,0 0,7 -7,0 z M 266,21 l 7,0 0,7 -7,0 z M 287,21 l 7,0 0,7 -7,0 z M 301,21 l 7,0 0,7 -7,0 z M 308,21 l 7,0 0,7 -7,0 z M 315,21 l 7,0 0,7 -7,0 z M 329,21 l 7,0 0,7 -7,0 z M 336,21 l 7,0 0,7 -7,0 z M 343,21 l 7,0 0,7 -7,0 z M 350,21 l 7,0 0,7 -7,0 z M 364,21 l 7,0 0,7 -7,0 z M 378,21 l 7,0 0,7 -7,0 z M 420,21 l 7,0 0,7 -7,0 z M 434,21 l 7,0 0,7 -7,0 z M 448,21 l 7,0 0,7 -7,0 z M 455,21 l 7,0 0,7 -7,0 z M 462,21 l 7,0 0,7 -7,0 z M 476,21 l 7,0 0,7 -7,0 z M 0,28 l 7,0 0,7 -7,0 z M 14,28 l 7,0 0,7 -7,0 z M 21,28 l 7,0 0,7 -7,0 z M 28,28 l 7,0 0,7 -7,0 z M 42,28 l 7,0 0,7 -7,0 z M 63,28 l 7,0 0,7 -7,0 z M 77,28 l 7,0 0,7 -7,0 z M 91,28 l 7,0 0,7 -7,0 z M 98,28 l 7,0 0,7 -7,0 z M 112,28 l 7,0 0,7 -7,0 z M 133,28 l 7,0 0,7 -7,0 z M 140,28 l 7,0 0,7 -7,0 z M 161,28 l 7,0 0,7 -7,0 z M 168,28 l 7,0 0,7 -7,0 z M 175,28 l 7,0 0,7 -7,0 z M 182,28 l 7,0 0,7 -7,0 z M 224,28 l 7,0 0,7 -7,0 z M 231,28 l 7,0 0,7 -7,0 z M 238,28 l 7,0 0,7 -7,0 z M 245,28 l 7,0 0,7 -7,0 z M 252,28 l 7,0 0,7 -7,0 z M 294,28 l 7,0 0,7 -7,0 z M 329,28 l 7,0 0,7 -7,0 z M 336,28 l 7,0 0,7 -7,0 z M 343,28 l 7,0 0,7 -7,0 z M 357,28 l 7,0 0,7 -7,0 z M 371,28 l 7,0 0,7 -7,0 z M 406,28 l 7,0 0,7 -7,0 z M 420,28 l 7,0 0,7 -7,0 z M 434,28 l 7,0 0,7 -7,0 z M 448,28 l 7,0 0,7 -7,0 z M 455,28 l 7,0 0,7 -7,0 z M 462,28 l 7,0 0,7 -7,0 z M 476,28 l 7,0 0,7 -7,0 z M 0,35 l 7,0 0,7 -7,0 z M 42,35 l 7,0 0,7 -7,0 z M 56,35 l 7,0 0,7 -7,0 z M 70,35 l 7,0 0,7 -7,0 z M 77,35 l 7,0 0,7 -7,0 z M 84,35 l 7,0 0,7 -7,0 z M 91,35 l 7,0 0,7 -7,0 z M 112,35 l 7,0 0,7 -7,0 z M 126,35 l 7,0 0,7 -7,0 z M 168,35 l 7,0 0,7 -7,0 z M 189,35 l 7,0 0,7 -7,0 z M 196,35 l 7,0 0,7 -7,0 z M 210,35 l 7,0 0,7 -7,0 z M 217,35 l 7,0 0,7 -7,0 z M 224,35 l 7,0 0,7 -7,0 z M 252,35 l 7,0 0,7 -7,0 z M 273,35 l 7,0 0,7 -7,0 z M 280,35 l 7,0 0,7 -7,0 z M 287,35 l 7,0 0,7 -7,0 z M 301,35 l 7,0 0,7 -7,0 z M 315,35 l 7,0 0,7 -7,0 z M 322,35 l 7,0 0,7 -7,0 z M 350,35 l 7,0 0,7 -7,0 z M 357,35 l 7,0 0,7 -7,0 z M 364,35 l 7,0 0,7 -7,0 z M 378,35 l 7,0 0,7 -7,0 z M 385,35 l 7,0 0,7 -7,0 z M 399,35 l 7,0 0,7 -7,0 z M 406,35 l 7,0 0,7 -7,0 z M 434,35 l 7,0 0,7 -7,0 z M 476,35 l 7,0 0,7 -7,0 z M 0,42 l 7,0 0,7 -7,0 z M 7,42 l 7,0 0,7 -7,0 z M 14,42 l 7,0 0,7 -7,0 z M 21,42 l 7,0 0,7 -7,0 z M 28,42 l 7,0 0,7 -7,0 z M 35,42 l 7,0 0,7 -7,0 z M 42,42 l 7,0 0,7 -7,0 z M 56,42 l 7,0 0,7 -7,0 z M 70,42 l 7,0 0,7 -7,0 z M 84,42 l 7,0 0,7 -7,0 z M 98,42 l 7,0 0,7 -7,0 z M 112,42 l 7,0 0,7 -7,0 z M 126,42 l 7,0 0,7 -7,0 z M 140,42 l 7,0 0,7 -7,0 z M 154,42 l 7,0 0,7 -7,0 z M 168,42 l 7,0 0,7 -7,0 z M 182,42 l 7,0 0,7 -7,0 z M 196,42 l 7,0 0,7 -7,0 z M 210,42 l 7,0 0,7 -7,0 z M 224,42 l 7,0 0,7 -7,0 z M 238,42 l 7,0 0,7 -7,0 z M 252,42 l 7,0 0,7 -7,0 z M 266,42 l 7,0 0,7 -7,0 z M 280,42 l 7,0 0,7 -7,0 z M 294,42 l 7,0 0,7 -7,0 z M 308,42 l 7,0 0,7 -7,0 z M 322,42 l 7,0 0,7 -7,0 z M 336,42 l 7,0 0,7 -7,0 z M 350,42 l 7,0 0,7 -7,0 z M 364,42 l 7,0 0,7 -7,0 z M 378,42 l 7,0 0,7 -7,0 z M 392,42 l 7,0 0,7 -7,0 z M 406,42 l 7,0 0,7 -7,0 z M 420,42 l 7,0 0,7 -7,0 z M 434,42 l 7,0 0,7 -7,0 z M 441,42 l 7,0 0,7 -7,0 z M 448,42 l 7,0 0,7 -7,0 z M 455,42 l 7,0 0,7 -7,0 z M 462,42 l 7,0 0,7 -7,0 z M 469,42 l 7,0 0,7 -7,0 z M 476,42 l 7,0 0,7 -7,0 z M 63,49 l 7,0 0,7 -7,0 z M 70,49 l 7,0 0,7 -7,0 z M 77,49 l 7,0 0,7 -7,0 z M 84,49 l 7,0 0,7 -7,0 z M 91,49 l 7,0 0,7 -7,0 z M 105,49 l 7,0 0,7 -7,0 z M 119,49 l 7,0 0,7 -7,0 z M 126,49 l 7,0 0,7 -7,0 z M 147,49 l 7,0 0,7 -7,0 z M 161,49 l 7,0 0,7 -7,0 z M 168,49 l 7,0 0,7 -7,0 z M 182,49 l 7,0 0,7 -7,0 z M 203,49 l 7,0 0,7 -7,0 z M 217,49 l 7,0 0,7 -7,0 z M 224,49 l 7,0 0,7 -7,0 z M 252,49 l 7,0 0,7 -7,0 z M 259,49 l 7,0 0,7 -7,0 z M 273,49 l 7,0 0,7 -7,0 z M 280,49 l 7,0 0,7 -7,0 z M 287,49 l 7,0 0,7 -7,0 z M 294,49 l 7,0 0,7 -7,0 z M 308,49 l 7,0 0,7 -7,0 z M 315,49 l 7,0 0,7 -7,0 z M 329,49 l 7,0 0,7 -7,0 z M 378,49 l 7,0 0,7 -7,0 z M 385,49 l 7,0 0,7 -7,0 z M 0,56 l 7,0 0,7 -7,0 z M 7,56 l 7,0 0,7 -7,0 z M 14,56 l 7,0 0,7 -7,0 z M 21,56 l 7,0 0,7 -7,0 z M 28,56 l 7,0 0,7 -7,0 z M 42,56 l 7,0 0,7 -7,0 z M 49,56 l 7,0 0,7 -7,0 z M 56,56 l 7,0 0,7 -7,0 z M 91,56 l 7,0 0,7 -7,0 z M 98,56 l 7,0 0,7 -7,0 z M 105,56 l 7,0 0,7 -7,0 z M 119,56 l 7,0 0,7 -7,0 z M 126,56 l 7,0 0,7 -7,0 z M 161,56 l 7,0 0,7 -7,0 z M 168,56 l 7,0 0,7 -7,0 z M 175,56 l 7,0 0,7 -7,0 z M 189,56 l 7,0 0,7 -7,0 z M 196,56 l 7,0 0,7 -7,0 z M 203,56 l 7,0 0,7 -7,0 z M 210,56 l 7,0 0,7 -7,0 z M 224,56 l 7,0 0,7 -7,0 z M 231,56 l 7,0 0,7 -7,0 z M 238,56 l 7,0 0,7 -7,0 z M 245,56 l 7,0 0,7 -7,0 z M 252,56 l 7,0 0,7 -7,0 z M 273,56 l 7,0 0,7 -7,0 z M 294,56 l 7,0 0,7 -7,0 z M 301,56 l 7,0 0,7 -7,0 z M 315,56 l 7,0 0,7 -7,0 z M 336,56 l 7,0 0,7 -7,0 z M 364,56 l 7,0 0,7 -7,0 z M 378,56 l 7,0 0,7 -7,0 z M 399,56 l 7,0 0,7 -7,0 z M 427,56 l 7,0 0,7 -7,0 z M 441,56 l 7,0 0,7 -7,0 z M 455,56 l 7,0 0,7 -7,0 z M 469,56 l 7,0 0,7 -7,0 z M 7,63 l 7,0 0,7 -7,0 z M 28,63 l 7,0 0,7 -7,0 z M 63,63 l 7,0 0,7 -7,0 z M 84,63 l 7,0 0,7 -7,0 z M 91,63 l 7,0 0,7 -7,0 z M 119,63 l 7,0 0,7 -7,0 z M 126,63 l 7,0 0,7 -7,0 z M 154,63 l 7,0 0,7 -7,0 z M 161,63 l 7,0 0,7 -7,0 z M 182,63 l 7,0 0,7 -7,0 z M 203,63 l 7,0 0,7 -7,0 z M 217,63 l 7,0 0,7 -7,0 z M 224,63 l 7,0 0,7 -7,0 z M 231,63 l 7,0 0,7 -7,0 z M 238,63 l 7,0 0,7 -7,0 z M 252,63 l 7,0 0,7 -7,0 z M 273,63 l 7,0 0,7 -7,0 z M 287,63 l 7,0 0,7 -7,0 z M 294,63 l 7,0 0,7 -7,0 z M 315,63 l 7,0 0,7 -7,0 z M 322,63 l 7,0 0,7 -7,0 z M 350,63 l 7,0 0,7 -7,0 z M 357,63 l 7,0 0,7 -7,0 z M 371,63 l 7,0 0,7 -7,0 z M 406,63 l 7,0 0,7 -7,0 z M 413,63 l 7,0 0,7 -7,0 z M 420,63 l 7,0 0,7 -7,0 z M 427,63 l 7,0 0,7 -7,0 z M 441,63 l 7,0 0,7 -7,0 z M 448,63 l 7,0 0,7 -7,0 z M 469,63 l 7,0 0,7 -7,0 z M 28,70 l 7,0 0,7 -7,0 z M 42,70 l 7,0 0,7 -7,0 z M 49,70 l 7,0 0,7 -7,0 z M 56,70 l 7,0 0,7 -7,0 z M 70,70 l 7,0 0,7 -7,0 z M 77,70 l 7,0 0,7 -7,0 z M 91,70 l 7,0 0,7 -7,0 z M 98,70 l 7,0 0,7 -7,0 z M 168,70 l 7,0 0,7 -7,0 z M 217,70 l 7,0 0,7 -7,0 z M 231,70 l 7,0 0,7 -7,0 z M 238,70 l 7,0 0,7 -7,0 z M 252,70 l 7,0 0,7 -7,0 z M 266,70 l 7,0 0,7 -7,0 z M 273,70 l 7,0 0,7 -7,0 z M 322,70 l 7,0 0,7 -7,0 z M 329,70 l 7,0 0,7 -7,0 z M 336,70 l 7,0 0,7 -7,0 z M 350,70 l 7,0 0,7 -7,0 z M 357,70 l 7,0 0,7 -7,0 z M 371,70 l 7,0 0,7 -7,0 z M 378,70 l 7,0 0,7 -7,0 z M 399,70 l 7,0 0,7 -7,0 z M 413,70 l 7,0 0,7 -7,0 z M 420,70 l 7,0 0,7 -7,0 z M 462,70 l 7,0 0,7 -7,0 z M 469,70 l 7,0 0,7 -7,0 z M 476,70 l 7,0 0,7 -7,0 z M 7,77 l 7,0 0,7 -7,0 z M 28,77 l 7,0 0,7 -7,0 z M 63,77 l 7,0 0,7 -7,0 z M 70,77 l 7,0 0,7 -7,0 z M 84,77 l 7,0 0,7 -7,0 z M 105,77 l 7,0 0,7 -7,0 z M 112,77 l 7,0 0,7 -7,0 z M 140,77 l 7,0 0,7 -7,0 z M 161,77 l 7,0 0,7 -7,0 z M 189,77 l 7,0 0,7 -7,0 z M 196,77 l 7,0 0,7 -7,0 z M 210,77 l 7,0 0,7 -7,0 z M 217,77 l 7,0 0,7 -7,0 z M 238,77 l 7,0 0,7 -7,0 z M 273,77 l 7,0 0,7 -7,0 z M 280,77 l 7,0 0,7 -7,0 z M 294,77 l 7,0 0,7 -7,0 z M 301,77 l 7,0 0,7 -7,0 z M 308,77 l 7,0 0,7 -7,0 z M 329,77 l 7,0 0,7 -7,0 z M 336,77 l 7,0 0,7 -7,0 z M 357,77 l 7,0 0,7 -7,0 z M 364,77 l 7,0 0,7 -7,0 z M 378,77 l 7,0 0,7 -7,0 z M 392,77 l 7,0 0,7 -7,0 z M 413,77 l 7,0 0,7 -7,0 z M 420,77 l 7,0 0,7 -7,0 z M 427,77 l 7,0 0,7 -7,0 z M 448,77 l 7,0 0,7 -7,0 z M 455,77 l 7,0 0,7 -7,0 z M 476,77 l 7,0 0,7 -7,0 z M 0,84 l 7,0 0,7 -7,0 z M 7,84 l 7,0 0,7 -7,0 z M 14,84 l 7,0 0,7 -7,0 z M 21,84 l 7,0 0,7 -7,0 z M 28,84 l 7,0 0,7 -7,0 z M 35,84 l 7,0 0,7 -7,0 z M 42,84 l 7,0 0,7 -7,0 z M 49,84 l 7,0 0,7 -7,0 z M 70,84 l 7,0 0,7 -7,0 z M 77,84 l 7,0 0,7 -7,0 z M 84,84 l 7,0 0,7 -7,0 z M 91,84 l 7,0 0,7 -7,0 z M 105,84 l 7,0 0,7 -7,0 z M 112,84 l 7,0 0,7 -7,0 z M 119,84 l 7,0 0,7 -7,0 z M 133,84 l 7,0 0,7 -7,0 z M 140,84 l 7,0 0,7 -7,0 z M 161,84 l 7,0 0,7 -7,0 z M 168,84 l 7,0 0,7 -7,0 z M 175,84 l 7,0 0,7 -7,0 z M 189,84 l 7,0 0,7 -7,0 z M 210,84 l 7,0 0,7 -7,0 z M 224,84 l 7,0 0,7 -7,0 z M 231,84 l 7,0 0,7 -7,0 z M 238,84 l 7,0 0,7 -7,0 z M 245,84 l 7,0 0,7 -7,0 z M 273,84 l 7,0 0,7 -7,0 z M 315,84 l 7,0 0,7 -7,0 z M 329,84 l 7,0 0,7 -7,0 z M 336,84 l 7,0 0,7 -7,0 z M 350,84 l 7,0 0,7 -7,0 z M 378,84 l 7,0 0,7 -7,0 z M 385,84 l 7,0 0,7 -7,0 z M 392,84 l 7,0 0,7 -7,0 z M 399,84 l 7,0 0,7 -7,0 z M 413,84 l 7,0 0,7 -7,0 z M 420,84 l 7,0 0,7 -7,0 z M 441,84 l 7,0 0,7 -7,0 z M 462,84 l 7,0 0,7 -7,0 z M 469,84 l 7,0 0,7 -7,0 z M 0,91 l 7,0 0,7 -7,0 z M 7,91 l 7,0 0,7 -7,0 z M 21,91 l 7,0 0,7 -7,0 z M 35,91 l 7,0 0,7 -7,0 z M 70,91 l 7,0 0,7 -7,0 z M 84,91 l 7,0 0,7 -7,0 z M 98,91 l 7,0 0,7 -7,0 z M 112,91 l 7,0 0,7 -7,0 z M 133,91 l 7,0 0,7 -7,0 z M 147,91 l 7,0 0,7 -7,0 z M 154,91 l 7,0 0,7 -7,0 z M 168,91 l 7,0 0,7 -7,0 z M 182,91 l 7,0 0,7 -7,0 z M 210,91 l 7,0 0,7 -7,0 z M 224,91 l 7,0 0,7 -7,0 z M 231,91 l 7,0 0,7 -7,0 z M 252,91 l 7,0 0,7 -7,0 z M 259,91 l 7,0 0,7 -7,0 z M 280,91 l 7,0 0,7 -7,0 z M 287,91 l 7,0 0,7 -7,0 z M 336,91 l 7,0 0,7 -7,0 z M 343,91 l 7,0 0,7 -7,0 z M 350,91 l 7,0 0,7 -7,0 z M 357,91 l 7,0 0,7 -7,0 z M 371,91 l 7,0 0,7 -7,0 z M 378,91 l 7,0 0,7 -7,0 z M 399,91 l 7,0 0,7 -7,0 z M 406,91 l 7,0 0,7 -7,0 z M 420,91 l 7,0 0,7 -7,0 z M 427,91 l 7,0 0,7 -7,0 z M 441,91 l 7,0 0,7 -7,0 z M 448,91 l 7,0 0,7 -7,0 z M 455,91 l 7,0 0,7 -7,0 z M 462,91 l 7,0 0,7 -7,0 z M 476,91 l 7,0 0,7 -7,0 z M 0,98 l 7,0 0,7 -7,0 z M 7,98 l 7,0 0,7 -7,0 z M 14,98 l 7,0 0,7 -7,0 z M 42,98 l 7,0 0,7 -7,0 z M 49,98 l 7,0 0,7 -7,0 z M 70,98 l 7,0 0,7 -7,0 z M 77,98 l 7,0 0,7 -7,0 z M 91,98 l 7,0 0,7 -7,0 z M 98,98 l 7,0 0,7 -7,0 z M 105,98 l 7,0 0,7 -7,0 z M 126,98 l 7,0 0,7 -7,0 z M 133,98 l 7,0 0,7 -7,0 z M 147,98 l 7,0 0,7 -7,0 z M 189,98 l 7,0 0,7 -7,0 z M 196,98 l 7,0 0,7 -7,0 z M 210,98 l 7,0 0,7 -7,0 z M 231,98 l 7,0 0,7 -7,0 z M 245,98 l 7,0 0,7 -7,0 z M 266,98 l 7,0 0,7 -7,0 z M 315,98 l 7,0 0,7 -7,0 z M 322,98 l 7,0 0,7 -7,0 z M 329,98 l 7,0 0,7 -7,0 z M 336,98 l 7,0 0,7 -7,0 z M 343,98 l 7,0 0,7 -7,0 z M 357,98 l 7,0 0,7 -7,0 z M 399,98 l 7,0 0,7 -7,0 z M 434,98 l 7,0 0,7 -7,0 z M 448,98 l 7,0 0,7 -7,0 z M 455,98 l 7,0 0,7 -7,0 z M 462,98 l 7,0 0,7 -7,0 z M 14,105 l 7,0 0,7 -7,0 z M 21,105 l 7,0 0,7 -7,0 z M 28,105 l 7,0 0,7 -7,0 z M 35,105 l 7,0 0,7 -7,0 z M 49,105 l 7,0 0,7 -7,0 z M 112,105 l 7,0 0,7 -7,0 z M 119,105 l 7,0 0,7 -7,0 z M 126,105 l 7,0 0,7 -7,0 z M 133,105 l 7,0 0,7 -7,0 z M 147,105 l 7,0 0,7 -7,0 z M 161,105 l 7,0 0,7 -7,0 z M 168,105 l 7,0 0,7 -7,0 z M 189,105 l 7,0 0,7 -7,0 z M 196,105 l 7,0 0,7 -7,0 z M 210,105 l 7,0 0,7 -7,0 z M 217,105 l 7,0 0,7 -7,0 z M 238,105 l 7,0 0,7 -7,0 z M 252,105 l 7,0 0,7 -7,0 z M 287,105 l 7,0 0,7 -7,0 z M 322,105 l 7,0 0,7 -7,0 z M 364,105 l 7,0 0,7 -7,0 z M 371,105 l 7,0 0,7 -7,0 z M 378,105 l 7,0 0,7 -7,0 z M 385,105 l 7,0 0,7 -7,0 z M 413,105 l 7,0 0,7 -7,0 z M 420,105 l 7,0 0,7 -7,0 z M 427,105 l 7,0 0,7 -7,0 z M 441,105 l 7,0 0,7 -7,0 z M 448,105 l 7,0 0,7 -7,0 z M 455,105 l 7,0 0,7 -7,0 z M 462,105 l 7,0 0,7 -7,0 z M 469,105 l 7,0 0,7 -7,0 z M 7,112 l 7,0 0,7 -7,0 z M 14,112 l 7,0 0,7 -7,0 z M 21,112 l 7,0 0,7 -7,0 z M 28,112 l 7,0 0,7 -7,0 z M 42,112 l 7,0 0,7 -7,0 z M 70,112 l 7,0 0,7 -7,0 z M 77,112 l 7,0 0,7 -7,0 z M 112,112 l 7,0 0,7 -7,0 z M 126,112 l 7,0 0,7 -7,0 z M 133,112 l 7,0 0,7 -7,0 z M 147,112 l 7,0 0,7 -7,0 z M 161,112 l 7,0 0,7 -7,0 z M 196,112 l 7,0 0,7 -7,0 z M 203,112 l 7,0 0,7 -7,0 z M 210,112 l 7,0 0,7 -7,0 z M 224,112 l 7,0 0,7 -7,0 z M 252,112 l 7,0 0,7 -7,0 z M 266,112 l 7,0 0,7 -7,0 z M 273,112 l 7,0 0,7 -7,0 z M 280,112 l 7,0 0,7 -7,0 z M 294,112 l 7,0 0,7 -7,0 z M 315,112 l 7,0 0,7 -7,0 z M 322,112 l 7,0 0,7 -7,0 z M 329,112 l 7,0 0,7 -7,0 z M 385,112 l 7,0 0,7 -7,0 z M 392,112 l 7,0 0,7 -7,0 z M 399,112 l 7,0 0,7 -7,0 z M 427,112 l 7,0 0,7 -7,0 z M 455,112 l 7,0 0,7 -7,0 z M 7,119 l 7,0 0,7 -7,0 z M 21,119 l 7,0 0,7 -7,0 z M 35,119 l 7,0 0,7 -7,0 z M 63,119 l 7,0 0,7 -7,0 z M 77,119 l 7,0 0,7 -7,0 z M 84,119 l 7,0 0,7 -7,0 z M 91,119 l 7,0 0,7 -7,0 z M 105,119 l 7,0 0,7 -7,0 z M 112,119 l 7,0 0,7 -7,0 z M 119,119 l 7,0 0,7 -7,0 z M 126,119 l 7,0 0,7 -7,0 z M 161,119 l 7,0 0,7 -7,0 z M 168,119 l 7,0 0,7 -7,0 z M 182,119 l 7,0 0,7 -7,0 z M 224,119 l 7,0 0,7 -7,0 z M 231,119 l 7,0 0,7 -7,0 z M 259,119 l 7,0 0,7 -7,0 z M 266,119 l 7,0 0,7 -7,0 z M 273,119 l 7,0 0,7 -7,0 z M 294,119 l 7,0 0,7 -7,0 z M 322,119 l 7,0 0,7 -7,0 z M 336,119 l 7,0 0,7 -7,0 z M 343,119 l 7,0 0,7 -7,0 z M 364,119 l 7,0 0,7 -7,0 z M 371,119 l 7,0 0,7 -7,0 z M 378,119 l 7,0 0,7 -7,0 z M 399,119 l 7,0 0,7 -7,0 z M 413,119 l 7,0 0,7 -7,0 z M 427,119 l 7,0 0,7 -7,0 z M 448,119 l 7,0 0,7 -7,0 z M 462,119 l 7,0 0,7 -7,0 z M 476,119 l 7,0 0,7 -7,0 z M 0,126 l 7,0 0,7 -7,0 z M 21,126 l 7,0 0,7 -7,0 z M 28,126 l 7,0 0,7 -7,0 z M 42,126 l 7,0 0,7 -7,0 z M 49,126 l 7,0 0,7 -7,0 z M 56,126 l 7,0 0,7 -7,0 z M 84,126 l 7,0 0,7 -7,0 z M 91,126 l 7,0 0,7 -7,0 z M 112,126 l 7,0 0,7 -7,0 z M 119,126 l 7,0 0,7 -7,0 z M 126,126 l 7,0 0,7 -7,0 z M 133,126 l 7,0 0,7 -7,0 z M 147,126 l 7,0 0,7 -7,0 z M 154,126 l 7,0 0,7 -7,0 z M 161,126 l 7,0 0,7 -7,0 z M 168,126 l 7,0 0,7 -7,0 z M 175,126 l 7,0 0,7 -7,0 z M 217,126 l 7,0 0,7 -7,0 z M 224,126 l 7,0 0,7 -7,0 z M 245,126 l 7,0 0,7 -7,0 z M 252,126 l 7,0 0,7 -7,0 z M 259,126 l 7,0 0,7 -7,0 z M 266,126 l 7,0 0,7 -7,0 z M 294,126 l 7,0 0,7 -7,0 z M 336,126 l 7,0 0,7 -7,0 z M 364,126 l 7,0 0,7 -7,0 z M 378,126 l 7,0 0,7 -7,0 z M 399,126 l 7,0 0,7 -7,0 z M 406,126 l 7,0 0,7 -7,0 z M 420,126 l 7,0 0,7 -7,0 z M 434,126 l 7,0 0,7 -7,0 z M 462,126 l 7,0 0,7 -7,0 z M 469,126 l 7,0 0,7 -7,0 z M 7,133 l 7,0 0,7 -7,0 z M 14,133 l 7,0 0,7 -7,0 z M 35,133 l 7,0 0,7 -7,0 z M 56,133 l 7,0 0,7 -7,0 z M 70,133 l 7,0 0,7 -7,0 z M 77,133 l 7,0 0,7 -7,0 z M 84,133 l 7,0 0,7 -7,0 z M 91,133 l 7,0 0,7 -7,0 z M 98,133 l 7,0 0,7 -7,0 z M 105,133 l 7,0 0,7 -7,0 z M 119,133 l 7,0 0,7 -7,0 z M 126,133 l 7,0 0,7 -7,0 z M 147,133 l 7,0 0,7 -7,0 z M 154,133 l 7,0 0,7 -7,0 z M 175,133 l 7,0 0,7 -7,0 z M 189,133 l 7,0 0,7 -7,0 z M 210,133 l 7,0 0,7 -7,0 z M 231,133 l 7,0 0,7 -7,0 z M 238,133 l 7,0 0,7 -7,0 z M 245,133 l 7,0 0,7 -7,0 z M 273,133 l 7,0 0,7 -7,0 z M 280,133 l 7,0 0,7 -7,0 z M 287,133 l 7,0 0,7 -7,0 z M 294,133 l 7,0 0,7 -7,0 z M 308,133 l 7,0 0,7 -7,0 z M 315,133 l 7,0 0,7 -7,0 z M 343,133 l 7,0 0,7 -7,0 z M 350,133 l 7,0 0,7 -7,0 z M 357,133 l 7,0 0,7 -7,0 z M 364,133 l 7,0 0,7 -7,0 z M 392,133 l 7,0 0,7 -7,0 z M 406,133 l 7,0 0,7 -7,0 z M 420,133 l 7,0 0,7 -7,0 z M 427,133 l 7,0 0,7 -7,0 z M 441,133 l 7,0 0,7 -7,0 z M 448,133 l 7,0 0,7 -7,0 z M 455,133 l 7,0 0,7 -7,0 z M 462,133 l 7,0 0,7 -7,0 z M 476,133 l 7,0 0,7 -7,0 z M 7,140 l 7,0 0,7 -7,0 z M 14,140 l 7,0 0,7 -7,0 z M 21,140 l 7,0 0,7 -7,0 z M 35,140 l 7,0 0,7 -7,0 z M 42,140 l 7,0 0,7 -7,0 z M 49,140 l 7,0 0,7 -7,0 z M 63,140 l 7,0 0,7 -7,0 z M 84,140 l 7,0 0,7 -7,0 z M 98,140 l 7,0 0,7 -7,0 z M 126,140 l 7,0 0,7 -7,0 z M 140,140 l 7,0 0,7 -7,0 z M 154,140 l 7,0 0,7 -7,0 z M 161,140 l 7,0 0,7 -7,0 z M 175,140 l 7,0 0,7 -7,0 z M 189,140 l 7,0 0,7 -7,0 z M 196,140 l 7,0 0,7 -7,0 z M 203,140 l 7,0 0,7 -7,0 z M 224,140 l 7,0 0,7 -7,0 z M 245,140 l 7,0 0,7 -7,0 z M 287,140 l 7,0 0,7 -7,0 z M 301,140 l 7,0 0,7 -7,0 z M 308,140 l 7,0 0,7 -7,0 z M 315,140 l 7,0 0,7 -7,0 z M 322,140 l 7,0 0,7 -7,0 z M 329,140 l 7,0 0,7 -7,0 z M 336,140 l 7,0 0,7 -7,0 z M 343,140 l 7,0 0,7 -7,0 z M 364,140 l 7,0 0,7 -7,0 z M 385,140 l 7,0 0,7 -7,0 z M 399,140 l 7,0 0,7 -7,0 z M 406,140 l 7,0 0,7 -7,0 z M 427,140 l 7,0 0,7 -7,0 z M 434,140 l 7,0 0,7 -7,0 z M 0,147 l 7,0 0,7 -7,0 z M 7,147 l 7,0 0,7 -7,0 z M 14,147 l 7,0 0,7 -7,0 z M 56,147 l 7,0 0,7 -7,0 z M 63,147 l 7,0 0,7 -7,0 z M 70,147 l 7,0 0,7 -7,0 z M 91,147 l 7,0 0,7 -7,0 z M 98,147 l 7,0 0,7 -7,0 z M 133,147 l 7,0 0,7 -7,0 z M 140,147 l 7,0 0,7 -7,0 z M 161,147 l 7,0 0,7 -7,0 z M 168,147 l 7,0 0,7 -7,0 z M 175,147 l 7,0 0,7 -7,0 z M 182,147 l 7,0 0,7 -7,0 z M 196,147 l 7,0 0,7 -7,0 z M 203,147 l 7,0 0,7 -7,0 z M 210,147 l 7,0 0,7 -7,0 z M 217,147 l 7,0 0,7 -7,0 z M 224,147 l 7,0 0,7 -7,0 z M 231,147 l 7,0 0,7 -7,0 z M 245,147 l 7,0 0,7 -7,0 z M 252,147 l 7,0 0,7 -7,0 z M 280,147 l 7,0 0,7 -7,0 z M 294,147 l 7,0 0,7 -7,0 z M 322,147 l 7,0 0,7 -7,0 z M 329,147 l 7,0 0,7 -7,0 z M 336,147 l 7,0 0,7 -7,0 z M 357,147 l 7,0 0,7 -7,0 z M 364,147 l 7,0 0,7 -7,0 z M 371,147 l 7,0 0,7 -7,0 z M 385,147 l 7,0 0,7 -7,0 z M 413,147 l 7,0 0,7 -7,0 z M 420,147 l 7,0 0,7 -7,0 z M 427,147 l 7,0 0,7 -7,0 z M 434,147 l 7,0 0,7 -7,0 z M 441,147 l 7,0 0,7 -7,0 z M 455,147 l 7,0 0,7 -7,0 z M 7,154 l 7,0 0,7 -7,0 z M 14,154 l 7,0 0,7 -7,0 z M 28,154 l 7,0 0,7 -7,0 z M 42,154 l 7,0 0,7 -7,0 z M 49,154 l 7,0 0,7 -7,0 z M 56,154 l 7,0 0,7 -7,0 z M 63,154 l 7,0 0,7 -7,0 z M 70,154 l 7,0 0,7 -7,0 z M 84,154 l 7,0 0,7 -7,0 z M 126,154 l 7,0 0,7 -7,0 z M 140,154 l 7,0 0,7 -7,0 z M 154,154 l 7,0 0,7 -7,0 z M 168,154 l 7,0 0,7 -7,0 z M 182,154 l 7,0 0,7 -7,0 z M 189,154 l 7,0 0,7 -7,0 z M 196,154 l 7,0 0,7 -7,0 z M 203,154 l 7,0 0,7 -7,0 z M 210,154 l 7,0 0,7 -7,0 z M 217,154 l 7,0 0,7 -7,0 z M 224,154 l 7,0 0,7 -7,0 z M 231,154 l 7,0 0,7 -7,0 z M 245,154 l 7,0 0,7 -7,0 z M 266,154 l 7,0 0,7 -7,0 z M 273,154 l 7,0 0,7 -7,0 z M 301,154 l 7,0 0,7 -7,0 z M 308,154 l 7,0 0,7 -7,0 z M 329,154 l 7,0 0,7 -7,0 z M 350,154 l 7,0 0,7 -7,0 z M 357,154 l 7,0 0,7 -7,0 z M 378,154 l 7,0 0,7 -7,0 z M 385,154 l 7,0 0,7 -7,0 z M 399,154 l 7,0 0,7 -7,0 z M 406,154 l 7,0 0,7 -7,0 z M 413,154 l 7,0 0,7 -7,0 z M 441,154 l 7,0 0,7 -7,0 z M 469,154 l 7,0 0,7 -7,0 z M 476,154 l 7,0 0,7 -7,0 z M 7,161 l 7,0 0,7 -7,0 z M 28,161 l 7,0 0,7 -7,0 z M 49,161 l 7,0 0,7 -7,0 z M 70,161 l 7,0 0,7 -7,0 z M 77,161 l 7,0 0,7 -7,0 z M 84,161 l 7,0 0,7 -7,0 z M 140,161 l 7,0 0,7 -7,0 z M 154,161 l 7,0 0,7 -7,0 z M 168,161 l 7,0 0,7 -7,0 z M 175,161 l 7,0 0,7 -7,0 z M 189,161 l 7,0 0,7 -7,0 z M 203,161 l 7,0 0,7 -7,0 z M 210,161 l 7,0 0,7 -7,0 z M 224,161 l 7,0 0,7 -7,0 z M 245,161 l 7,0 0,7 -7,0 z M 252,161 l 7,0 0,7 -7,0 z M 266,161 l 7,0 0,7 -7,0 z M 273,161 l 7,0 0,7 -7,0 z M 294,161 l 7,0 0,7 -7,0 z M 315,161 l 7,0 0,7 -7,0 z M 322,161 l 7,0 0,7 -7,0 z M 357,161 l 7,0 0,7 -7,0 z M 364,161 l 7,0 0,7 -7,0 z M 371,161 l 7,0 0,7 -7,0 z M 399,161 l 7,0 0,7 -7,0 z M 406,161 l 7,0 0,7 -7,0 z M 413,161 l 7,0 0,7 -7,0 z M 420,161 l 7,0 0,7 -7,0 z M 441,161 l 7,0 0,7 -7,0 z M 448,161 l 7,0 0,7 -7,0 z M 455,161 l 7,0 0,7 -7,0 z M 476,161 l 7,0 0,7 -7,0 z M 7,168 l 7,0 0,7 -7,0 z M 28,168 l 7,0 0,7 -7,0 z M 35,168 l 7,0 0,7 -7,0 z M 42,168 l 7,0 0,7 -7,0 z M 49,168 l 7,0 0,7 -7,0 z M 56,168 l 7,0 0,7 -7,0 z M 77,168 l 7,0 0,7 -7,0 z M 91,168 l 7,0 0,7 -7,0 z M 119,168 l 7,0 0,7 -7,0 z M 147,168 l 7,0 0,7 -7,0 z M 161,168 l 7,0 0,7 -7,0 z M 168,168 l 7,0 0,7 -7,0 z M 175,168 l 7,0 0,7 -7,0 z M 189,168 l 7,0 0,7 -7,0 z M 196,168 l 7,0 0,7 -7,0 z M 203,168 l 7,0 0,7 -7,0 z M 210,168 l 7,0 0,7 -7,0 z M 224,168 l 7,0 0,7 -7,0 z M 231,168 l 7,0 0,7 -7,0 z M 238,168 l 7,0 0,7 -7,0 z M 252,168 l 7,0 0,7 -7,0 z M 259,168 l 7,0 0,7 -7,0 z M 273,168 l 7,0 0,7 -7,0 z M 301,168 l 7,0 0,7 -7,0 z M 315,168 l 7,0 0,7 -7,0 z M 322,168 l 7,0 0,7 -7,0 z M 336,168 l 7,0 0,7 -7,0 z M 371,168 l 7,0 0,7 -7,0 z M 392,168 l 7,0 0,7 -7,0 z M 399,168 l 7,0 0,7 -7,0 z M 406,168 l 7,0 0,7 -7,0 z M 448,168 l 7,0 0,7 -7,0 z M 469,168 l 7,0 0,7 -7,0 z M 476,168 l 7,0 0,7 -7,0 z M 7,175 l 7,0 0,7 -7,0 z M 14,175 l 7,0 0,7 -7,0 z M 21,175 l 7,0 0,7 -7,0 z M 49,175 l 7,0 0,7 -7,0 z M 63,175 l 7,0 0,7 -7,0 z M 70,175 l 7,0 0,7 -7,0 z M 77,175 l 7,0 0,7 -7,0 z M 105,175 l 7,0 0,7 -7,0 z M 119,175 l 7,0 0,7 -7,0 z M 126,175 l 7,0 0,7 -7,0 z M 133,175 l 7,0 0,7 -7,0 z M 147,175 l 7,0 0,7 -7,0 z M 161,175 l 7,0 0,7 -7,0 z M 182,175 l 7,0 0,7 -7,0 z M 245,175 l 7,0 0,7 -7,0 z M 273,175 l 7,0 0,7 -7,0 z M 287,175 l 7,0 0,7 -7,0 z M 294,175 l 7,0 0,7 -7,0 z M 308,175 l 7,0 0,7 -7,0 z M 315,175 l 7,0 0,7 -7,0 z M 329,175 l 7,0 0,7 -7,0 z M 336,175 l 7,0 0,7 -7,0 z M 343,175 l 7,0 0,7 -7,0 z M 350,175 l 7,0 0,7 -7,0 z M 357,175 l 7,0 0,7 -7,0 z M 378,175 l 7,0 0,7 -7,0 z M 385,175 l 7,0 0,7 -7,0 z M 406,175 l 7,0 0,7 -7,0 z M 413,175 l 7,0 0,7 -7,0 z M 420,175 l 7,0 0,7 -7,0 z M 427,175 l 7,0 0,7 -7,0 z M 441,175 l 7,0 0,7 -7,0 z M 448,175 l 7,0 0,7 -7,0 z M 462,175 l 7,0 0,7 -7,0 z M 0,182 l 7,0 0,7 -7,0 z M 21,182 l 7,0 0,7 -7,0 z M 28,182 l 7,0 0,7 -7,0 z M 42,182 l 7,0 0,7 -7,0 z M 49,182 l 7,0 0,7 -7,0 z M 56,182 l 7,0 0,7 -7,0 z M 91,182 l 7,0 0,7 -7,0 z M 98,182 l 7,0 0,7 -7,0 z M 119,182 l 7,0 0,7 -7,0 z M 126,182 l 7,0 0,7 -7,0 z M 154,182 l 7,0 0,7 -7,0 z M 161,182 l 7,0 0,7 -7,0 z M 168,182 l 7,0 0,7 -7,0 z M 175,182 l 7,0 0,7 -7,0 z M 196,182 l 7,0 0,7 -7,0 z M 210,182 l 7,0 0,7 -7,0 z M 231,182 l 7,0 0,7 -7,0 z M 245,182 l 7,0 0,7 -7,0 z M 259,182 l 7,0 0,7 -7,0 z M 266,182 l 7,0 0,7 -7,0 z M 273,182 l 7,0 0,7 -7,0 z M 287,182 l 7,0 0,7 -7,0 z M 294,182 l 7,0 0,7 -7,0 z M 301,182 l 7,0 0,7 -7,0 z M 322,182 l 7,0 0,7 -7,0 z M 329,182 l 7,0 0,7 -7,0 z M 336,182 l 7,0 0,7 -7,0 z M 364,182 l 7,0 0,7 -7,0 z M 378,182 l 7,0 0,7 -7,0 z M 385,182 l 7,0 0,7 -7,0 z M 399,182 l 7,0 0,7 -7,0 z M 406,182 l 7,0 0,7 -7,0 z M 420,182 l 7,0 0,7 -7,0 z M 434,182 l 7,0 0,7 -7,0 z M 441,182 l 7,0 0,7 -7,0 z M 469,182 l 7,0 0,7 -7,0 z M 476,182 l 7,0 0,7 -7,0 z M 28,189 l 7,0 0,7 -7,0 z M 35,189 l 7,0 0,7 -7,0 z M 49,189 l 7,0 0,7 -7,0 z M 56,189 l 7,0 0,7 -7,0 z M 84,189 l 7,0 0,7 -7,0 z M 91,189 l 7,0 0,7 -7,0 z M 98,189 l 7,0 0,7 -7,0 z M 105,189 l 7,0 0,7 -7,0 z M 126,189 l 7,0 0,7 -7,0 z M 133,189 l 7,0 0,7 -7,0 z M 140,189 l 7,0 0,7 -7,0 z M 161,189 l 7,0 0,7 -7,0 z M 168,189 l 7,0 0,7 -7,0 z M 182,189 l 7,0 0,7 -7,0 z M 189,189 l 7,0 0,7 -7,0 z M 203,189 l 7,0 0,7 -7,0 z M 238,189 l 7,0 0,7 -7,0 z M 252,189 l 7,0 0,7 -7,0 z M 266,189 l 7,0 0,7 -7,0 z M 273,189 l 7,0 0,7 -7,0 z M 287,189 l 7,0 0,7 -7,0 z M 294,189 l 7,0 0,7 -7,0 z M 308,189 l 7,0 0,7 -7,0 z M 315,189 l 7,0 0,7 -7,0 z M 322,189 l 7,0 0,7 -7,0 z M 343,189 l 7,0 0,7 -7,0 z M 350,189 l 7,0 0,7 -7,0 z M 357,189 l 7,0 0,7 -7,0 z M 364,189 l 7,0 0,7 -7,0 z M 392,189 l 7,0 0,7 -7,0 z M 399,189 l 7,0 0,7 -7,0 z M 406,189 l 7,0 0,7 -7,0 z M 413,189 l 7,0 0,7 -7,0 z M 420,189 l 7,0 0,7 -7,0 z M 434,189 l 7,0 0,7 -7,0 z M 441,189 l 7,0 0,7 -7,0 z M 448,189 l 7,0 0,7 -7,0 z M 455,189 l 7,0 0,7 -7,0 z M 0,196 l 7,0 0,7 -7,0 z M 28,196 l 7,0 0,7 -7,0 z M 35,196 l 7,0 0,7 -7,0 z M 42,196 l 7,0 0,7 -7,0 z M 84,196 l 7,0 0,7 -7,0 z M 91,196 l 7,0 0,7 -7,0 z M 98,196 l 7,0 0,7 -7,0 z M 105,196 l 7,0 0,7 -7,0 z M 119,196 l 7,0 0,7 -7,0 z M 133,196 l 7,0 0,7 -7,0 z M 140,196 l 7,0 0,7 -7,0 z M 168,196 l 7,0 0,7 -7,0 z M 175,196 l 7,0 0,7 -7,0 z M 189,196 l 7,0 0,7 -7,0 z M 224,196 l 7,0 0,7 -7,0 z M 231,196 l 7,0 0,7 -7,0 z M 259,196 l 7,0 0,7 -7,0 z M 329,196 l 7,0 0,7 -7,0 z M 336,196 l 7,0 0,7 -7,0 z M 350,196 l 7,0 0,7 -7,0 z M 357,196 l 7,0 0,7 -7,0 z M 371,196 l 7,0 0,7 -7,0 z M 378,196 l 7,0 0,7 -7,0 z M 385,196 l 7,0 0,7 -7,0 z M 392,196 l 7,0 0,7 -7,0 z M 399,196 l 7,0 0,7 -7,0 z M 420,196 l 7,0 0,7 -7,0 z M 441,196 l 7,0 0,7 -7,0 z M 455,196 l 7,0 0,7 -7,0 z M 7,203 l 7,0 0,7 -7,0 z M 14,203 l 7,0 0,7 -7,0 z M 28,203 l 7,0 0,7 -7,0 z M 49,203 l 7,0 0,7 -7,0 z M 56,203 l 7,0 0,7 -7,0 z M 63,203 l 7,0 0,7 -7,0 z M 70,203 l 7,0 0,7 -7,0 z M 77,203 l 7,0 0,7 -7,0 z M 91,203 l 7,0 0,7 -7,0 z M 126,203 l 7,0 0,7 -7,0 z M 133,203 l 7,0 0,7 -7,0 z M 154,203 l 7,0 0,7 -7,0 z M 182,203 l 7,0 0,7 -7,0 z M 189,203 l 7,0 0,7 -7,0 z M 210,203 l 7,0 0,7 -7,0 z M 224,203 l 7,0 0,7 -7,0 z M 238,203 l 7,0 0,7 -7,0 z M 259,203 l 7,0 0,7 -7,0 z M 273,203 l 7,0 0,7 -7,0 z M 287,203 l 7,0 0,7 -7,0 z M 301,203 l 7,0 0,7 -7,0 z M 308,203 l 7,0 0,7 -7,0 z M 336,203 l 7,0 0,7 -7,0 z M 343,203 l 7,0 0,7 -7,0 z M 350,203 l 7,0 0,7 -7,0 z M 371,203 l 7,0 0,7 -7,0 z M 378,203 l 7,0 0,7 -7,0 z M 406,203 l 7,0 0,7 -7,0 z M 427,203 l 7,0 0,7 -7,0 z M 462,203 l 7,0 0,7 -7,0 z M 476,203 l 7,0 0,7 -7,0 z M 7,210 l 7,0 0,7 -7,0 z M 14,210 l 7,0 0,7 -7,0 z M 21,210 l 7,0 0,7 -7,0 z M 28,210 l 7,0 0,7 -7,0 z M 35,210 l 7,0 0,7 -7,0 z M 42,210 l 7,0 0,7 -7,0 z M 49,210 l 7,0 0,7 -7,0 z M 56,210 l 7,0 0,7 -7,0 z M 70,210 l 7,0 0,7 -7,0 z M 84,210 l 7,0 0,7 -7,0 z M 91,210 l 7,0 0,7 -7,0 z M 105,210 l 7,0 0,7 -7,0 z M 112,210 l 7,0 0,7 -7,0 z M 119,210 l 7,0 0,7 -7,0 z M 147,210 l 7,0 0,7 -7,0 z M 168,210 l 7,0 0,7 -7,0 z M 189,210 l 7,0 0,7 -7,0 z M 196,210 l 7,0 0,7 -7,0 z M 203,210 l 7,0 0,7 -7,0 z M 231,210 l 7,0 0,7 -7,0 z M 238,210 l 7,0 0,7 -7,0 z M 245,210 l 7,0 0,7 -7,0 z M 259,210 l 7,0 0,7 -7,0 z M 266,210 l 7,0 0,7 -7,0 z M 273,210 l 7,0 0,7 -7,0 z M 294,210 l 7,0 0,7 -7,0 z M 322,210 l 7,0 0,7 -7,0 z M 336,210 l 7,0 0,7 -7,0 z M 343,210 l 7,0 0,7 -7,0 z M 357,210 l 7,0 0,7 -7,0 z M 364,210 l 7,0 0,7 -7,0 z M 371,210 l 7,0 0,7 -7,0 z M 399,210 l 7,0 0,7 -7,0 z M 420,210 l 7,0 0,7 -7,0 z M 427,210 l 7,0 0,7 -7,0 z M 462,210 l 7,0 0,7 -7,0 z M 469,210 l 7,0 0,7 -7,0 z M 14,217 l 7,0 0,7 -7,0 z M 28,217 l 7,0 0,7 -7,0 z M 35,217 l 7,0 0,7 -7,0 z M 63,217 l 7,0 0,7 -7,0 z M 70,217 l 7,0 0,7 -7,0 z M 91,217 l 7,0 0,7 -7,0 z M 98,217 l 7,0 0,7 -7,0 z M 105,217 l 7,0 0,7 -7,0 z M 112,217 l 7,0 0,7 -7,0 z M 133,217 l 7,0 0,7 -7,0 z M 168,217 l 7,0 0,7 -7,0 z M 175,217 l 7,0 0,7 -7,0 z M 182,217 l 7,0 0,7 -7,0 z M 189,217 l 7,0 0,7 -7,0 z M 196,217 l 7,0 0,7 -7,0 z M 203,217 l 7,0 0,7 -7,0 z M 210,217 l 7,0 0,7 -7,0 z M 217,217 l 7,0 0,7 -7,0 z M 224,217 l 7,0 0,7 -7,0 z M 238,217 l 7,0 0,7 -7,0 z M 294,217 l 7,0 0,7 -7,0 z M 301,217 l 7,0 0,7 -7,0 z M 315,217 l 7,0 0,7 -7,0 z M 336,217 l 7,0 0,7 -7,0 z M 378,217 l 7,0 0,7 -7,0 z M 399,217 l 7,0 0,7 -7,0 z M 420,217 l 7,0 0,7 -7,0 z M 427,217 l 7,0 0,7 -7,0 z M 434,217 l 7,0 0,7 -7,0 z M 441,217 l 7,0 0,7 -7,0 z M 448,217 l 7,0 0,7 -7,0 z M 455,217 l 7,0 0,7 -7,0 z M 462,217 l 7,0 0,7 -7,0 z M 469,217 l 7,0 0,7 -7,0 z M 476,217 l 7,0 0,7 -7,0 z M 21,224 l 7,0 0,7 -7,0 z M 28,224 l 7,0 0,7 -7,0 z M 35,224 l 7,0 0,7 -7,0 z M 42,224 l 7,0 0,7 -7,0 z M 49,224 l 7,0 0,7 -7,0 z M 56,224 l 7,0 0,7 -7,0 z M 63,224 l 7,0 0,7 -7,0 z M 84,224 l 7,0 0,7 -7,0 z M 91,224 l 7,0 0,7 -7,0 z M 98,224 l 7,0 0,7 -7,0 z M 105,224 l 7,0 0,7 -7,0 z M 112,224 l 7,0 0,7 -7,0 z M 119,224 l 7,0 0,7 -7,0 z M 147,224 l 7,0 0,7 -7,0 z M 154,224 l 7,0 0,7 -7,0 z M 182,224 l 7,0 0,7 -7,0 z M 189,224 l 7,0 0,7 -7,0 z M 196,224 l 7,0 0,7 -7,0 z M 203,224 l 7,0 0,7 -7,0 z M 210,224 l 7,0 0,7 -7,0 z M 224,224 l 7,0 0,7 -7,0 z M 231,224 l 7,0 0,7 -7,0 z M 238,224 l 7,0 0,7 -7,0 z M 245,224 l 7,0 0,7 -7,0 z M 252,224 l 7,0 0,7 -7,0 z M 273,224 l 7,0 0,7 -7,0 z M 287,224 l 7,0 0,7 -7,0 z M 294,224 l 7,0 0,7 -7,0 z M 308,224 l 7,0 0,7 -7,0 z M 315,224 l 7,0 0,7 -7,0 z M 322,224 l 7,0 0,7 -7,0 z M 329,224 l 7,0 0,7 -7,0 z M 336,224 l 7,0 0,7 -7,0 z M 378,224 l 7,0 0,7 -7,0 z M 385,224 l 7,0 0,7 -7,0 z M 399,224 l 7,0 0,7 -7,0 z M 420,224 l 7,0 0,7 -7,0 z M 427,224 l 7,0 0,7 -7,0 z M 434,224 l 7,0 0,7 -7,0 z M 441,224 l 7,0 0,7 -7,0 z M 448,224 l 7,0 0,7 -7,0 z M 476,224 l 7,0 0,7 -7,0 z M 0,231 l 7,0 0,7 -7,0 z M 7,231 l 7,0 0,7 -7,0 z M 14,231 l 7,0 0,7 -7,0 z M 21,231 l 7,0 0,7 -7,0 z M 28,231 l 7,0 0,7 -7,0 z M 56,231 l 7,0 0,7 -7,0 z M 63,231 l 7,0 0,7 -7,0 z M 70,231 l 7,0 0,7 -7,0 z M 77,231 l 7,0 0,7 -7,0 z M 84,231 l 7,0 0,7 -7,0 z M 112,231 l 7,0 0,7 -7,0 z M 126,231 l 7,0 0,7 -7,0 z M 133,231 l 7,0 0,7 -7,0 z M 140,231 l 7,0 0,7 -7,0 z M 161,231 l 7,0 0,7 -7,0 z M 168,231 l 7,0 0,7 -7,0 z M 175,231 l 7,0 0,7 -7,0 z M 224,231 l 7,0 0,7 -7,0 z M 252,231 l 7,0 0,7 -7,0 z M 259,231 l 7,0 0,7 -7,0 z M 273,231 l 7,0 0,7 -7,0 z M 280,231 l 7,0 0,7 -7,0 z M 287,231 l 7,0 0,7 -7,0 z M 294,231 l 7,0 0,7 -7,0 z M 308,231 l 7,0 0,7 -7,0 z M 322,231 l 7,0 0,7 -7,0 z M 364,231 l 7,0 0,7 -7,0 z M 371,231 l 7,0 0,7 -7,0 z M 378,231 l 7,0 0,7 -7,0 z M 392,231 l 7,0 0,7 -7,0 z M 413,231 l 7,0 0,7 -7,0 z M 420,231 l 7,0 0,7 -7,0 z M 448,231 l 7,0 0,7 -7,0 z M 469,231 l 7,0 0,7 -7,0 z M 21,238 l 7,0 0,7 -7,0 z M 28,238 l 7,0 0,7 -7,0 z M 42,238 l 7,0 0,7 -7,0 z M 56,238 l 7,0 0,7 -7,0 z M 63,238 l 7,0 0,7 -7,0 z M 91,238 l 7,0 0,7 -7,0 z M 105,238 l 7,0 0,7 -7,0 z M 112,238 l 7,0 0,7 -7,0 z M 126,238 l 7,0 0,7 -7,0 z M 140,238 l 7,0 0,7 -7,0 z M 147,238 l 7,0 0,7 -7,0 z M 168,238 l 7,0 0,7 -7,0 z M 189,238 l 7,0 0,7 -7,0 z M 203,238 l 7,0 0,7 -7,0 z M 217,238 l 7,0 0,7 -7,0 z M 224,238 l 7,0 0,7 -7,0 z M 238,238 l 7,0 0,7 -7,0 z M 252,238 l 7,0 0,7 -7,0 z M 287,238 l 7,0 0,7 -7,0 z M 329,238 l 7,0 0,7 -7,0 z M 343,238 l 7,0 0,7 -7,0 z M 357,238 l 7,0 0,7 -7,0 z M 392,238 l 7,0 0,7 -7,0 z M 399,238 l 7,0 0,7 -7,0 z M 406,238 l 7,0 0,7 -7,0 z M 420,238 l 7,0 0,7 -7,0 z M 434,238 l 7,0 0,7 -7,0 z M 448,238 l 7,0 0,7 -7,0 z M 455,238 l 7,0 0,7 -7,0 z M 462,238 l 7,0 0,7 -7,0 z M 469,238 l 7,0 0,7 -7,0 z M 0,245 l 7,0 0,7 -7,0 z M 14,245 l 7,0 0,7 -7,0 z M 21,245 l 7,0 0,7 -7,0 z M 28,245 l 7,0 0,7 -7,0 z M 56,245 l 7,0 0,7 -7,0 z M 63,245 l 7,0 0,7 -7,0 z M 70,245 l 7,0 0,7 -7,0 z M 91,245 l 7,0 0,7 -7,0 z M 98,245 l 7,0 0,7 -7,0 z M 112,245 l 7,0 0,7 -7,0 z M 126,245 l 7,0 0,7 -7,0 z M 133,245 l 7,0 0,7 -7,0 z M 140,245 l 7,0 0,7 -7,0 z M 147,245 l 7,0 0,7 -7,0 z M 154,245 l 7,0 0,7 -7,0 z M 168,245 l 7,0 0,7 -7,0 z M 182,245 l 7,0 0,7 -7,0 z M 189,245 l 7,0 0,7 -7,0 z M 224,245 l 7,0 0,7 -7,0 z M 252,245 l 7,0 0,7 -7,0 z M 273,245 l 7,0 0,7 -7,0 z M 280,245 l 7,0 0,7 -7,0 z M 287,245 l 7,0 0,7 -7,0 z M 294,245 l 7,0 0,7 -7,0 z M 301,245 l 7,0 0,7 -7,0 z M 315,245 l 7,0 0,7 -7,0 z M 322,245 l 7,0 0,7 -7,0 z M 343,245 l 7,0 0,7 -7,0 z M 350,245 l 7,0 0,7 -7,0 z M 357,245 l 7,0 0,7 -7,0 z M 371,245 l 7,0 0,7 -7,0 z M 378,245 l 7,0 0,7 -7,0 z M 392,245 l 7,0 0,7 -7,0 z M 413,245 l 7,0 0,7 -7,0 z M 420,245 l 7,0 0,7 -7,0 z M 448,245 l 7,0 0,7 -7,0 z M 455,245 l 7,0 0,7 -7,0 z M 462,245 l 7,0 0,7 -7,0 z M 469,245 l 7,0 0,7 -7,0 z M 476,245 l 7,0 0,7 -7,0 z M 7,252 l 7,0 0,7 -7,0 z M 28,252 l 7,0 0,7 -7,0 z M 35,252 l 7,0 0,7 -7,0 z M 42,252 l 7,0 0,7 -7,0 z M 49,252 l 7,0 0,7 -7,0 z M 56,252 l 7,0 0,7 -7,0 z M 63,252 l 7,0 0,7 -7,0 z M 98,252 l 7,0 0,7 -7,0 z M 105,252 l 7,0 0,7 -7,0 z M 112,252 l 7,0 0,7 -7,0 z M 119,252 l 7,0 0,7 -7,0 z M 126,252 l 7,0 0,7 -7,0 z M 133,252 l 7,0 0,7 -7,0 z M 154,252 l 7,0 0,7 -7,0 z M 175,252 l 7,0 0,7 -7,0 z M 203,252 l 7,0 0,7 -7,0 z M 224,252 l 7,0 0,7 -7,0 z M 231,252 l 7,0 0,7 -7,0 z M 238,252 l 7,0 0,7 -7,0 z M 245,252 l 7,0 0,7 -7,0 z M 252,252 l 7,0 0,7 -7,0 z M 259,252 l 7,0 0,7 -7,0 z M 287,252 l 7,0 0,7 -7,0 z M 294,252 l 7,0 0,7 -7,0 z M 301,252 l 7,0 0,7 -7,0 z M 308,252 l 7,0 0,7 -7,0 z M 315,252 l 7,0 0,7 -7,0 z M 322,252 l 7,0 0,7 -7,0 z M 329,252 l 7,0 0,7 -7,0 z M 336,252 l 7,0 0,7 -7,0 z M 343,252 l 7,0 0,7 -7,0 z M 350,252 l 7,0 0,7 -7,0 z M 364,252 l 7,0 0,7 -7,0 z M 385,252 l 7,0 0,7 -7,0 z M 399,252 l 7,0 0,7 -7,0 z M 420,252 l 7,0 0,7 -7,0 z M 427,252 l 7,0 0,7 -7,0 z M 434,252 l 7,0 0,7 -7,0 z M 441,252 l 7,0 0,7 -7,0 z M 448,252 l 7,0 0,7 -7,0 z M 455,252 l 7,0 0,7 -7,0 z M 7,259 l 7,0 0,7 -7,0 z M 21,259 l 7,0 0,7 -7,0 z M 28,259 l 7,0 0,7 -7,0 z M 35,259 l 7,0 0,7 -7,0 z M 56,259 l 7,0 0,7 -7,0 z M 84,259 l 7,0 0,7 -7,0 z M 98,259 l 7,0 0,7 -7,0 z M 133,259 l 7,0 0,7 -7,0 z M 140,259 l 7,0 0,7 -7,0 z M 168,259 l 7,0 0,7 -7,0 z M 175,259 l 7,0 0,7 -7,0 z M 182,259 l 7,0 0,7 -7,0 z M 196,259 l 7,0 0,7 -7,0 z M 210,259 l 7,0 0,7 -7,0 z M 217,259 l 7,0 0,7 -7,0 z M 238,259 l 7,0 0,7 -7,0 z M 266,259 l 7,0 0,7 -7,0 z M 294,259 l 7,0 0,7 -7,0 z M 308,259 l 7,0 0,7 -7,0 z M 322,259 l 7,0 0,7 -7,0 z M 329,259 l 7,0 0,7 -7,0 z M 336,259 l 7,0 0,7 -7,0 z M 343,259 l 7,0 0,7 -7,0 z M 357,259 l 7,0 0,7 -7,0 z M 371,259 l 7,0 0,7 -7,0 z M 385,259 l 7,0 0,7 -7,0 z M 399,259 l 7,0 0,7 -7,0 z M 434,259 l 7,0 0,7 -7,0 z M 455,259 l 7,0 0,7 -7,0 z M 469,259 l 7,0 0,7 -7,0 z M 0,266 l 7,0 0,7 -7,0 z M 7,266 l 7,0 0,7 -7,0 z M 14,266 l 7,0 0,7 -7,0 z M 28,266 l 7,0 0,7 -7,0 z M 35,266 l 7,0 0,7 -7,0 z M 42,266 l 7,0 0,7 -7,0 z M 49,266 l 7,0 0,7 -7,0 z M 63,266 l 7,0 0,7 -7,0 z M 70,266 l 7,0 0,7 -7,0 z M 77,266 l 7,0 0,7 -7,0 z M 84,266 l 7,0 0,7 -7,0 z M 91,266 l 7,0 0,7 -7,0 z M 98,266 l 7,0 0,7 -7,0 z M 105,266 l 7,0 0,7 -7,0 z M 140,266 l 7,0 0,7 -7,0 z M 147,266 l 7,0 0,7 -7,0 z M 168,266 l 7,0 0,7 -7,0 z M 175,266 l 7,0 0,7 -7,0 z M 182,266 l 7,0 0,7 -7,0 z M 189,266 l 7,0 0,7 -7,0 z M 203,266 l 7,0 0,7 -7,0 z M 259,266 l 7,0 0,7 -7,0 z M 266,266 l 7,0 0,7 -7,0 z M 294,266 l 7,0 0,7 -7,0 z M 308,266 l 7,0 0,7 -7,0 z M 329,266 l 7,0 0,7 -7,0 z M 336,266 l 7,0 0,7 -7,0 z M 350,266 l 7,0 0,7 -7,0 z M 357,266 l 7,0 0,7 -7,0 z M 364,266 l 7,0 0,7 -7,0 z M 371,266 l 7,0 0,7 -7,0 z M 378,266 l 7,0 0,7 -7,0 z M 385,266 l 7,0 0,7 -7,0 z M 399,266 l 7,0 0,7 -7,0 z M 406,266 l 7,0 0,7 -7,0 z M 427,266 l 7,0 0,7 -7,0 z M 441,266 l 7,0 0,7 -7,0 z M 462,266 l 7,0 0,7 -7,0 z M 469,266 l 7,0 0,7 -7,0 z M 476,266 l 7,0 0,7 -7,0 z M 21,273 l 7,0 0,7 -7,0 z M 28,273 l 7,0 0,7 -7,0 z M 56,273 l 7,0 0,7 -7,0 z M 70,273 l 7,0 0,7 -7,0 z M 84,273 l 7,0 0,7 -7,0 z M 98,273 l 7,0 0,7 -7,0 z M 140,273 l 7,0 0,7 -7,0 z M 154,273 l 7,0 0,7 -7,0 z M 161,273 l 7,0 0,7 -7,0 z M 168,273 l 7,0 0,7 -7,0 z M 189,273 l 7,0 0,7 -7,0 z M 231,273 l 7,0 0,7 -7,0 z M 245,273 l 7,0 0,7 -7,0 z M 252,273 l 7,0 0,7 -7,0 z M 287,273 l 7,0 0,7 -7,0 z M 308,273 l 7,0 0,7 -7,0 z M 336,273 l 7,0 0,7 -7,0 z M 371,273 l 7,0 0,7 -7,0 z M 378,273 l 7,0 0,7 -7,0 z M 385,273 l 7,0 0,7 -7,0 z M 434,273 l 7,0 0,7 -7,0 z M 441,273 l 7,0 0,7 -7,0 z M 455,273 l 7,0 0,7 -7,0 z M 7,280 l 7,0 0,7 -7,0 z M 28,280 l 7,0 0,7 -7,0 z M 35,280 l 7,0 0,7 -7,0 z M 42,280 l 7,0 0,7 -7,0 z M 49,280 l 7,0 0,7 -7,0 z M 70,280 l 7,0 0,7 -7,0 z M 77,280 l 7,0 0,7 -7,0 z M 91,280 l 7,0 0,7 -7,0 z M 105,280 l 7,0 0,7 -7,0 z M 126,280 l 7,0 0,7 -7,0 z M 140,280 l 7,0 0,7 -7,0 z M 168,280 l 7,0 0,7 -7,0 z M 175,280 l 7,0 0,7 -7,0 z M 196,280 l 7,0 0,7 -7,0 z M 203,280 l 7,0 0,7 -7,0 z M 210,280 l 7,0 0,7 -7,0 z M 224,280 l 7,0 0,7 -7,0 z M 231,280 l 7,0 0,7 -7,0 z M 238,280 l 7,0 0,7 -7,0 z M 245,280 l 7,0 0,7 -7,0 z M 252,280 l 7,0 0,7 -7,0 z M 259,280 l 7,0 0,7 -7,0 z M 273,280 l 7,0 0,7 -7,0 z M 294,280 l 7,0 0,7 -7,0 z M 301,280 l 7,0 0,7 -7,0 z M 308,280 l 7,0 0,7 -7,0 z M 315,280 l 7,0 0,7 -7,0 z M 336,280 l 7,0 0,7 -7,0 z M 350,280 l 7,0 0,7 -7,0 z M 371,280 l 7,0 0,7 -7,0 z M 378,280 l 7,0 0,7 -7,0 z M 392,280 l 7,0 0,7 -7,0 z M 399,280 l 7,0 0,7 -7,0 z M 406,280 l 7,0 0,7 -7,0 z M 420,280 l 7,0 0,7 -7,0 z M 441,280 l 7,0 0,7 -7,0 z M 462,280 l 7,0 0,7 -7,0 z M 476,280 l 7,0 0,7 -7,0 z M 14,287 l 7,0 0,7 -7,0 z M 112,287 l 7,0 0,7 -7,0 z M 119,287 l 7,0 0,7 -7,0 z M 126,287 l 7,0 0,7 -7,0 z M 133,287 l 7,0 0,7 -7,0 z M 140,287 l 7,0 0,7 -7,0 z M 147,287 l 7,0 0,7 -7,0 z M 168,287 l 7,0 0,7 -7,0 z M 182,287 l 7,0 0,7 -7,0 z M 203,287 l 7,0 0,7 -7,0 z M 217,287 l 7,0 0,7 -7,0 z M 231,287 l 7,0 0,7 -7,0 z M 266,287 l 7,0 0,7 -7,0 z M 287,287 l 7,0 0,7 -7,0 z M 294,287 l 7,0 0,7 -7,0 z M 308,287 l 7,0 0,7 -7,0 z M 315,287 l 7,0 0,7 -7,0 z M 322,287 l 7,0 0,7 -7,0 z M 329,287 l 7,0 0,7 -7,0 z M 336,287 l 7,0 0,7 -7,0 z M 357,287 l 7,0 0,7 -7,0 z M 371,287 l 7,0 0,7 -7,0 z M 385,287 l 7,0 0,7 -7,0 z M 406,287 l 7,0 0,7 -7,0 z M 413,287 l 7,0 0,7 -7,0 z M 420,287 l 7,0 0,7 -7,0 z M 434,287 l 7,0 0,7 -7,0 z M 462,287 l 7,0 0,7 -7,0 z M 0,294 l 7,0 0,7 -7,0 z M 14,294 l 7,0 0,7 -7,0 z M 42,294 l 7,0 0,7 -7,0 z M 49,294 l 7,0 0,7 -7,0 z M 70,294 l 7,0 0,7 -7,0 z M 77,294 l 7,0 0,7 -7,0 z M 84,294 l 7,0 0,7 -7,0 z M 91,294 l 7,0 0,7 -7,0 z M 98,294 l 7,0 0,7 -7,0 z M 105,294 l 7,0 0,7 -7,0 z M 112,294 l 7,0 0,7 -7,0 z M 126,294 l 7,0 0,7 -7,0 z M 147,294 l 7,0 0,7 -7,0 z M 161,294 l 7,0 0,7 -7,0 z M 168,294 l 7,0 0,7 -7,0 z M 231,294 l 7,0 0,7 -7,0 z M 238,294 l 7,0 0,7 -7,0 z M 245,294 l 7,0 0,7 -7,0 z M 252,294 l 7,0 0,7 -7,0 z M 259,294 l 7,0 0,7 -7,0 z M 266,294 l 7,0 0,7 -7,0 z M 273,294 l 7,0 0,7 -7,0 z M 322,294 l 7,0 0,7 -7,0 z M 329,294 l 7,0 0,7 -7,0 z M 336,294 l 7,0 0,7 -7,0 z M 343,294 l 7,0 0,7 -7,0 z M 371,294 l 7,0 0,7 -7,0 z M 378,294 l 7,0 0,7 -7,0 z M 392,294 l 7,0 0,7 -7,0 z M 399,294 l 7,0 0,7 -7,0 z M 406,294 l 7,0 0,7 -7,0 z M 413,294 l 7,0 0,7 -7,0 z M 434,294 l 7,0 0,7 -7,0 z M 441,294 l 7,0 0,7 -7,0 z M 448,294 l 7,0 0,7 -7,0 z M 469,294 l 7,0 0,7 -7,0 z M 0,301 l 7,0 0,7 -7,0 z M 7,301 l 7,0 0,7 -7,0 z M 14,301 l 7,0 0,7 -7,0 z M 21,301 l 7,0 0,7 -7,0 z M 49,301 l 7,0 0,7 -7,0 z M 63,301 l 7,0 0,7 -7,0 z M 70,301 l 7,0 0,7 -7,0 z M 91,301 l 7,0 0,7 -7,0 z M 112,301 l 7,0 0,7 -7,0 z M 133,301 l 7,0 0,7 -7,0 z M 147,301 l 7,0 0,7 -7,0 z M 161,301 l 7,0 0,7 -7,0 z M 189,301 l 7,0 0,7 -7,0 z M 196,301 l 7,0 0,7 -7,0 z M 203,301 l 7,0 0,7 -7,0 z M 245,301 l 7,0 0,7 -7,0 z M 259,301 l 7,0 0,7 -7,0 z M 273,301 l 7,0 0,7 -7,0 z M 301,301 l 7,0 0,7 -7,0 z M 308,301 l 7,0 0,7 -7,0 z M 336,301 l 7,0 0,7 -7,0 z M 343,301 l 7,0 0,7 -7,0 z M 350,301 l 7,0 0,7 -7,0 z M 364,301 l 7,0 0,7 -7,0 z M 378,301 l 7,0 0,7 -7,0 z M 399,301 l 7,0 0,7 -7,0 z M 413,301 l 7,0 0,7 -7,0 z M 427,301 l 7,0 0,7 -7,0 z M 434,301 l 7,0 0,7 -7,0 z M 455,301 l 7,0 0,7 -7,0 z M 462,301 l 7,0 0,7 -7,0 z M 7,308 l 7,0 0,7 -7,0 z M 14,308 l 7,0 0,7 -7,0 z M 21,308 l 7,0 0,7 -7,0 z M 28,308 l 7,0 0,7 -7,0 z M 42,308 l 7,0 0,7 -7,0 z M 84,308 l 7,0 0,7 -7,0 z M 91,308 l 7,0 0,7 -7,0 z M 98,308 l 7,0 0,7 -7,0 z M 105,308 l 7,0 0,7 -7,0 z M 119,308 l 7,0 0,7 -7,0 z M 133,308 l 7,0 0,7 -7,0 z M 140,308 l 7,0 0,7 -7,0 z M 175,308 l 7,0 0,7 -7,0 z M 189,308 l 7,0 0,7 -7,0 z M 245,308 l 7,0 0,7 -7,0 z M 252,308 l 7,0 0,7 -7,0 z M 301,308 l 7,0 0,7 -7,0 z M 315,308 l 7,0 0,7 -7,0 z M 329,308 l 7,0 0,7 -7,0 z M 336,308 l 7,0 0,7 -7,0 z M 357,308 l 7,0 0,7 -7,0 z M 371,308 l 7,0 0,7 -7,0 z M 385,308 l 7,0 0,7 -7,0 z M 399,308 l 7,0 0,7 -7,0 z M 406,308 l 7,0 0,7 -7,0 z M 427,308 l 7,0 0,7 -7,0 z M 434,308 l 7,0 0,7 -7,0 z M 462,308 l 7,0 0,7 -7,0 z M 476,308 l 7,0 0,7 -7,0 z M 0,315 l 7,0 0,7 -7,0 z M 28,315 l 7,0 0,7 -7,0 z M 35,315 l 7,0 0,7 -7,0 z M 49,315 l 7,0 0,7 -7,0 z M 70,315 l 7,0 0,7 -7,0 z M 91,315 l 7,0 0,7 -7,0 z M 112,315 l 7,0 0,7 -7,0 z M 133,315 l 7,0 0,7 -7,0 z M 147,315 l 7,0 0,7 -7,0 z M 154,315 l 7,0 0,7 -7,0 z M 161,315 l 7,0 0,7 -7,0 z M 168,315 l 7,0 0,7 -7,0 z M 175,315 l 7,0 0,7 -7,0 z M 189,315 l 7,0 0,7 -7,0 z M 210,315 l 7,0 0,7 -7,0 z M 238,315 l 7,0 0,7 -7,0 z M 245,315 l 7,0 0,7 -7,0 z M 252,315 l 7,0 0,7 -7,0 z M 259,315 l 7,0 0,7 -7,0 z M 273,315 l 7,0 0,7 -7,0 z M 287,315 l 7,0 0,7 -7,0 z M 294,315 l 7,0 0,7 -7,0 z M 301,315 l 7,0 0,7 -7,0 z M 343,315 l 7,0 0,7 -7,0 z M 357,315 l 7,0 0,7 -7,0 z M 364,315 l 7,0 0,7 -7,0 z M 378,315 l 7,0 0,7 -7,0 z M 392,315 l 7,0 0,7 -7,0 z M 406,315 l 7,0 0,7 -7,0 z M 420,315 l 7,0 0,7 -7,0 z M 434,315 l 7,0 0,7 -7,0 z M 448,315 l 7,0 0,7 -7,0 z M 455,315 l 7,0 0,7 -7,0 z M 476,315 l 7,0 0,7 -7,0 z M 0,322 l 7,0 0,7 -7,0 z M 14,322 l 7,0 0,7 -7,0 z M 21,322 l 7,0 0,7 -7,0 z M 28,322 l 7,0 0,7 -7,0 z M 42,322 l 7,0 0,7 -7,0 z M 49,322 l 7,0 0,7 -7,0 z M 70,322 l 7,0 0,7 -7,0 z M 84,322 l 7,0 0,7 -7,0 z M 105,322 l 7,0 0,7 -7,0 z M 126,322 l 7,0 0,7 -7,0 z M 133,322 l 7,0 0,7 -7,0 z M 161,322 l 7,0 0,7 -7,0 z M 168,322 l 7,0 0,7 -7,0 z M 175,322 l 7,0 0,7 -7,0 z M 189,322 l 7,0 0,7 -7,0 z M 196,322 l 7,0 0,7 -7,0 z M 203,322 l 7,0 0,7 -7,0 z M 231,322 l 7,0 0,7 -7,0 z M 266,322 l 7,0 0,7 -7,0 z M 273,322 l 7,0 0,7 -7,0 z M 280,322 l 7,0 0,7 -7,0 z M 294,322 l 7,0 0,7 -7,0 z M 308,322 l 7,0 0,7 -7,0 z M 322,322 l 7,0 0,7 -7,0 z M 329,322 l 7,0 0,7 -7,0 z M 336,322 l 7,0 0,7 -7,0 z M 364,322 l 7,0 0,7 -7,0 z M 420,322 l 7,0 0,7 -7,0 z M 427,322 l 7,0 0,7 -7,0 z M 441,322 l 7,0 0,7 -7,0 z M 455,322 l 7,0 0,7 -7,0 z M 469,322 l 7,0 0,7 -7,0 z M 0,329 l 7,0 0,7 -7,0 z M 7,329 l 7,0 0,7 -7,0 z M 28,329 l 7,0 0,7 -7,0 z M 35,329 l 7,0 0,7 -7,0 z M 63,329 l 7,0 0,7 -7,0 z M 77,329 l 7,0 0,7 -7,0 z M 91,329 l 7,0 0,7 -7,0 z M 119,329 l 7,0 0,7 -7,0 z M 126,329 l 7,0 0,7 -7,0 z M 161,329 l 7,0 0,7 -7,0 z M 168,329 l 7,0 0,7 -7,0 z M 175,329 l 7,0 0,7 -7,0 z M 203,329 l 7,0 0,7 -7,0 z M 210,329 l 7,0 0,7 -7,0 z M 231,329 l 7,0 0,7 -7,0 z M 238,329 l 7,0 0,7 -7,0 z M 273,329 l 7,0 0,7 -7,0 z M 287,329 l 7,0 0,7 -7,0 z M 294,329 l 7,0 0,7 -7,0 z M 301,329 l 7,0 0,7 -7,0 z M 308,329 l 7,0 0,7 -7,0 z M 322,329 l 7,0 0,7 -7,0 z M 350,329 l 7,0 0,7 -7,0 z M 357,329 l 7,0 0,7 -7,0 z M 378,329 l 7,0 0,7 -7,0 z M 399,329 l 7,0 0,7 -7,0 z M 413,329 l 7,0 0,7 -7,0 z M 434,329 l 7,0 0,7 -7,0 z M 441,329 l 7,0 0,7 -7,0 z M 455,329 l 7,0 0,7 -7,0 z M 462,329 l 7,0 0,7 -7,0 z M 469,329 l 7,0 0,7 -7,0 z M 0,336 l 7,0 0,7 -7,0 z M 21,336 l 7,0 0,7 -7,0 z M 28,336 l 7,0 0,7 -7,0 z M 35,336 l 7,0 0,7 -7,0 z M 42,336 l 7,0 0,7 -7,0 z M 56,336 l 7,0 0,7 -7,0 z M 63,336 l 7,0 0,7 -7,0 z M 70,336 l 7,0 0,7 -7,0 z M 77,336 l 7,0 0,7 -7,0 z M 84,336 l 7,0 0,7 -7,0 z M 126,336 l 7,0 0,7 -7,0 z M 147,336 l 7,0 0,7 -7,0 z M 154,336 l 7,0 0,7 -7,0 z M 182,336 l 7,0 0,7 -7,0 z M 189,336 l 7,0 0,7 -7,0 z M 196,336 l 7,0 0,7 -7,0 z M 210,336 l 7,0 0,7 -7,0 z M 238,336 l 7,0 0,7 -7,0 z M 245,336 l 7,0 0,7 -7,0 z M 252,336 l 7,0 0,7 -7,0 z M 273,336 l 7,0 0,7 -7,0 z M 280,336 l 7,0 0,7 -7,0 z M 287,336 l 7,0 0,7 -7,0 z M 315,336 l 7,0 0,7 -7,0 z M 329,336 l 7,0 0,7 -7,0 z M 350,336 l 7,0 0,7 -7,0 z M 357,336 l 7,0 0,7 -7,0 z M 385,336 l 7,0 0,7 -7,0 z M 392,336 l 7,0 0,7 -7,0 z M 427,336 l 7,0 0,7 -7,0 z M 434,336 l 7,0 0,7 -7,0 z M 448,336 l 7,0 0,7 -7,0 z M 455,336 l 7,0 0,7 -7,0 z M 7,343 l 7,0 0,7 -7,0 z M 14,343 l 7,0 0,7 -7,0 z M 21,343 l 7,0 0,7 -7,0 z M 28,343 l 7,0 0,7 -7,0 z M 49,343 l 7,0 0,7 -7,0 z M 63,343 l 7,0 0,7 -7,0 z M 70,343 l 7,0 0,7 -7,0 z M 84,343 l 7,0 0,7 -7,0 z M 98,343 l 7,0 0,7 -7,0 z M 112,343 l 7,0 0,7 -7,0 z M 119,343 l 7,0 0,7 -7,0 z M 126,343 l 7,0 0,7 -7,0 z M 147,343 l 7,0 0,7 -7,0 z M 168,343 l 7,0 0,7 -7,0 z M 189,343 l 7,0 0,7 -7,0 z M 210,343 l 7,0 0,7 -7,0 z M 217,343 l 7,0 0,7 -7,0 z M 224,343 l 7,0 0,7 -7,0 z M 231,343 l 7,0 0,7 -7,0 z M 238,343 l 7,0 0,7 -7,0 z M 259,343 l 7,0 0,7 -7,0 z M 266,343 l 7,0 0,7 -7,0 z M 273,343 l 7,0 0,7 -7,0 z M 308,343 l 7,0 0,7 -7,0 z M 322,343 l 7,0 0,7 -7,0 z M 357,343 l 7,0 0,7 -7,0 z M 371,343 l 7,0 0,7 -7,0 z M 378,343 l 7,0 0,7 -7,0 z M 441,343 l 7,0 0,7 -7,0 z M 462,343 l 7,0 0,7 -7,0 z M 469,343 l 7,0 0,7 -7,0 z M 0,350 l 7,0 0,7 -7,0 z M 28,350 l 7,0 0,7 -7,0 z M 35,350 l 7,0 0,7 -7,0 z M 42,350 l 7,0 0,7 -7,0 z M 56,350 l 7,0 0,7 -7,0 z M 77,350 l 7,0 0,7 -7,0 z M 91,350 l 7,0 0,7 -7,0 z M 98,350 l 7,0 0,7 -7,0 z M 105,350 l 7,0 0,7 -7,0 z M 154,350 l 7,0 0,7 -7,0 z M 161,350 l 7,0 0,7 -7,0 z M 168,350 l 7,0 0,7 -7,0 z M 189,350 l 7,0 0,7 -7,0 z M 217,350 l 7,0 0,7 -7,0 z M 231,350 l 7,0 0,7 -7,0 z M 245,350 l 7,0 0,7 -7,0 z M 252,350 l 7,0 0,7 -7,0 z M 266,350 l 7,0 0,7 -7,0 z M 273,350 l 7,0 0,7 -7,0 z M 287,350 l 7,0 0,7 -7,0 z M 315,350 l 7,0 0,7 -7,0 z M 322,350 l 7,0 0,7 -7,0 z M 364,350 l 7,0 0,7 -7,0 z M 385,350 l 7,0 0,7 -7,0 z M 406,350 l 7,0 0,7 -7,0 z M 427,350 l 7,0 0,7 -7,0 z M 441,350 l 7,0 0,7 -7,0 z M 448,350 l 7,0 0,7 -7,0 z M 455,350 l 7,0 0,7 -7,0 z M 0,357 l 7,0 0,7 -7,0 z M 21,357 l 7,0 0,7 -7,0 z M 35,357 l 7,0 0,7 -7,0 z M 49,357 l 7,0 0,7 -7,0 z M 56,357 l 7,0 0,7 -7,0 z M 84,357 l 7,0 0,7 -7,0 z M 105,357 l 7,0 0,7 -7,0 z M 112,357 l 7,0 0,7 -7,0 z M 119,357 l 7,0 0,7 -7,0 z M 126,357 l 7,0 0,7 -7,0 z M 140,357 l 7,0 0,7 -7,0 z M 147,357 l 7,0 0,7 -7,0 z M 182,357 l 7,0 0,7 -7,0 z M 210,357 l 7,0 0,7 -7,0 z M 217,357 l 7,0 0,7 -7,0 z M 231,357 l 7,0 0,7 -7,0 z M 245,357 l 7,0 0,7 -7,0 z M 266,357 l 7,0 0,7 -7,0 z M 273,357 l 7,0 0,7 -7,0 z M 280,357 l 7,0 0,7 -7,0 z M 308,357 l 7,0 0,7 -7,0 z M 315,357 l 7,0 0,7 -7,0 z M 322,357 l 7,0 0,7 -7,0 z M 329,357 l 7,0 0,7 -7,0 z M 350,357 l 7,0 0,7 -7,0 z M 357,357 l 7,0 0,7 -7,0 z M 364,357 l 7,0 0,7 -7,0 z M 378,357 l 7,0 0,7 -7,0 z M 392,357 l 7,0 0,7 -7,0 z M 399,357 l 7,0 0,7 -7,0 z M 420,357 l 7,0 0,7 -7,0 z M 434,357 l 7,0 0,7 -7,0 z M 441,357 l 7,0 0,7 -7,0 z M 462,357 l 7,0 0,7 -7,0 z M 7,364 l 7,0 0,7 -7,0 z M 42,364 l 7,0 0,7 -7,0 z M 49,364 l 7,0 0,7 -7,0 z M 63,364 l 7,0 0,7 -7,0 z M 77,364 l 7,0 0,7 -7,0 z M 91,364 l 7,0 0,7 -7,0 z M 98,364 l 7,0 0,7 -7,0 z M 105,364 l 7,0 0,7 -7,0 z M 112,364 l 7,0 0,7 -7,0 z M 119,364 l 7,0 0,7 -7,0 z M 126,364 l 7,0 0,7 -7,0 z M 161,364 l 7,0 0,7 -7,0 z M 175,364 l 7,0 0,7 -7,0 z M 189,364 l 7,0 0,7 -7,0 z M 203,364 l 7,0 0,7 -7,0 z M 217,364 l 7,0 0,7 -7,0 z M 224,364 l 7,0 0,7 -7,0 z M 266,364 l 7,0 0,7 -7,0 z M 301,364 l 7,0 0,7 -7,0 z M 308,364 l 7,0 0,7 -7,0 z M 315,364 l 7,0 0,7 -7,0 z M 322,364 l 7,0 0,7 -7,0 z M 329,364 l 7,0 0,7 -7,0 z M 336,364 l 7,0 0,7 -7,0 z M 364,364 l 7,0 0,7 -7,0 z M 385,364 l 7,0 0,7 -7,0 z M 399,364 l 7,0 0,7 -7,0 z M 420,364 l 7,0 0,7 -7,0 z M 427,364 l 7,0 0,7 -7,0 z M 441,364 l 7,0 0,7 -7,0 z M 448,364 l 7,0 0,7 -7,0 z M 7,371 l 7,0 0,7 -7,0 z M 21,371 l 7,0 0,7 -7,0 z M 63,371 l 7,0 0,7 -7,0 z M 133,371 l 7,0 0,7 -7,0 z M 140,371 l 7,0 0,7 -7,0 z M 147,371 l 7,0 0,7 -7,0 z M 161,371 l 7,0 0,7 -7,0 z M 168,371 l 7,0 0,7 -7,0 z M 182,371 l 7,0 0,7 -7,0 z M 210,371 l 7,0 0,7 -7,0 z M 217,371 l 7,0 0,7 -7,0 z M 231,371 l 7,0 0,7 -7,0 z M 238,371 l 7,0 0,7 -7,0 z M 273,371 l 7,0 0,7 -7,0 z M 280,371 l 7,0 0,7 -7,0 z M 287,371 l 7,0 0,7 -7,0 z M 294,371 l 7,0 0,7 -7,0 z M 308,371 l 7,0 0,7 -7,0 z M 315,371 l 7,0 0,7 -7,0 z M 336,371 l 7,0 0,7 -7,0 z M 357,371 l 7,0 0,7 -7,0 z M 364,371 l 7,0 0,7 -7,0 z M 371,371 l 7,0 0,7 -7,0 z M 413,371 l 7,0 0,7 -7,0 z M 420,371 l 7,0 0,7 -7,0 z M 427,371 l 7,0 0,7 -7,0 z M 441,371 l 7,0 0,7 -7,0 z M 476,371 l 7,0 0,7 -7,0 z M 21,378 l 7,0 0,7 -7,0 z M 28,378 l 7,0 0,7 -7,0 z M 42,378 l 7,0 0,7 -7,0 z M 49,378 l 7,0 0,7 -7,0 z M 77,378 l 7,0 0,7 -7,0 z M 91,378 l 7,0 0,7 -7,0 z M 98,378 l 7,0 0,7 -7,0 z M 105,378 l 7,0 0,7 -7,0 z M 119,378 l 7,0 0,7 -7,0 z M 126,378 l 7,0 0,7 -7,0 z M 154,378 l 7,0 0,7 -7,0 z M 182,378 l 7,0 0,7 -7,0 z M 189,378 l 7,0 0,7 -7,0 z M 196,378 l 7,0 0,7 -7,0 z M 210,378 l 7,0 0,7 -7,0 z M 231,378 l 7,0 0,7 -7,0 z M 273,378 l 7,0 0,7 -7,0 z M 287,378 l 7,0 0,7 -7,0 z M 294,378 l 7,0 0,7 -7,0 z M 301,378 l 7,0 0,7 -7,0 z M 357,378 l 7,0 0,7 -7,0 z M 406,378 l 7,0 0,7 -7,0 z M 413,378 l 7,0 0,7 -7,0 z M 420,378 l 7,0 0,7 -7,0 z M 427,378 l 7,0 0,7 -7,0 z M 441,378 l 7,0 0,7 -7,0 z M 469,378 l 7,0 0,7 -7,0 z M 476,378 l 7,0 0,7 -7,0 z M 14,385 l 7,0 0,7 -7,0 z M 21,385 l 7,0 0,7 -7,0 z M 28,385 l 7,0 0,7 -7,0 z M 49,385 l 7,0 0,7 -7,0 z M 70,385 l 7,0 0,7 -7,0 z M 84,385 l 7,0 0,7 -7,0 z M 91,385 l 7,0 0,7 -7,0 z M 105,385 l 7,0 0,7 -7,0 z M 126,385 l 7,0 0,7 -7,0 z M 140,385 l 7,0 0,7 -7,0 z M 154,385 l 7,0 0,7 -7,0 z M 161,385 l 7,0 0,7 -7,0 z M 175,385 l 7,0 0,7 -7,0 z M 189,385 l 7,0 0,7 -7,0 z M 203,385 l 7,0 0,7 -7,0 z M 231,385 l 7,0 0,7 -7,0 z M 245,385 l 7,0 0,7 -7,0 z M 252,385 l 7,0 0,7 -7,0 z M 259,385 l 7,0 0,7 -7,0 z M 266,385 l 7,0 0,7 -7,0 z M 301,385 l 7,0 0,7 -7,0 z M 315,385 l 7,0 0,7 -7,0 z M 322,385 l 7,0 0,7 -7,0 z M 336,385 l 7,0 0,7 -7,0 z M 343,385 l 7,0 0,7 -7,0 z M 357,385 l 7,0 0,7 -7,0 z M 364,385 l 7,0 0,7 -7,0 z M 371,385 l 7,0 0,7 -7,0 z M 392,385 l 7,0 0,7 -7,0 z M 420,385 l 7,0 0,7 -7,0 z M 427,385 l 7,0 0,7 -7,0 z M 434,385 l 7,0 0,7 -7,0 z M 455,385 l 7,0 0,7 -7,0 z M 0,392 l 7,0 0,7 -7,0 z M 21,392 l 7,0 0,7 -7,0 z M 42,392 l 7,0 0,7 -7,0 z M 63,392 l 7,0 0,7 -7,0 z M 70,392 l 7,0 0,7 -7,0 z M 77,392 l 7,0 0,7 -7,0 z M 84,392 l 7,0 0,7 -7,0 z M 98,392 l 7,0 0,7 -7,0 z M 133,392 l 7,0 0,7 -7,0 z M 140,392 l 7,0 0,7 -7,0 z M 161,392 l 7,0 0,7 -7,0 z M 168,392 l 7,0 0,7 -7,0 z M 175,392 l 7,0 0,7 -7,0 z M 189,392 l 7,0 0,7 -7,0 z M 196,392 l 7,0 0,7 -7,0 z M 203,392 l 7,0 0,7 -7,0 z M 210,392 l 7,0 0,7 -7,0 z M 252,392 l 7,0 0,7 -7,0 z M 259,392 l 7,0 0,7 -7,0 z M 280,392 l 7,0 0,7 -7,0 z M 287,392 l 7,0 0,7 -7,0 z M 294,392 l 7,0 0,7 -7,0 z M 301,392 l 7,0 0,7 -7,0 z M 308,392 l 7,0 0,7 -7,0 z M 315,392 l 7,0 0,7 -7,0 z M 322,392 l 7,0 0,7 -7,0 z M 336,392 l 7,0 0,7 -7,0 z M 399,392 l 7,0 0,7 -7,0 z M 406,392 l 7,0 0,7 -7,0 z M 441,392 l 7,0 0,7 -7,0 z M 448,392 l 7,0 0,7 -7,0 z M 0,399 l 7,0 0,7 -7,0 z M 14,399 l 7,0 0,7 -7,0 z M 28,399 l 7,0 0,7 -7,0 z M 49,399 l 7,0 0,7 -7,0 z M 63,399 l 7,0 0,7 -7,0 z M 70,399 l 7,0 0,7 -7,0 z M 77,399 l 7,0 0,7 -7,0 z M 84,399 l 7,0 0,7 -7,0 z M 98,399 l 7,0 0,7 -7,0 z M 105,399 l 7,0 0,7 -7,0 z M 126,399 l 7,0 0,7 -7,0 z M 140,399 l 7,0 0,7 -7,0 z M 154,399 l 7,0 0,7 -7,0 z M 161,399 l 7,0 0,7 -7,0 z M 175,399 l 7,0 0,7 -7,0 z M 182,399 l 7,0 0,7 -7,0 z M 217,399 l 7,0 0,7 -7,0 z M 224,399 l 7,0 0,7 -7,0 z M 245,399 l 7,0 0,7 -7,0 z M 252,399 l 7,0 0,7 -7,0 z M 266,399 l 7,0 0,7 -7,0 z M 273,399 l 7,0 0,7 -7,0 z M 280,399 l 7,0 0,7 -7,0 z M 315,399 l 7,0 0,7 -7,0 z M 329,399 l 7,0 0,7 -7,0 z M 336,399 l 7,0 0,7 -7,0 z M 350,399 l 7,0 0,7 -7,0 z M 357,399 l 7,0 0,7 -7,0 z M 364,399 l 7,0 0,7 -7,0 z M 378,399 l 7,0 0,7 -7,0 z M 406,399 l 7,0 0,7 -7,0 z M 413,399 l 7,0 0,7 -7,0 z M 420,399 l 7,0 0,7 -7,0 z M 448,399 l 7,0 0,7 -7,0 z M 462,399 l 7,0 0,7 -7,0 z M 0,406 l 7,0 0,7 -7,0 z M 14,406 l 7,0 0,7 -7,0 z M 28,406 l 7,0 0,7 -7,0 z M 35,406 l 7,0 0,7 -7,0 z M 42,406 l 7,0 0,7 -7,0 z M 49,406 l 7,0 0,7 -7,0 z M 56,406 l 7,0 0,7 -7,0 z M 70,406 l 7,0 0,7 -7,0 z M 91,406 l 7,0 0,7 -7,0 z M 98,406 l 7,0 0,7 -7,0 z M 168,406 l 7,0 0,7 -7,0 z M 175,406 l 7,0 0,7 -7,0 z M 182,406 l 7,0 0,7 -7,0 z M 189,406 l 7,0 0,7 -7,0 z M 196,406 l 7,0 0,7 -7,0 z M 203,406 l 7,0 0,7 -7,0 z M 210,406 l 7,0 0,7 -7,0 z M 217,406 l 7,0 0,7 -7,0 z M 224,406 l 7,0 0,7 -7,0 z M 231,406 l 7,0 0,7 -7,0 z M 259,406 l 7,0 0,7 -7,0 z M 266,406 l 7,0 0,7 -7,0 z M 273,406 l 7,0 0,7 -7,0 z M 294,406 l 7,0 0,7 -7,0 z M 322,406 l 7,0 0,7 -7,0 z M 329,406 l 7,0 0,7 -7,0 z M 336,406 l 7,0 0,7 -7,0 z M 357,406 l 7,0 0,7 -7,0 z M 371,406 l 7,0 0,7 -7,0 z M 399,406 l 7,0 0,7 -7,0 z M 406,406 l 7,0 0,7 -7,0 z M 420,406 l 7,0 0,7 -7,0 z M 427,406 l 7,0 0,7 -7,0 z M 441,406 l 7,0 0,7 -7,0 z M 448,406 l 7,0 0,7 -7,0 z M 462,406 l 7,0 0,7 -7,0 z M 469,406 l 7,0 0,7 -7,0 z M 476,406 l 7,0 0,7 -7,0 z M 0,413 l 7,0 0,7 -7,0 z M 49,413 l 7,0 0,7 -7,0 z M 63,413 l 7,0 0,7 -7,0 z M 84,413 l 7,0 0,7 -7,0 z M 91,413 l 7,0 0,7 -7,0 z M 98,413 l 7,0 0,7 -7,0 z M 105,413 l 7,0 0,7 -7,0 z M 126,413 l 7,0 0,7 -7,0 z M 140,413 l 7,0 0,7 -7,0 z M 168,413 l 7,0 0,7 -7,0 z M 210,413 l 7,0 0,7 -7,0 z M 217,413 l 7,0 0,7 -7,0 z M 224,413 l 7,0 0,7 -7,0 z M 238,413 l 7,0 0,7 -7,0 z M 273,413 l 7,0 0,7 -7,0 z M 280,413 l 7,0 0,7 -7,0 z M 294,413 l 7,0 0,7 -7,0 z M 308,413 l 7,0 0,7 -7,0 z M 315,413 l 7,0 0,7 -7,0 z M 322,413 l 7,0 0,7 -7,0 z M 357,413 l 7,0 0,7 -7,0 z M 364,413 l 7,0 0,7 -7,0 z M 378,413 l 7,0 0,7 -7,0 z M 385,413 l 7,0 0,7 -7,0 z M 392,413 l 7,0 0,7 -7,0 z M 399,413 l 7,0 0,7 -7,0 z M 413,413 l 7,0 0,7 -7,0 z M 441,413 l 7,0 0,7 -7,0 z M 455,413 l 7,0 0,7 -7,0 z M 476,413 l 7,0 0,7 -7,0 z M 0,420 l 7,0 0,7 -7,0 z M 21,420 l 7,0 0,7 -7,0 z M 28,420 l 7,0 0,7 -7,0 z M 42,420 l 7,0 0,7 -7,0 z M 49,420 l 7,0 0,7 -7,0 z M 56,420 l 7,0 0,7 -7,0 z M 70,420 l 7,0 0,7 -7,0 z M 84,420 l 7,0 0,7 -7,0 z M 91,420 l 7,0 0,7 -7,0 z M 98,420 l 7,0 0,7 -7,0 z M 105,420 l 7,0 0,7 -7,0 z M 112,420 l 7,0 0,7 -7,0 z M 119,420 l 7,0 0,7 -7,0 z M 140,420 l 7,0 0,7 -7,0 z M 168,420 l 7,0 0,7 -7,0 z M 175,420 l 7,0 0,7 -7,0 z M 196,420 l 7,0 0,7 -7,0 z M 210,420 l 7,0 0,7 -7,0 z M 224,420 l 7,0 0,7 -7,0 z M 231,420 l 7,0 0,7 -7,0 z M 238,420 l 7,0 0,7 -7,0 z M 245,420 l 7,0 0,7 -7,0 z M 252,420 l 7,0 0,7 -7,0 z M 259,420 l 7,0 0,7 -7,0 z M 280,420 l 7,0 0,7 -7,0 z M 294,420 l 7,0 0,7 -7,0 z M 301,420 l 7,0 0,7 -7,0 z M 329,420 l 7,0 0,7 -7,0 z M 357,420 l 7,0 0,7 -7,0 z M 378,420 l 7,0 0,7 -7,0 z M 385,420 l 7,0 0,7 -7,0 z M 392,420 l 7,0 0,7 -7,0 z M 399,420 l 7,0 0,7 -7,0 z M 406,420 l 7,0 0,7 -7,0 z M 420,420 l 7,0 0,7 -7,0 z M 427,420 l 7,0 0,7 -7,0 z M 434,420 l 7,0 0,7 -7,0 z M 441,420 l 7,0 0,7 -7,0 z M 448,420 l 7,0 0,7 -7,0 z M 455,420 l 7,0 0,7 -7,0 z M 462,420 l 7,0 0,7 -7,0 z M 476,420 l 7,0 0,7 -7,0 z M 56,427 l 7,0 0,7 -7,0 z M 63,427 l 7,0 0,7 -7,0 z M 84,427 l 7,0 0,7 -7,0 z M 91,427 l 7,0 0,7 -7,0 z M 98,427 l 7,0 0,7 -7,0 z M 112,427 l 7,0 0,7 -7,0 z M 133,427 l 7,0 0,7 -7,0 z M 154,427 l 7,0 0,7 -7,0 z M 182,427 l 7,0 0,7 -7,0 z M 210,427 l 7,0 0,7 -7,0 z M 224,427 l 7,0 0,7 -7,0 z M 252,427 l 7,0 0,7 -7,0 z M 259,427 l 7,0 0,7 -7,0 z M 273,427 l 7,0 0,7 -7,0 z M 280,427 l 7,0 0,7 -7,0 z M 287,427 l 7,0 0,7 -7,0 z M 315,427 l 7,0 0,7 -7,0 z M 343,427 l 7,0 0,7 -7,0 z M 350,427 l 7,0 0,7 -7,0 z M 357,427 l 7,0 0,7 -7,0 z M 364,427 l 7,0 0,7 -7,0 z M 378,427 l 7,0 0,7 -7,0 z M 406,427 l 7,0 0,7 -7,0 z M 420,427 l 7,0 0,7 -7,0 z M 448,427 l 7,0 0,7 -7,0 z M 462,427 l 7,0 0,7 -7,0 z M 476,427 l 7,0 0,7 -7,0 z M 0,434 l 7,0 0,7 -7,0 z M 7,434 l 7,0 0,7 -7,0 z M 14,434 l 7,0 0,7 -7,0 z M 21,434 l 7,0 0,7 -7,0 z M 28,434 l 7,0 0,7 -7,0 z M 35,434 l 7,0 0,7 -7,0 z M 42,434 l 7,0 0,7 -7,0 z M 56,434 l 7,0 0,7 -7,0 z M 77,434 l 7,0 0,7 -7,0 z M 84,434 l 7,0 0,7 -7,0 z M 98,434 l 7,0 0,7 -7,0 z M 105,434 l 7,0 0,7 -7,0 z M 112,434 l 7,0 0,7 -7,0 z M 119,434 l 7,0 0,7 -7,0 z M 140,434 l 7,0 0,7 -7,0 z M 161,434 l 7,0 0,7 -7,0 z M 189,434 l 7,0 0,7 -7,0 z M 224,434 l 7,0 0,7 -7,0 z M 238,434 l 7,0 0,7 -7,0 z M 252,434 l 7,0 0,7 -7,0 z M 259,434 l 7,0 0,7 -7,0 z M 266,434 l 7,0 0,7 -7,0 z M 273,434 l 7,0 0,7 -7,0 z M 294,434 l 7,0 0,7 -7,0 z M 315,434 l 7,0 0,7 -7,0 z M 322,434 l 7,0 0,7 -7,0 z M 336,434 l 7,0 0,7 -7,0 z M 343,434 l 7,0 0,7 -7,0 z M 357,434 l 7,0 0,7 -7,0 z M 371,434 l 7,0 0,7 -7,0 z M 392,434 l 7,0 0,7 -7,0 z M 413,434 l 7,0 0,7 -7,0 z M 420,434 l 7,0 0,7 -7,0 z M 434,434 l 7,0 0,7 -7,0 z M 448,434 l 7,0 0,7 -7,0 z M 469,434 l 7,0 0,7 -7,0 z M 0,441 l 7,0 0,7 -7,0 z M 42,441 l 7,0 0,7 -7,0 z M 63,441 l 7,0 0,7 -7,0 z M 77,441 l 7,0 0,7 -7,0 z M 84,441 l 7,0 0,7 -7,0 z M 105,441 l 7,0 0,7 -7,0 z M 112,441 l 7,0 0,7 -7,0 z M 161,441 l 7,0 0,7 -7,0 z M 189,441 l 7,0 0,7 -7,0 z M 224,441 l 7,0 0,7 -7,0 z M 252,441 l 7,0 0,7 -7,0 z M 266,441 l 7,0 0,7 -7,0 z M 273,441 l 7,0 0,7 -7,0 z M 280,441 l 7,0 0,7 -7,0 z M 287,441 l 7,0 0,7 -7,0 z M 294,441 l 7,0 0,7 -7,0 z M 301,441 l 7,0 0,7 -7,0 z M 308,441 l 7,0 0,7 -7,0 z M 315,441 l 7,0 0,7 -7,0 z M 322,441 l 7,0 0,7 -7,0 z M 336,441 l 7,0 0,7 -7,0 z M 357,441 l 7,0 0,7 -7,0 z M 364,441 l 7,0 0,7 -7,0 z M 378,441 l 7,0 0,7 -7,0 z M 392,441 l 7,0 0,7 -7,0 z M 420,441 l 7,0 0,7 -7,0 z M 448,441 l 7,0 0,7 -7,0 z M 455,441 l 7,0 0,7 -7,0 z M 462,441 l 7,0 0,7 -7,0 z M 0,448 l 7,0 0,7 -7,0 z M 14,448 l 7,0 0,7 -7,0 z M 21,448 l 7,0 0,7 -7,0 z M 28,448 l 7,0 0,7 -7,0 z M 42,448 l 7,0 0,7 -7,0 z M 56,448 l 7,0 0,7 -7,0 z M 84,448 l 7,0 0,7 -7,0 z M 91,448 l 7,0 0,7 -7,0 z M 98,448 l 7,0 0,7 -7,0 z M 119,448 l 7,0 0,7 -7,0 z M 133,448 l 7,0 0,7 -7,0 z M 140,448 l 7,0 0,7 -7,0 z M 147,448 l 7,0 0,7 -7,0 z M 154,448 l 7,0 0,7 -7,0 z M 161,448 l 7,0 0,7 -7,0 z M 196,448 l 7,0 0,7 -7,0 z M 203,448 l 7,0 0,7 -7,0 z M 210,448 l 7,0 0,7 -7,0 z M 224,448 l 7,0 0,7 -7,0 z M 231,448 l 7,0 0,7 -7,0 z M 238,448 l 7,0 0,7 -7,0 z M 245,448 l 7,0 0,7 -7,0 z M 252,448 l 7,0 0,7 -7,0 z M 294,448 l 7,0 0,7 -7,0 z M 308,448 l 7,0 0,7 -7,0 z M 315,448 l 7,0 0,7 -7,0 z M 329,448 l 7,0 0,7 -7,0 z M 378,448 l 7,0 0,7 -7,0 z M 385,448 l 7,0 0,7 -7,0 z M 392,448 l 7,0 0,7 -7,0 z M 399,448 l 7,0 0,7 -7,0 z M 420,448 l 7,0 0,7 -7,0 z M 427,448 l 7,0 0,7 -7,0 z M 434,448 l 7,0 0,7 -7,0 z M 441,448 l 7,0 0,7 -7,0 z M 448,448 l 7,0 0,7 -7,0 z M 455,448 l 7,0 0,7 -7,0 z M 476,448 l 7,0 0,7 -7,0 z M 0,455 l 7,0 0,7 -7,0 z M 14,455 l 7,0 0,7 -7,0 z M 21,455 l 7,0 0,7 -7,0 z M 28,455 l 7,0 0,7 -7,0 z M 42,455 l 7,0 0,7 -7,0 z M 56,455 l 7,0 0,7 -7,0 z M 63,455 l 7,0 0,7 -7,0 z M 70,455 l 7,0 0,7 -7,0 z M 77,455 l 7,0 0,7 -7,0 z M 84,455 l 7,0 0,7 -7,0 z M 98,455 l 7,0 0,7 -7,0 z M 112,455 l 7,0 0,7 -7,0 z M 126,455 l 7,0 0,7 -7,0 z M 147,455 l 7,0 0,7 -7,0 z M 154,455 l 7,0 0,7 -7,0 z M 161,455 l 7,0 0,7 -7,0 z M 168,455 l 7,0 0,7 -7,0 z M 175,455 l 7,0 0,7 -7,0 z M 203,455 l 7,0 0,7 -7,0 z M 210,455 l 7,0 0,7 -7,0 z M 231,455 l 7,0 0,7 -7,0 z M 245,455 l 7,0 0,7 -7,0 z M 252,455 l 7,0 0,7 -7,0 z M 259,455 l 7,0 0,7 -7,0 z M 266,455 l 7,0 0,7 -7,0 z M 308,455 l 7,0 0,7 -7,0 z M 336,455 l 7,0 0,7 -7,0 z M 357,455 l 7,0 0,7 -7,0 z M 371,455 l 7,0 0,7 -7,0 z M 378,455 l 7,0 0,7 -7,0 z M 392,455 l 7,0 0,7 -7,0 z M 399,455 l 7,0 0,7 -7,0 z M 420,455 l 7,0 0,7 -7,0 z M 434,455 l 7,0 0,7 -7,0 z M 441,455 l 7,0 0,7 -7,0 z M 462,455 l 7,0 0,7 -7,0 z M 0,462 l 7,0 0,7 -7,0 z M 14,462 l 7,0 0,7 -7,0 z M 21,462 l 7,0 0,7 -7,0 z M 28,462 l 7,0 0,7 -7,0 z M 42,462 l 7,0 0,7 -7,0 z M 56,462 l 7,0 0,7 -7,0 z M 77,462 l 7,0 0,7 -7,0 z M 84,462 l 7,0 0,7 -7,0 z M 98,462 l 7,0 0,7 -7,0 z M 105,462 l 7,0 0,7 -7,0 z M 112,462 l 7,0 0,7 -7,0 z M 119,462 l 7,0 0,7 -7,0 z M 140,462 l 7,0 0,7 -7,0 z M 147,462 l 7,0 0,7 -7,0 z M 168,462 l 7,0 0,7 -7,0 z M 175,462 l 7,0 0,7 -7,0 z M 210,462 l 7,0 0,7 -7,0 z M 217,462 l 7,0 0,7 -7,0 z M 231,462 l 7,0 0,7 -7,0 z M 238,462 l 7,0 0,7 -7,0 z M 294,462 l 7,0 0,7 -7,0 z M 308,462 l 7,0 0,7 -7,0 z M 315,462 l 7,0 0,7 -7,0 z M 364,462 l 7,0 0,7 -7,0 z M 392,462 l 7,0 0,7 -7,0 z M 399,462 l 7,0 0,7 -7,0 z M 406,462 l 7,0 0,7 -7,0 z M 462,462 l 7,0 0,7 -7,0 z M 0,469 l 7,0 0,7 -7,0 z M 42,469 l 7,0 0,7 -7,0 z M 56,469 l 7,0 0,7 -7,0 z M 63,469 l 7,0 0,7 -7,0 z M 70,469 l 7,0 0,7 -7,0 z M 77,469 l 7,0 0,7 -7,0 z M 84,469 l 7,0 0,7 -7,0 z M 98,469 l 7,0 0,7 -7,0 z M 140,469 l 7,0 0,7 -7,0 z M 147,469 l 7,0 0,7 -7,0 z M 161,469 l 7,0 0,7 -7,0 z M 168,469 l 7,0 0,7 -7,0 z M 175,469 l 7,0 0,7 -7,0 z M 224,469 l 7,0 0,7 -7,0 z M 231,469 l 7,0 0,7 -7,0 z M 238,469 l 7,0 0,7 -7,0 z M 245,469 l 7,0 0,7 -7,0 z M 266,469 l 7,0 0,7 -7,0 z M 280,469 l 7,0 0,7 -7,0 z M 294,469 l 7,0 0,7 -7,0 z M 308,469 l 7,0 0,7 -7,0 z M 336,469 l 7,0 0,7 -7,0 z M 350,469 l 7,0 0,7 -7,0 z M 378,469 l 7,0 0,7 -7,0 z M 385,469 l 7,0 0,7 -7,0 z M 392,469 l 7,0 0,7 -7,0 z M 399,469 l 7,0 0,7 -7,0 z M 413,469 l 7,0 0,7 -7,0 z M 420,469 l 7,0 0,7 -7,0 z M 427,469 l 7,0 0,7 -7,0 z M 441,469 l 7,0 0,7 -7,0 z M 462,469 l 7,0 0,7 -7,0 z M 0,476 l 7,0 0,7 -7,0 z M 7,476 l 7,0 0,7 -7,0 z M 14,476 l 7,0 0,7 -7,0 z M 21,476 l 7,0 0,7 -7,0 z M 28,476 l 7,0 0,7 -7,0 z M 35,476 l 7,0 0,7 -7,0 z M 42,476 l 7,0 0,7 -7,0 z M 56,476 l 7,0 0,7 -7,0 z M 63,476 l 7,0 0,7 -7,0 z M 77,476 l 7,0 0,7 -7,0 z M 84,476 l 7,0 0,7 -7,0 z M 91,476 l 7,0 0,7 -7,0 z M 98,476 l 7,0 0,7 -7,0 z M 105,476 l 7,0 0,7 -7,0 z M 112,476 l 7,0 0,7 -7,0 z M 126,476 l 7,0 0,7 -7,0 z M 140,476 l 7,0 0,7 -7,0 z M 154,476 l 7,0 0,7 -7,0 z M 175,476 l 7,0 0,7 -7,0 z M 196,476 l 7,0 0,7 -7,0 z M 203,476 l 7,0 0,7 -7,0 z M 217,476 l 7,0 0,7 -7,0 z M 224,476 l 7,0 0,7 -7,0 z M 231,476 l 7,0 0,7 -7,0 z M 259,476 l 7,0 0,7 -7,0 z M 266,476 l 7,0 0,7 -7,0 z M 294,476 l 7,0 0,7 -7,0 z M 308,476 l 7,0 0,7 -7,0 z M 315,476 l 7,0 0,7 -7,0 z M 329,476 l 7,0 0,7 -7,0 z M 336,476 l 7,0 0,7 -7,0 z M 350,476 l 7,0 0,7 -7,0 z M 364,476 l 7,0 0,7 -7,0 z M 378,476 l 7,0 0,7 -7,0 z M 385,476 l 7,0 0,7 -7,0 z M 406,476 l 7,0 0,7 -7,0 z M 413,476 l 7,0 0,7 -7,0 z M 420,476 l 7,0 0,7 -7,0 z M 455,476 l 7,0 0,7 -7,0 z M 469,476 l 7,0 0,7 -7,0 z " />
	</g>
</svg>
