<?xml version="1.0" standalone="no"?>
<svg xmlns="http://www.w3.org/2000/svg" version="1.1" width="511" height="511">
	<!-- Created with https://api.qrserver.com (QR Code API, see goQR.me/api for information) -->
	<title>QR Code</title>
	<desc>Report generated at 2024/11/05 18:52:38 (Server Time)

Latitude: 23.7104
Lonitude: 90.40744

Current temperature in Dhaka is 25.3째C
Wind speed is 2.5 km/h
Humidity is 83%
Precipitation is 0.0 mm
Visibility is 19160.0m
Cloud cover is 0%
Pressure is 1012.8hPa
Dew point is 22.2째C
Max temperature today is 29.3째C
Min temperature today is 23.6째C
Daily precipitation is 2.2mm
Sunrise at 2024-11-06T06:07
Sunset at 2024-11-06T17:16</desc>
	<rect style="fill:rgb(255, 255, 255);fill-opacity:1" x="0" y="0" width="511" height="511" />
	<g id="elements">
		<path style="fill:rgb(0, 0, 0)" d="M 0,0 l 7,0 0,7 -7,0 z M 7,0 l 7,0 0,7 -7,0 z M 14,0 l 7,0 0,7 -7,0 z M 21,0 l 7,0 0,7 -7,0 z M 28,0 l 7,0 0,7 -7,0 z M 35,0 l 7,0 0,7 -7,0 z M 42,0 l 7,0 0,7 -7,0 z M 63,0 l 7,0 0,7 -7,0 z M 77,0 l 7,0 0,7 -7,0 z M 98,0 l 7,0 0,7 -7,0 z M 105,0 l 7,0 0,7 -7,0 z M 112,0 l 7,0 0,7 -7,0 z M 140,0 l 7,0 0,7 -7,0 z M 147,0 l 7,0 0,7 -7,0 z M 161,0 l 7,0 0,7 -7,0 z M 189,0 l 7,0 0,7 -7,0 z M 196,0 l 7,0 0,7 -7,0 z M 210,0 l 7,0 0,7 -7,0 z M 224,0 l 7,0 0,7 -7,0 z M 245,0 l 7,0 0,7 -7,0 z M 266,0 l 7,0 0,7 -7,0 z M 280,0 l 7,0 0,7 -7,0 z M 301,0 l 7,0 0,7 -7,0 z M 308,0 l 7,0 0,7 -7,0 z M 315,0 l 7,0 0,7 -7,0 z M 329,0 l 7,0 0,7 -7,0 z M 336,0 l 7,0 0,7 -7,0 z M 350,0 l 7,0 0,7 -7,0 z M 385,0 l 7,0 0,7 -7,0 z M 406,0 l 7,0 0,7 -7,0 z M 420,0 l 7,0 0,7 -7,0 z M 434,0 l 7,0 0,7 -7,0 z M 448,0 l 7,0 0,7 -7,0 z M 462,0 l 7,0 0,7 -7,0 z M 469,0 l 7,0 0,7 -7,0 z M 476,0 l 7,0 0,7 -7,0 z M 483,0 l 7,0 0,7 -7,0 z M 490,0 l 7,0 0,7 -7,0 z M 497,0 l 7,0 0,7 -7,0 z M 504,0 l 7,0 0,7 -7,0 z M 0,7 l 7,0 0,7 -7,0 z M 42,7 l 7,0 0,7 -7,0 z M 56,7 l 7,0 0,7 -7,0 z M 63,7 l 7,0 0,7 -7,0 z M 70,7 l 7,0 0,7 -7,0 z M 77,7 l 7,0 0,7 -7,0 z M 84,7 l 7,0 0,7 -7,0 z M 91,7 l 7,0 0,7 -7,0 z M 119,7 l 7,0 0,7 -7,0 z M 126,7 l 7,0 0,7 -7,0 z M 133,7 l 7,0 0,7 -7,0 z M 147,7 l 7,0 0,7 -7,0 z M 154,7 l 7,0 0,7 -7,0 z M 161,7 l 7,0 0,7 -7,0 z M 168,7 l 7,0 0,7 -7,0 z M 182,7 l 7,0 0,7 -7,0 z M 189,7 l 7,0 0,7 -7,0 z M 203,7 l 7,0 0,7 -7,0 z M 210,7 l 7,0 0,7 -7,0 z M 231,7 l 7,0 0,7 -7,0 z M 252,7 l 7,0 0,7 -7,0 z M 259,7 l 7,0 0,7 -7,0 z M 273,7 l 7,0 0,7 -7,0 z M 280,7 l 7,0 0,7 -7,0 z M 315,7 l 7,0 0,7 -7,0 z M 350,7 l 7,0 0,7 -7,0 z M 357,7 l 7,0 0,7 -7,0 z M 371,7 l 7,0 0,7 -7,0 z M 378,7 l 7,0 0,7 -7,0 z M 399,7 l 7,0 0,7 -7,0 z M 420,7 l 7,0 0,7 -7,0 z M 427,7 l 7,0 0,7 -7,0 z M 434,7 l 7,0 0,7 -7,0 z M 462,7 l 7,0 0,7 -7,0 z M 504,7 l 7,0 0,7 -7,0 z M 0,14 l 7,0 0,7 -7,0 z M 14,14 l 7,0 0,7 -7,0 z M 21,14 l 7,0 0,7 -7,0 z M 28,14 l 7,0 0,7 -7,0 z M 42,14 l 7,0 0,7 -7,0 z M 63,14 l 7,0 0,7 -7,0 z M 70,14 l 7,0 0,7 -7,0 z M 91,14 l 7,0 0,7 -7,0 z M 105,14 l 7,0 0,7 -7,0 z M 119,14 l 7,0 0,7 -7,0 z M 147,14 l 7,0 0,7 -7,0 z M 161,14 l 7,0 0,7 -7,0 z M 168,14 l 7,0 0,7 -7,0 z M 175,14 l 7,0 0,7 -7,0 z M 182,14 l 7,0 0,7 -7,0 z M 203,14 l 7,0 0,7 -7,0 z M 252,14 l 7,0 0,7 -7,0 z M 273,14 l 7,0 0,7 -7,0 z M 294,14 l 7,0 0,7 -7,0 z M 308,14 l 7,0 0,7 -7,0 z M 315,14 l 7,0 0,7 -7,0 z M 322,14 l 7,0 0,7 -7,0 z M 343,14 l 7,0 0,7 -7,0 z M 378,14 l 7,0 0,7 -7,0 z M 392,14 l 7,0 0,7 -7,0 z M 399,14 l 7,0 0,7 -7,0 z M 427,14 l 7,0 0,7 -7,0 z M 462,14 l 7,0 0,7 -7,0 z M 476,14 l 7,0 0,7 -7,0 z M 483,14 l 7,0 0,7 -7,0 z M 490,14 l 7,0 0,7 -7,0 z M 504,14 l 7,0 0,7 -7,0 z M 0,21 l 7,0 0,7 -7,0 z M 14,21 l 7,0 0,7 -7,0 z M 21,21 l 7,0 0,7 -7,0 z M 28,21 l 7,0 0,7 -7,0 z M 42,21 l 7,0 0,7 -7,0 z M 56,21 l 7,0 0,7 -7,0 z M 63,21 l 7,0 0,7 -7,0 z M 70,21 l 7,0 0,7 -7,0 z M 77,21 l 7,0 0,7 -7,0 z M 84,21 l 7,0 0,7 -7,0 z M 91,21 l 7,0 0,7 -7,0 z M 98,21 l 7,0 0,7 -7,0 z M 105,21 l 7,0 0,7 -7,0 z M 112,21 l 7,0 0,7 -7,0 z M 119,21 l 7,0 0,7 -7,0 z M 126,21 l 7,0 0,7 -7,0 z M 133,21 l 7,0 0,7 -7,0 z M 140,21 l 7,0 0,7 -7,0 z M 147,21 l 7,0 0,7 -7,0 z M 154,21 l 7,0 0,7 -7,0 z M 175,21 l 7,0 0,7 -7,0 z M 189,21 l 7,0 0,7 -7,0 z M 196,21 l 7,0 0,7 -7,0 z M 217,21 l 7,0 0,7 -7,0 z M 224,21 l 7,0 0,7 -7,0 z M 231,21 l 7,0 0,7 -7,0 z M 245,21 l 7,0 0,7 -7,0 z M 273,21 l 7,0 0,7 -7,0 z M 280,21 l 7,0 0,7 -7,0 z M 294,21 l 7,0 0,7 -7,0 z M 322,21 l 7,0 0,7 -7,0 z M 343,21 l 7,0 0,7 -7,0 z M 357,21 l 7,0 0,7 -7,0 z M 364,21 l 7,0 0,7 -7,0 z M 371,21 l 7,0 0,7 -7,0 z M 378,21 l 7,0 0,7 -7,0 z M 385,21 l 7,0 0,7 -7,0 z M 413,21 l 7,0 0,7 -7,0 z M 427,21 l 7,0 0,7 -7,0 z M 434,21 l 7,0 0,7 -7,0 z M 441,21 l 7,0 0,7 -7,0 z M 462,21 l 7,0 0,7 -7,0 z M 476,21 l 7,0 0,7 -7,0 z M 483,21 l 7,0 0,7 -7,0 z M 490,21 l 7,0 0,7 -7,0 z M 504,21 l 7,0 0,7 -7,0 z M 0,28 l 7,0 0,7 -7,0 z M 14,28 l 7,0 0,7 -7,0 z M 21,28 l 7,0 0,7 -7,0 z M 28,28 l 7,0 0,7 -7,0 z M 42,28 l 7,0 0,7 -7,0 z M 63,28 l 7,0 0,7 -7,0 z M 70,28 l 7,0 0,7 -7,0 z M 77,28 l 7,0 0,7 -7,0 z M 84,28 l 7,0 0,7 -7,0 z M 105,28 l 7,0 0,7 -7,0 z M 140,28 l 7,0 0,7 -7,0 z M 147,28 l 7,0 0,7 -7,0 z M 161,28 l 7,0 0,7 -7,0 z M 168,28 l 7,0 0,7 -7,0 z M 175,28 l 7,0 0,7 -7,0 z M 182,28 l 7,0 0,7 -7,0 z M 189,28 l 7,0 0,7 -7,0 z M 196,28 l 7,0 0,7 -7,0 z M 203,28 l 7,0 0,7 -7,0 z M 217,28 l 7,0 0,7 -7,0 z M 231,28 l 7,0 0,7 -7,0 z M 252,28 l 7,0 0,7 -7,0 z M 266,28 l 7,0 0,7 -7,0 z M 294,28 l 7,0 0,7 -7,0 z M 308,28 l 7,0 0,7 -7,0 z M 315,28 l 7,0 0,7 -7,0 z M 322,28 l 7,0 0,7 -7,0 z M 329,28 l 7,0 0,7 -7,0 z M 336,28 l 7,0 0,7 -7,0 z M 343,28 l 7,0 0,7 -7,0 z M 350,28 l 7,0 0,7 -7,0 z M 357,28 l 7,0 0,7 -7,0 z M 371,28 l 7,0 0,7 -7,0 z M 378,28 l 7,0 0,7 -7,0 z M 399,28 l 7,0 0,7 -7,0 z M 406,28 l 7,0 0,7 -7,0 z M 420,28 l 7,0 0,7 -7,0 z M 441,28 l 7,0 0,7 -7,0 z M 448,28 l 7,0 0,7 -7,0 z M 462,28 l 7,0 0,7 -7,0 z M 476,28 l 7,0 0,7 -7,0 z M 483,28 l 7,0 0,7 -7,0 z M 490,28 l 7,0 0,7 -7,0 z M 504,28 l 7,0 0,7 -7,0 z M 0,35 l 7,0 0,7 -7,0 z M 42,35 l 7,0 0,7 -7,0 z M 56,35 l 7,0 0,7 -7,0 z M 63,35 l 7,0 0,7 -7,0 z M 77,35 l 7,0 0,7 -7,0 z M 84,35 l 7,0 0,7 -7,0 z M 91,35 l 7,0 0,7 -7,0 z M 112,35 l 7,0 0,7 -7,0 z M 126,35 l 7,0 0,7 -7,0 z M 133,35 l 7,0 0,7 -7,0 z M 154,35 l 7,0 0,7 -7,0 z M 168,35 l 7,0 0,7 -7,0 z M 196,35 l 7,0 0,7 -7,0 z M 210,35 l 7,0 0,7 -7,0 z M 217,35 l 7,0 0,7 -7,0 z M 252,35 l 7,0 0,7 -7,0 z M 273,35 l 7,0 0,7 -7,0 z M 294,35 l 7,0 0,7 -7,0 z M 308,35 l 7,0 0,7 -7,0 z M 336,35 l 7,0 0,7 -7,0 z M 343,35 l 7,0 0,7 -7,0 z M 378,35 l 7,0 0,7 -7,0 z M 399,35 l 7,0 0,7 -7,0 z M 406,35 l 7,0 0,7 -7,0 z M 434,35 l 7,0 0,7 -7,0 z M 462,35 l 7,0 0,7 -7,0 z M 504,35 l 7,0 0,7 -7,0 z M 0,42 l 7,0 0,7 -7,0 z M 7,42 l 7,0 0,7 -7,0 z M 14,42 l 7,0 0,7 -7,0 z M 21,42 l 7,0 0,7 -7,0 z M 28,42 l 7,0 0,7 -7,0 z M 35,42 l 7,0 0,7 -7,0 z M 42,42 l 7,0 0,7 -7,0 z M 56,42 l 7,0 0,7 -7,0 z M 70,42 l 7,0 0,7 -7,0 z M 84,42 l 7,0 0,7 -7,0 z M 98,42 l 7,0 0,7 -7,0 z M 112,42 l 7,0 0,7 -7,0 z M 126,42 l 7,0 0,7 -7,0 z M 140,42 l 7,0 0,7 -7,0 z M 154,42 l 7,0 0,7 -7,0 z M 168,42 l 7,0 0,7 -7,0 z M 182,42 l 7,0 0,7 -7,0 z M 196,42 l 7,0 0,7 -7,0 z M 210,42 l 7,0 0,7 -7,0 z M 224,42 l 7,0 0,7 -7,0 z M 238,42 l 7,0 0,7 -7,0 z M 252,42 l 7,0 0,7 -7,0 z M 266,42 l 7,0 0,7 -7,0 z M 280,42 l 7,0 0,7 -7,0 z M 294,42 l 7,0 0,7 -7,0 z M 308,42 l 7,0 0,7 -7,0 z M 322,42 l 7,0 0,7 -7,0 z M 336,42 l 7,0 0,7 -7,0 z M 350,42 l 7,0 0,7 -7,0 z M 364,42 l 7,0 0,7 -7,0 z M 378,42 l 7,0 0,7 -7,0 z M 392,42 l 7,0 0,7 -7,0 z M 406,42 l 7,0 0,7 -7,0 z M 420,42 l 7,0 0,7 -7,0 z M 434,42 l 7,0 0,7 -7,0 z M 448,42 l 7,0 0,7 -7,0 z M 462,42 l 7,0 0,7 -7,0 z M 469,42 l 7,0 0,7 -7,0 z M 476,42 l 7,0 0,7 -7,0 z M 483,42 l 7,0 0,7 -7,0 z M 490,42 l 7,0 0,7 -7,0 z M 497,42 l 7,0 0,7 -7,0 z M 504,42 l 7,0 0,7 -7,0 z M 63,49 l 7,0 0,7 -7,0 z M 70,49 l 7,0 0,7 -7,0 z M 91,49 l 7,0 0,7 -7,0 z M 98,49 l 7,0 0,7 -7,0 z M 105,49 l 7,0 0,7 -7,0 z M 112,49 l 7,0 0,7 -7,0 z M 133,49 l 7,0 0,7 -7,0 z M 147,49 l 7,0 0,7 -7,0 z M 161,49 l 7,0 0,7 -7,0 z M 168,49 l 7,0 0,7 -7,0 z M 196,49 l 7,0 0,7 -7,0 z M 301,49 l 7,0 0,7 -7,0 z M 308,49 l 7,0 0,7 -7,0 z M 336,49 l 7,0 0,7 -7,0 z M 343,49 l 7,0 0,7 -7,0 z M 364,49 l 7,0 0,7 -7,0 z M 0,56 l 7,0 0,7 -7,0 z M 7,56 l 7,0 0,7 -7,0 z M 14,56 l 7,0 0,7 -7,0 z M 21,56 l 7,0 0,7 -7,0 z M 28,56 l 7,0 0,7 -7,0 z M 42,56 l 7,0 0,7 -7,0 z M 49,56 l 7,0 0,7 -7,0 z M 56,56 l 7,0 0,7 -7,0 z M 70,56 l 7,0 0,7 -7,0 z M 105,56 l 7,0 0,7 -7,0 z M 119,56 l 7,0 0,7 -7,0 z M 154,56 l 7,0 0,7 -7,0 z M 168,56 l 7,0 0,7 -7,0 z M 175,56 l 7,0 0,7 -7,0 z M 182,56 l 7,0 0,7 -7,0 z M 189,56 l 7,0 0,7 -7,0 z M 196,56 l 7,0 0,7 -7,0 z M 217,56 l 7,0 0,7 -7,0 z M 224,56 l 7,0 0,7 -7,0 z M 231,56 l 7,0 0,7 -7,0 z M 238,56 l 7,0 0,7 -7,0 z M 245,56 l 7,0 0,7 -7,0 z M 266,56 l 7,0 0,7 -7,0 z M 280,56 l 7,0 0,7 -7,0 z M 294,56 l 7,0 0,7 -7,0 z M 308,56 l 7,0 0,7 -7,0 z M 315,56 l 7,0 0,7 -7,0 z M 322,56 l 7,0 0,7 -7,0 z M 329,56 l 7,0 0,7 -7,0 z M 336,56 l 7,0 0,7 -7,0 z M 350,56 l 7,0 0,7 -7,0 z M 385,56 l 7,0 0,7 -7,0 z M 392,56 l 7,0 0,7 -7,0 z M 406,56 l 7,0 0,7 -7,0 z M 413,56 l 7,0 0,7 -7,0 z M 420,56 l 7,0 0,7 -7,0 z M 434,56 l 7,0 0,7 -7,0 z M 455,56 l 7,0 0,7 -7,0 z M 469,56 l 7,0 0,7 -7,0 z M 483,56 l 7,0 0,7 -7,0 z M 497,56 l 7,0 0,7 -7,0 z M 0,63 l 7,0 0,7 -7,0 z M 7,63 l 7,0 0,7 -7,0 z M 14,63 l 7,0 0,7 -7,0 z M 28,63 l 7,0 0,7 -7,0 z M 63,63 l 7,0 0,7 -7,0 z M 70,63 l 7,0 0,7 -7,0 z M 84,63 l 7,0 0,7 -7,0 z M 91,63 l 7,0 0,7 -7,0 z M 98,63 l 7,0 0,7 -7,0 z M 105,63 l 7,0 0,7 -7,0 z M 133,63 l 7,0 0,7 -7,0 z M 140,63 l 7,0 0,7 -7,0 z M 147,63 l 7,0 0,7 -7,0 z M 154,63 l 7,0 0,7 -7,0 z M 182,63 l 7,0 0,7 -7,0 z M 189,63 l 7,0 0,7 -7,0 z M 203,63 l 7,0 0,7 -7,0 z M 231,63 l 7,0 0,7 -7,0 z M 238,63 l 7,0 0,7 -7,0 z M 273,63 l 7,0 0,7 -7,0 z M 280,63 l 7,0 0,7 -7,0 z M 287,63 l 7,0 0,7 -7,0 z M 308,63 l 7,0 0,7 -7,0 z M 315,63 l 7,0 0,7 -7,0 z M 336,63 l 7,0 0,7 -7,0 z M 343,63 l 7,0 0,7 -7,0 z M 357,63 l 7,0 0,7 -7,0 z M 364,63 l 7,0 0,7 -7,0 z M 378,63 l 7,0 0,7 -7,0 z M 399,63 l 7,0 0,7 -7,0 z M 406,63 l 7,0 0,7 -7,0 z M 420,63 l 7,0 0,7 -7,0 z M 448,63 l 7,0 0,7 -7,0 z M 455,63 l 7,0 0,7 -7,0 z M 462,63 l 7,0 0,7 -7,0 z M 469,63 l 7,0 0,7 -7,0 z M 504,63 l 7,0 0,7 -7,0 z M 0,70 l 7,0 0,7 -7,0 z M 35,70 l 7,0 0,7 -7,0 z M 42,70 l 7,0 0,7 -7,0 z M 63,70 l 7,0 0,7 -7,0 z M 77,70 l 7,0 0,7 -7,0 z M 98,70 l 7,0 0,7 -7,0 z M 147,70 l 7,0 0,7 -7,0 z M 154,70 l 7,0 0,7 -7,0 z M 161,70 l 7,0 0,7 -7,0 z M 168,70 l 7,0 0,7 -7,0 z M 175,70 l 7,0 0,7 -7,0 z M 182,70 l 7,0 0,7 -7,0 z M 189,70 l 7,0 0,7 -7,0 z M 203,70 l 7,0 0,7 -7,0 z M 245,70 l 7,0 0,7 -7,0 z M 252,70 l 7,0 0,7 -7,0 z M 280,70 l 7,0 0,7 -7,0 z M 301,70 l 7,0 0,7 -7,0 z M 308,70 l 7,0 0,7 -7,0 z M 329,70 l 7,0 0,7 -7,0 z M 336,70 l 7,0 0,7 -7,0 z M 350,70 l 7,0 0,7 -7,0 z M 357,70 l 7,0 0,7 -7,0 z M 371,70 l 7,0 0,7 -7,0 z M 392,70 l 7,0 0,7 -7,0 z M 399,70 l 7,0 0,7 -7,0 z M 420,70 l 7,0 0,7 -7,0 z M 427,70 l 7,0 0,7 -7,0 z M 455,70 l 7,0 0,7 -7,0 z M 462,70 l 7,0 0,7 -7,0 z M 0,77 l 7,0 0,7 -7,0 z M 14,77 l 7,0 0,7 -7,0 z M 21,77 l 7,0 0,7 -7,0 z M 56,77 l 7,0 0,7 -7,0 z M 63,77 l 7,0 0,7 -7,0 z M 84,77 l 7,0 0,7 -7,0 z M 119,77 l 7,0 0,7 -7,0 z M 126,77 l 7,0 0,7 -7,0 z M 133,77 l 7,0 0,7 -7,0 z M 140,77 l 7,0 0,7 -7,0 z M 147,77 l 7,0 0,7 -7,0 z M 154,77 l 7,0 0,7 -7,0 z M 161,77 l 7,0 0,7 -7,0 z M 182,77 l 7,0 0,7 -7,0 z M 189,77 l 7,0 0,7 -7,0 z M 196,77 l 7,0 0,7 -7,0 z M 203,77 l 7,0 0,7 -7,0 z M 231,77 l 7,0 0,7 -7,0 z M 245,77 l 7,0 0,7 -7,0 z M 259,77 l 7,0 0,7 -7,0 z M 308,77 l 7,0 0,7 -7,0 z M 322,77 l 7,0 0,7 -7,0 z M 329,77 l 7,0 0,7 -7,0 z M 336,77 l 7,0 0,7 -7,0 z M 357,77 l 7,0 0,7 -7,0 z M 371,77 l 7,0 0,7 -7,0 z M 392,77 l 7,0 0,7 -7,0 z M 420,77 l 7,0 0,7 -7,0 z M 427,77 l 7,0 0,7 -7,0 z M 469,77 l 7,0 0,7 -7,0 z M 476,77 l 7,0 0,7 -7,0 z M 497,77 l 7,0 0,7 -7,0 z M 504,77 l 7,0 0,7 -7,0 z M 21,84 l 7,0 0,7 -7,0 z M 35,84 l 7,0 0,7 -7,0 z M 42,84 l 7,0 0,7 -7,0 z M 70,84 l 7,0 0,7 -7,0 z M 91,84 l 7,0 0,7 -7,0 z M 105,84 l 7,0 0,7 -7,0 z M 112,84 l 7,0 0,7 -7,0 z M 147,84 l 7,0 0,7 -7,0 z M 175,84 l 7,0 0,7 -7,0 z M 182,84 l 7,0 0,7 -7,0 z M 203,84 l 7,0 0,7 -7,0 z M 210,84 l 7,0 0,7 -7,0 z M 231,84 l 7,0 0,7 -7,0 z M 245,84 l 7,0 0,7 -7,0 z M 252,84 l 7,0 0,7 -7,0 z M 259,84 l 7,0 0,7 -7,0 z M 280,84 l 7,0 0,7 -7,0 z M 287,84 l 7,0 0,7 -7,0 z M 294,84 l 7,0 0,7 -7,0 z M 329,84 l 7,0 0,7 -7,0 z M 336,84 l 7,0 0,7 -7,0 z M 357,84 l 7,0 0,7 -7,0 z M 364,84 l 7,0 0,7 -7,0 z M 378,84 l 7,0 0,7 -7,0 z M 399,84 l 7,0 0,7 -7,0 z M 406,84 l 7,0 0,7 -7,0 z M 427,84 l 7,0 0,7 -7,0 z M 441,84 l 7,0 0,7 -7,0 z M 455,84 l 7,0 0,7 -7,0 z M 462,84 l 7,0 0,7 -7,0 z M 469,84 l 7,0 0,7 -7,0 z M 476,84 l 7,0 0,7 -7,0 z M 490,84 l 7,0 0,7 -7,0 z M 497,84 l 7,0 0,7 -7,0 z M 504,84 l 7,0 0,7 -7,0 z M 7,91 l 7,0 0,7 -7,0 z M 21,91 l 7,0 0,7 -7,0 z M 28,91 l 7,0 0,7 -7,0 z M 35,91 l 7,0 0,7 -7,0 z M 49,91 l 7,0 0,7 -7,0 z M 56,91 l 7,0 0,7 -7,0 z M 63,91 l 7,0 0,7 -7,0 z M 70,91 l 7,0 0,7 -7,0 z M 77,91 l 7,0 0,7 -7,0 z M 84,91 l 7,0 0,7 -7,0 z M 98,91 l 7,0 0,7 -7,0 z M 105,91 l 7,0 0,7 -7,0 z M 119,91 l 7,0 0,7 -7,0 z M 140,91 l 7,0 0,7 -7,0 z M 168,91 l 7,0 0,7 -7,0 z M 189,91 l 7,0 0,7 -7,0 z M 231,91 l 7,0 0,7 -7,0 z M 238,91 l 7,0 0,7 -7,0 z M 245,91 l 7,0 0,7 -7,0 z M 259,91 l 7,0 0,7 -7,0 z M 266,91 l 7,0 0,7 -7,0 z M 287,91 l 7,0 0,7 -7,0 z M 294,91 l 7,0 0,7 -7,0 z M 301,91 l 7,0 0,7 -7,0 z M 322,91 l 7,0 0,7 -7,0 z M 336,91 l 7,0 0,7 -7,0 z M 343,91 l 7,0 0,7 -7,0 z M 350,91 l 7,0 0,7 -7,0 z M 371,91 l 7,0 0,7 -7,0 z M 378,91 l 7,0 0,7 -7,0 z M 406,91 l 7,0 0,7 -7,0 z M 420,91 l 7,0 0,7 -7,0 z M 427,91 l 7,0 0,7 -7,0 z M 441,91 l 7,0 0,7 -7,0 z M 448,91 l 7,0 0,7 -7,0 z M 455,91 l 7,0 0,7 -7,0 z M 462,91 l 7,0 0,7 -7,0 z M 483,91 l 7,0 0,7 -7,0 z M 0,98 l 7,0 0,7 -7,0 z M 7,98 l 7,0 0,7 -7,0 z M 14,98 l 7,0 0,7 -7,0 z M 42,98 l 7,0 0,7 -7,0 z M 49,98 l 7,0 0,7 -7,0 z M 56,98 l 7,0 0,7 -7,0 z M 70,98 l 7,0 0,7 -7,0 z M 91,98 l 7,0 0,7 -7,0 z M 98,98 l 7,0 0,7 -7,0 z M 105,98 l 7,0 0,7 -7,0 z M 112,98 l 7,0 0,7 -7,0 z M 119,98 l 7,0 0,7 -7,0 z M 147,98 l 7,0 0,7 -7,0 z M 154,98 l 7,0 0,7 -7,0 z M 182,98 l 7,0 0,7 -7,0 z M 238,98 l 7,0 0,7 -7,0 z M 252,98 l 7,0 0,7 -7,0 z M 259,98 l 7,0 0,7 -7,0 z M 294,98 l 7,0 0,7 -7,0 z M 301,98 l 7,0 0,7 -7,0 z M 308,98 l 7,0 0,7 -7,0 z M 315,98 l 7,0 0,7 -7,0 z M 336,98 l 7,0 0,7 -7,0 z M 350,98 l 7,0 0,7 -7,0 z M 357,98 l 7,0 0,7 -7,0 z M 371,98 l 7,0 0,7 -7,0 z M 378,98 l 7,0 0,7 -7,0 z M 385,98 l 7,0 0,7 -7,0 z M 399,98 l 7,0 0,7 -7,0 z M 406,98 l 7,0 0,7 -7,0 z M 420,98 l 7,0 0,7 -7,0 z M 434,98 l 7,0 0,7 -7,0 z M 448,98 l 7,0 0,7 -7,0 z M 455,98 l 7,0 0,7 -7,0 z M 476,98 l 7,0 0,7 -7,0 z M 504,98 l 7,0 0,7 -7,0 z M 0,105 l 7,0 0,7 -7,0 z M 7,105 l 7,0 0,7 -7,0 z M 14,105 l 7,0 0,7 -7,0 z M 21,105 l 7,0 0,7 -7,0 z M 49,105 l 7,0 0,7 -7,0 z M 56,105 l 7,0 0,7 -7,0 z M 70,105 l 7,0 0,7 -7,0 z M 77,105 l 7,0 0,7 -7,0 z M 84,105 l 7,0 0,7 -7,0 z M 91,105 l 7,0 0,7 -7,0 z M 98,105 l 7,0 0,7 -7,0 z M 105,105 l 7,0 0,7 -7,0 z M 119,105 l 7,0 0,7 -7,0 z M 126,105 l 7,0 0,7 -7,0 z M 161,105 l 7,0 0,7 -7,0 z M 168,105 l 7,0 0,7 -7,0 z M 189,105 l 7,0 0,7 -7,0 z M 231,105 l 7,0 0,7 -7,0 z M 238,105 l 7,0 0,7 -7,0 z M 252,105 l 7,0 0,7 -7,0 z M 273,105 l 7,0 0,7 -7,0 z M 280,105 l 7,0 0,7 -7,0 z M 294,105 l 7,0 0,7 -7,0 z M 301,105 l 7,0 0,7 -7,0 z M 329,105 l 7,0 0,7 -7,0 z M 343,105 l 7,0 0,7 -7,0 z M 350,105 l 7,0 0,7 -7,0 z M 357,105 l 7,0 0,7 -7,0 z M 371,105 l 7,0 0,7 -7,0 z M 385,105 l 7,0 0,7 -7,0 z M 420,105 l 7,0 0,7 -7,0 z M 427,105 l 7,0 0,7 -7,0 z M 462,105 l 7,0 0,7 -7,0 z M 483,105 l 7,0 0,7 -7,0 z M 497,105 l 7,0 0,7 -7,0 z M 0,112 l 7,0 0,7 -7,0 z M 14,112 l 7,0 0,7 -7,0 z M 28,112 l 7,0 0,7 -7,0 z M 42,112 l 7,0 0,7 -7,0 z M 56,112 l 7,0 0,7 -7,0 z M 63,112 l 7,0 0,7 -7,0 z M 84,112 l 7,0 0,7 -7,0 z M 91,112 l 7,0 0,7 -7,0 z M 112,112 l 7,0 0,7 -7,0 z M 119,112 l 7,0 0,7 -7,0 z M 147,112 l 7,0 0,7 -7,0 z M 154,112 l 7,0 0,7 -7,0 z M 161,112 l 7,0 0,7 -7,0 z M 189,112 l 7,0 0,7 -7,0 z M 196,112 l 7,0 0,7 -7,0 z M 210,112 l 7,0 0,7 -7,0 z M 224,112 l 7,0 0,7 -7,0 z M 238,112 l 7,0 0,7 -7,0 z M 252,112 l 7,0 0,7 -7,0 z M 259,112 l 7,0 0,7 -7,0 z M 266,112 l 7,0 0,7 -7,0 z M 273,112 l 7,0 0,7 -7,0 z M 280,112 l 7,0 0,7 -7,0 z M 287,112 l 7,0 0,7 -7,0 z M 315,112 l 7,0 0,7 -7,0 z M 336,112 l 7,0 0,7 -7,0 z M 343,112 l 7,0 0,7 -7,0 z M 357,112 l 7,0 0,7 -7,0 z M 364,112 l 7,0 0,7 -7,0 z M 371,112 l 7,0 0,7 -7,0 z M 378,112 l 7,0 0,7 -7,0 z M 399,112 l 7,0 0,7 -7,0 z M 413,112 l 7,0 0,7 -7,0 z M 427,112 l 7,0 0,7 -7,0 z M 448,112 l 7,0 0,7 -7,0 z M 469,112 l 7,0 0,7 -7,0 z M 504,112 l 7,0 0,7 -7,0 z M 7,119 l 7,0 0,7 -7,0 z M 21,119 l 7,0 0,7 -7,0 z M 49,119 l 7,0 0,7 -7,0 z M 56,119 l 7,0 0,7 -7,0 z M 77,119 l 7,0 0,7 -7,0 z M 84,119 l 7,0 0,7 -7,0 z M 98,119 l 7,0 0,7 -7,0 z M 112,119 l 7,0 0,7 -7,0 z M 126,119 l 7,0 0,7 -7,0 z M 140,119 l 7,0 0,7 -7,0 z M 161,119 l 7,0 0,7 -7,0 z M 168,119 l 7,0 0,7 -7,0 z M 182,119 l 7,0 0,7 -7,0 z M 189,119 l 7,0 0,7 -7,0 z M 203,119 l 7,0 0,7 -7,0 z M 210,119 l 7,0 0,7 -7,0 z M 217,119 l 7,0 0,7 -7,0 z M 231,119 l 7,0 0,7 -7,0 z M 238,119 l 7,0 0,7 -7,0 z M 245,119 l 7,0 0,7 -7,0 z M 252,119 l 7,0 0,7 -7,0 z M 280,119 l 7,0 0,7 -7,0 z M 294,119 l 7,0 0,7 -7,0 z M 315,119 l 7,0 0,7 -7,0 z M 336,119 l 7,0 0,7 -7,0 z M 343,119 l 7,0 0,7 -7,0 z M 350,119 l 7,0 0,7 -7,0 z M 357,119 l 7,0 0,7 -7,0 z M 371,119 l 7,0 0,7 -7,0 z M 385,119 l 7,0 0,7 -7,0 z M 406,119 l 7,0 0,7 -7,0 z M 420,119 l 7,0 0,7 -7,0 z M 427,119 l 7,0 0,7 -7,0 z M 434,119 l 7,0 0,7 -7,0 z M 441,119 l 7,0 0,7 -7,0 z M 448,119 l 7,0 0,7 -7,0 z M 462,119 l 7,0 0,7 -7,0 z M 483,119 l 7,0 0,7 -7,0 z M 490,119 l 7,0 0,7 -7,0 z M 504,119 l 7,0 0,7 -7,0 z M 21,126 l 7,0 0,7 -7,0 z M 28,126 l 7,0 0,7 -7,0 z M 42,126 l 7,0 0,7 -7,0 z M 63,126 l 7,0 0,7 -7,0 z M 70,126 l 7,0 0,7 -7,0 z M 84,126 l 7,0 0,7 -7,0 z M 91,126 l 7,0 0,7 -7,0 z M 98,126 l 7,0 0,7 -7,0 z M 161,126 l 7,0 0,7 -7,0 z M 168,126 l 7,0 0,7 -7,0 z M 196,126 l 7,0 0,7 -7,0 z M 203,126 l 7,0 0,7 -7,0 z M 210,126 l 7,0 0,7 -7,0 z M 217,126 l 7,0 0,7 -7,0 z M 266,126 l 7,0 0,7 -7,0 z M 273,126 l 7,0 0,7 -7,0 z M 315,126 l 7,0 0,7 -7,0 z M 322,126 l 7,0 0,7 -7,0 z M 329,126 l 7,0 0,7 -7,0 z M 357,126 l 7,0 0,7 -7,0 z M 371,126 l 7,0 0,7 -7,0 z M 378,126 l 7,0 0,7 -7,0 z M 399,126 l 7,0 0,7 -7,0 z M 413,126 l 7,0 0,7 -7,0 z M 420,126 l 7,0 0,7 -7,0 z M 441,126 l 7,0 0,7 -7,0 z M 448,126 l 7,0 0,7 -7,0 z M 455,126 l 7,0 0,7 -7,0 z M 462,126 l 7,0 0,7 -7,0 z M 476,126 l 7,0 0,7 -7,0 z M 490,126 l 7,0 0,7 -7,0 z M 0,133 l 7,0 0,7 -7,0 z M 7,133 l 7,0 0,7 -7,0 z M 14,133 l 7,0 0,7 -7,0 z M 28,133 l 7,0 0,7 -7,0 z M 35,133 l 7,0 0,7 -7,0 z M 56,133 l 7,0 0,7 -7,0 z M 63,133 l 7,0 0,7 -7,0 z M 70,133 l 7,0 0,7 -7,0 z M 98,133 l 7,0 0,7 -7,0 z M 105,133 l 7,0 0,7 -7,0 z M 126,133 l 7,0 0,7 -7,0 z M 133,133 l 7,0 0,7 -7,0 z M 140,133 l 7,0 0,7 -7,0 z M 154,133 l 7,0 0,7 -7,0 z M 161,133 l 7,0 0,7 -7,0 z M 175,133 l 7,0 0,7 -7,0 z M 189,133 l 7,0 0,7 -7,0 z M 210,133 l 7,0 0,7 -7,0 z M 224,133 l 7,0 0,7 -7,0 z M 252,133 l 7,0 0,7 -7,0 z M 294,133 l 7,0 0,7 -7,0 z M 301,133 l 7,0 0,7 -7,0 z M 315,133 l 7,0 0,7 -7,0 z M 336,133 l 7,0 0,7 -7,0 z M 350,133 l 7,0 0,7 -7,0 z M 371,133 l 7,0 0,7 -7,0 z M 406,133 l 7,0 0,7 -7,0 z M 420,133 l 7,0 0,7 -7,0 z M 434,133 l 7,0 0,7 -7,0 z M 441,133 l 7,0 0,7 -7,0 z M 455,133 l 7,0 0,7 -7,0 z M 462,133 l 7,0 0,7 -7,0 z M 476,133 l 7,0 0,7 -7,0 z M 483,133 l 7,0 0,7 -7,0 z M 490,133 l 7,0 0,7 -7,0 z M 504,133 l 7,0 0,7 -7,0 z M 0,140 l 7,0 0,7 -7,0 z M 7,140 l 7,0 0,7 -7,0 z M 14,140 l 7,0 0,7 -7,0 z M 21,140 l 7,0 0,7 -7,0 z M 28,140 l 7,0 0,7 -7,0 z M 42,140 l 7,0 0,7 -7,0 z M 63,140 l 7,0 0,7 -7,0 z M 70,140 l 7,0 0,7 -7,0 z M 112,140 l 7,0 0,7 -7,0 z M 161,140 l 7,0 0,7 -7,0 z M 168,140 l 7,0 0,7 -7,0 z M 182,140 l 7,0 0,7 -7,0 z M 189,140 l 7,0 0,7 -7,0 z M 196,140 l 7,0 0,7 -7,0 z M 203,140 l 7,0 0,7 -7,0 z M 210,140 l 7,0 0,7 -7,0 z M 224,140 l 7,0 0,7 -7,0 z M 238,140 l 7,0 0,7 -7,0 z M 259,140 l 7,0 0,7 -7,0 z M 280,140 l 7,0 0,7 -7,0 z M 294,140 l 7,0 0,7 -7,0 z M 322,140 l 7,0 0,7 -7,0 z M 329,140 l 7,0 0,7 -7,0 z M 357,140 l 7,0 0,7 -7,0 z M 371,140 l 7,0 0,7 -7,0 z M 378,140 l 7,0 0,7 -7,0 z M 385,140 l 7,0 0,7 -7,0 z M 413,140 l 7,0 0,7 -7,0 z M 420,140 l 7,0 0,7 -7,0 z M 427,140 l 7,0 0,7 -7,0 z M 441,140 l 7,0 0,7 -7,0 z M 448,140 l 7,0 0,7 -7,0 z M 469,140 l 7,0 0,7 -7,0 z M 7,147 l 7,0 0,7 -7,0 z M 14,147 l 7,0 0,7 -7,0 z M 21,147 l 7,0 0,7 -7,0 z M 28,147 l 7,0 0,7 -7,0 z M 35,147 l 7,0 0,7 -7,0 z M 49,147 l 7,0 0,7 -7,0 z M 56,147 l 7,0 0,7 -7,0 z M 77,147 l 7,0 0,7 -7,0 z M 84,147 l 7,0 0,7 -7,0 z M 126,147 l 7,0 0,7 -7,0 z M 147,147 l 7,0 0,7 -7,0 z M 154,147 l 7,0 0,7 -7,0 z M 182,147 l 7,0 0,7 -7,0 z M 196,147 l 7,0 0,7 -7,0 z M 210,147 l 7,0 0,7 -7,0 z M 217,147 l 7,0 0,7 -7,0 z M 252,147 l 7,0 0,7 -7,0 z M 266,147 l 7,0 0,7 -7,0 z M 294,147 l 7,0 0,7 -7,0 z M 301,147 l 7,0 0,7 -7,0 z M 329,147 l 7,0 0,7 -7,0 z M 350,147 l 7,0 0,7 -7,0 z M 357,147 l 7,0 0,7 -7,0 z M 371,147 l 7,0 0,7 -7,0 z M 392,147 l 7,0 0,7 -7,0 z M 406,147 l 7,0 0,7 -7,0 z M 420,147 l 7,0 0,7 -7,0 z M 434,147 l 7,0 0,7 -7,0 z M 441,147 l 7,0 0,7 -7,0 z M 448,147 l 7,0 0,7 -7,0 z M 455,147 l 7,0 0,7 -7,0 z M 462,147 l 7,0 0,7 -7,0 z M 483,147 l 7,0 0,7 -7,0 z M 0,154 l 7,0 0,7 -7,0 z M 14,154 l 7,0 0,7 -7,0 z M 35,154 l 7,0 0,7 -7,0 z M 42,154 l 7,0 0,7 -7,0 z M 49,154 l 7,0 0,7 -7,0 z M 56,154 l 7,0 0,7 -7,0 z M 70,154 l 7,0 0,7 -7,0 z M 77,154 l 7,0 0,7 -7,0 z M 84,154 l 7,0 0,7 -7,0 z M 105,154 l 7,0 0,7 -7,0 z M 133,154 l 7,0 0,7 -7,0 z M 147,154 l 7,0 0,7 -7,0 z M 161,154 l 7,0 0,7 -7,0 z M 168,154 l 7,0 0,7 -7,0 z M 182,154 l 7,0 0,7 -7,0 z M 203,154 l 7,0 0,7 -7,0 z M 210,154 l 7,0 0,7 -7,0 z M 224,154 l 7,0 0,7 -7,0 z M 238,154 l 7,0 0,7 -7,0 z M 245,154 l 7,0 0,7 -7,0 z M 308,154 l 7,0 0,7 -7,0 z M 315,154 l 7,0 0,7 -7,0 z M 336,154 l 7,0 0,7 -7,0 z M 357,154 l 7,0 0,7 -7,0 z M 371,154 l 7,0 0,7 -7,0 z M 378,154 l 7,0 0,7 -7,0 z M 385,154 l 7,0 0,7 -7,0 z M 399,154 l 7,0 0,7 -7,0 z M 434,154 l 7,0 0,7 -7,0 z M 462,154 l 7,0 0,7 -7,0 z M 476,154 l 7,0 0,7 -7,0 z M 483,154 l 7,0 0,7 -7,0 z M 490,154 l 7,0 0,7 -7,0 z M 497,154 l 7,0 0,7 -7,0 z M 504,154 l 7,0 0,7 -7,0 z M 0,161 l 7,0 0,7 -7,0 z M 7,161 l 7,0 0,7 -7,0 z M 21,161 l 7,0 0,7 -7,0 z M 35,161 l 7,0 0,7 -7,0 z M 56,161 l 7,0 0,7 -7,0 z M 63,161 l 7,0 0,7 -7,0 z M 70,161 l 7,0 0,7 -7,0 z M 84,161 l 7,0 0,7 -7,0 z M 126,161 l 7,0 0,7 -7,0 z M 147,161 l 7,0 0,7 -7,0 z M 175,161 l 7,0 0,7 -7,0 z M 182,161 l 7,0 0,7 -7,0 z M 189,161 l 7,0 0,7 -7,0 z M 203,161 l 7,0 0,7 -7,0 z M 210,161 l 7,0 0,7 -7,0 z M 245,161 l 7,0 0,7 -7,0 z M 266,161 l 7,0 0,7 -7,0 z M 336,161 l 7,0 0,7 -7,0 z M 343,161 l 7,0 0,7 -7,0 z M 364,161 l 7,0 0,7 -7,0 z M 371,161 l 7,0 0,7 -7,0 z M 378,161 l 7,0 0,7 -7,0 z M 385,161 l 7,0 0,7 -7,0 z M 399,161 l 7,0 0,7 -7,0 z M 406,161 l 7,0 0,7 -7,0 z M 420,161 l 7,0 0,7 -7,0 z M 448,161 l 7,0 0,7 -7,0 z M 462,161 l 7,0 0,7 -7,0 z M 469,161 l 7,0 0,7 -7,0 z M 483,161 l 7,0 0,7 -7,0 z M 14,168 l 7,0 0,7 -7,0 z M 28,168 l 7,0 0,7 -7,0 z M 35,168 l 7,0 0,7 -7,0 z M 42,168 l 7,0 0,7 -7,0 z M 49,168 l 7,0 0,7 -7,0 z M 56,168 l 7,0 0,7 -7,0 z M 63,168 l 7,0 0,7 -7,0 z M 70,168 l 7,0 0,7 -7,0 z M 84,168 l 7,0 0,7 -7,0 z M 112,168 l 7,0 0,7 -7,0 z M 119,168 l 7,0 0,7 -7,0 z M 140,168 l 7,0 0,7 -7,0 z M 168,168 l 7,0 0,7 -7,0 z M 175,168 l 7,0 0,7 -7,0 z M 182,168 l 7,0 0,7 -7,0 z M 189,168 l 7,0 0,7 -7,0 z M 196,168 l 7,0 0,7 -7,0 z M 224,168 l 7,0 0,7 -7,0 z M 238,168 l 7,0 0,7 -7,0 z M 245,168 l 7,0 0,7 -7,0 z M 259,168 l 7,0 0,7 -7,0 z M 266,168 l 7,0 0,7 -7,0 z M 280,168 l 7,0 0,7 -7,0 z M 301,168 l 7,0 0,7 -7,0 z M 308,168 l 7,0 0,7 -7,0 z M 315,168 l 7,0 0,7 -7,0 z M 322,168 l 7,0 0,7 -7,0 z M 329,168 l 7,0 0,7 -7,0 z M 336,168 l 7,0 0,7 -7,0 z M 343,168 l 7,0 0,7 -7,0 z M 399,168 l 7,0 0,7 -7,0 z M 406,168 l 7,0 0,7 -7,0 z M 420,168 l 7,0 0,7 -7,0 z M 441,168 l 7,0 0,7 -7,0 z M 448,168 l 7,0 0,7 -7,0 z M 455,168 l 7,0 0,7 -7,0 z M 462,168 l 7,0 0,7 -7,0 z M 469,168 l 7,0 0,7 -7,0 z M 476,168 l 7,0 0,7 -7,0 z M 504,168 l 7,0 0,7 -7,0 z M 0,175 l 7,0 0,7 -7,0 z M 7,175 l 7,0 0,7 -7,0 z M 14,175 l 7,0 0,7 -7,0 z M 28,175 l 7,0 0,7 -7,0 z M 56,175 l 7,0 0,7 -7,0 z M 70,175 l 7,0 0,7 -7,0 z M 98,175 l 7,0 0,7 -7,0 z M 112,175 l 7,0 0,7 -7,0 z M 133,175 l 7,0 0,7 -7,0 z M 140,175 l 7,0 0,7 -7,0 z M 147,175 l 7,0 0,7 -7,0 z M 161,175 l 7,0 0,7 -7,0 z M 168,175 l 7,0 0,7 -7,0 z M 196,175 l 7,0 0,7 -7,0 z M 203,175 l 7,0 0,7 -7,0 z M 210,175 l 7,0 0,7 -7,0 z M 217,175 l 7,0 0,7 -7,0 z M 224,175 l 7,0 0,7 -7,0 z M 259,175 l 7,0 0,7 -7,0 z M 287,175 l 7,0 0,7 -7,0 z M 301,175 l 7,0 0,7 -7,0 z M 308,175 l 7,0 0,7 -7,0 z M 336,175 l 7,0 0,7 -7,0 z M 343,175 l 7,0 0,7 -7,0 z M 371,175 l 7,0 0,7 -7,0 z M 378,175 l 7,0 0,7 -7,0 z M 385,175 l 7,0 0,7 -7,0 z M 406,175 l 7,0 0,7 -7,0 z M 420,175 l 7,0 0,7 -7,0 z M 441,175 l 7,0 0,7 -7,0 z M 448,175 l 7,0 0,7 -7,0 z M 476,175 l 7,0 0,7 -7,0 z M 483,175 l 7,0 0,7 -7,0 z M 497,175 l 7,0 0,7 -7,0 z M 504,175 l 7,0 0,7 -7,0 z M 21,182 l 7,0 0,7 -7,0 z M 28,182 l 7,0 0,7 -7,0 z M 42,182 l 7,0 0,7 -7,0 z M 56,182 l 7,0 0,7 -7,0 z M 70,182 l 7,0 0,7 -7,0 z M 91,182 l 7,0 0,7 -7,0 z M 105,182 l 7,0 0,7 -7,0 z M 119,182 l 7,0 0,7 -7,0 z M 140,182 l 7,0 0,7 -7,0 z M 168,182 l 7,0 0,7 -7,0 z M 182,182 l 7,0 0,7 -7,0 z M 196,182 l 7,0 0,7 -7,0 z M 217,182 l 7,0 0,7 -7,0 z M 224,182 l 7,0 0,7 -7,0 z M 231,182 l 7,0 0,7 -7,0 z M 245,182 l 7,0 0,7 -7,0 z M 252,182 l 7,0 0,7 -7,0 z M 294,182 l 7,0 0,7 -7,0 z M 301,182 l 7,0 0,7 -7,0 z M 308,182 l 7,0 0,7 -7,0 z M 322,182 l 7,0 0,7 -7,0 z M 336,182 l 7,0 0,7 -7,0 z M 343,182 l 7,0 0,7 -7,0 z M 350,182 l 7,0 0,7 -7,0 z M 378,182 l 7,0 0,7 -7,0 z M 399,182 l 7,0 0,7 -7,0 z M 406,182 l 7,0 0,7 -7,0 z M 427,182 l 7,0 0,7 -7,0 z M 434,182 l 7,0 0,7 -7,0 z M 448,182 l 7,0 0,7 -7,0 z M 462,182 l 7,0 0,7 -7,0 z M 476,182 l 7,0 0,7 -7,0 z M 483,182 l 7,0 0,7 -7,0 z M 504,182 l 7,0 0,7 -7,0 z M 0,189 l 7,0 0,7 -7,0 z M 28,189 l 7,0 0,7 -7,0 z M 56,189 l 7,0 0,7 -7,0 z M 98,189 l 7,0 0,7 -7,0 z M 112,189 l 7,0 0,7 -7,0 z M 119,189 l 7,0 0,7 -7,0 z M 126,189 l 7,0 0,7 -7,0 z M 161,189 l 7,0 0,7 -7,0 z M 168,189 l 7,0 0,7 -7,0 z M 196,189 l 7,0 0,7 -7,0 z M 203,189 l 7,0 0,7 -7,0 z M 210,189 l 7,0 0,7 -7,0 z M 231,189 l 7,0 0,7 -7,0 z M 238,189 l 7,0 0,7 -7,0 z M 252,189 l 7,0 0,7 -7,0 z M 294,189 l 7,0 0,7 -7,0 z M 308,189 l 7,0 0,7 -7,0 z M 336,189 l 7,0 0,7 -7,0 z M 357,189 l 7,0 0,7 -7,0 z M 371,189 l 7,0 0,7 -7,0 z M 378,189 l 7,0 0,7 -7,0 z M 385,189 l 7,0 0,7 -7,0 z M 392,189 l 7,0 0,7 -7,0 z M 399,189 l 7,0 0,7 -7,0 z M 406,189 l 7,0 0,7 -7,0 z M 413,189 l 7,0 0,7 -7,0 z M 448,189 l 7,0 0,7 -7,0 z M 476,189 l 7,0 0,7 -7,0 z M 14,196 l 7,0 0,7 -7,0 z M 21,196 l 7,0 0,7 -7,0 z M 28,196 l 7,0 0,7 -7,0 z M 35,196 l 7,0 0,7 -7,0 z M 42,196 l 7,0 0,7 -7,0 z M 49,196 l 7,0 0,7 -7,0 z M 56,196 l 7,0 0,7 -7,0 z M 63,196 l 7,0 0,7 -7,0 z M 70,196 l 7,0 0,7 -7,0 z M 84,196 l 7,0 0,7 -7,0 z M 91,196 l 7,0 0,7 -7,0 z M 105,196 l 7,0 0,7 -7,0 z M 112,196 l 7,0 0,7 -7,0 z M 119,196 l 7,0 0,7 -7,0 z M 140,196 l 7,0 0,7 -7,0 z M 154,196 l 7,0 0,7 -7,0 z M 168,196 l 7,0 0,7 -7,0 z M 175,196 l 7,0 0,7 -7,0 z M 182,196 l 7,0 0,7 -7,0 z M 189,196 l 7,0 0,7 -7,0 z M 196,196 l 7,0 0,7 -7,0 z M 203,196 l 7,0 0,7 -7,0 z M 210,196 l 7,0 0,7 -7,0 z M 217,196 l 7,0 0,7 -7,0 z M 224,196 l 7,0 0,7 -7,0 z M 231,196 l 7,0 0,7 -7,0 z M 245,196 l 7,0 0,7 -7,0 z M 252,196 l 7,0 0,7 -7,0 z M 259,196 l 7,0 0,7 -7,0 z M 273,196 l 7,0 0,7 -7,0 z M 280,196 l 7,0 0,7 -7,0 z M 287,196 l 7,0 0,7 -7,0 z M 294,196 l 7,0 0,7 -7,0 z M 301,196 l 7,0 0,7 -7,0 z M 308,196 l 7,0 0,7 -7,0 z M 315,196 l 7,0 0,7 -7,0 z M 322,196 l 7,0 0,7 -7,0 z M 329,196 l 7,0 0,7 -7,0 z M 336,196 l 7,0 0,7 -7,0 z M 350,196 l 7,0 0,7 -7,0 z M 357,196 l 7,0 0,7 -7,0 z M 364,196 l 7,0 0,7 -7,0 z M 378,196 l 7,0 0,7 -7,0 z M 392,196 l 7,0 0,7 -7,0 z M 399,196 l 7,0 0,7 -7,0 z M 448,196 l 7,0 0,7 -7,0 z M 455,196 l 7,0 0,7 -7,0 z M 462,196 l 7,0 0,7 -7,0 z M 469,196 l 7,0 0,7 -7,0 z M 476,196 l 7,0 0,7 -7,0 z M 483,196 l 7,0 0,7 -7,0 z M 490,196 l 7,0 0,7 -7,0 z M 497,196 l 7,0 0,7 -7,0 z M 504,196 l 7,0 0,7 -7,0 z M 0,203 l 7,0 0,7 -7,0 z M 7,203 l 7,0 0,7 -7,0 z M 35,203 l 7,0 0,7 -7,0 z M 56,203 l 7,0 0,7 -7,0 z M 91,203 l 7,0 0,7 -7,0 z M 98,203 l 7,0 0,7 -7,0 z M 112,203 l 7,0 0,7 -7,0 z M 119,203 l 7,0 0,7 -7,0 z M 126,203 l 7,0 0,7 -7,0 z M 133,203 l 7,0 0,7 -7,0 z M 182,203 l 7,0 0,7 -7,0 z M 238,203 l 7,0 0,7 -7,0 z M 252,203 l 7,0 0,7 -7,0 z M 266,203 l 7,0 0,7 -7,0 z M 287,203 l 7,0 0,7 -7,0 z M 301,203 l 7,0 0,7 -7,0 z M 315,203 l 7,0 0,7 -7,0 z M 343,203 l 7,0 0,7 -7,0 z M 350,203 l 7,0 0,7 -7,0 z M 357,203 l 7,0 0,7 -7,0 z M 371,203 l 7,0 0,7 -7,0 z M 378,203 l 7,0 0,7 -7,0 z M 385,203 l 7,0 0,7 -7,0 z M 406,203 l 7,0 0,7 -7,0 z M 413,203 l 7,0 0,7 -7,0 z M 420,203 l 7,0 0,7 -7,0 z M 434,203 l 7,0 0,7 -7,0 z M 441,203 l 7,0 0,7 -7,0 z M 448,203 l 7,0 0,7 -7,0 z M 455,203 l 7,0 0,7 -7,0 z M 469,203 l 7,0 0,7 -7,0 z M 476,203 l 7,0 0,7 -7,0 z M 483,203 l 7,0 0,7 -7,0 z M 497,203 l 7,0 0,7 -7,0 z M 14,210 l 7,0 0,7 -7,0 z M 21,210 l 7,0 0,7 -7,0 z M 42,210 l 7,0 0,7 -7,0 z M 49,210 l 7,0 0,7 -7,0 z M 63,210 l 7,0 0,7 -7,0 z M 77,210 l 7,0 0,7 -7,0 z M 84,210 l 7,0 0,7 -7,0 z M 112,210 l 7,0 0,7 -7,0 z M 119,210 l 7,0 0,7 -7,0 z M 126,210 l 7,0 0,7 -7,0 z M 133,210 l 7,0 0,7 -7,0 z M 140,210 l 7,0 0,7 -7,0 z M 154,210 l 7,0 0,7 -7,0 z M 161,210 l 7,0 0,7 -7,0 z M 168,210 l 7,0 0,7 -7,0 z M 196,210 l 7,0 0,7 -7,0 z M 210,210 l 7,0 0,7 -7,0 z M 224,210 l 7,0 0,7 -7,0 z M 231,210 l 7,0 0,7 -7,0 z M 252,210 l 7,0 0,7 -7,0 z M 266,210 l 7,0 0,7 -7,0 z M 280,210 l 7,0 0,7 -7,0 z M 294,210 l 7,0 0,7 -7,0 z M 315,210 l 7,0 0,7 -7,0 z M 329,210 l 7,0 0,7 -7,0 z M 336,210 l 7,0 0,7 -7,0 z M 343,210 l 7,0 0,7 -7,0 z M 385,210 l 7,0 0,7 -7,0 z M 392,210 l 7,0 0,7 -7,0 z M 399,210 l 7,0 0,7 -7,0 z M 413,210 l 7,0 0,7 -7,0 z M 420,210 l 7,0 0,7 -7,0 z M 441,210 l 7,0 0,7 -7,0 z M 469,210 l 7,0 0,7 -7,0 z M 14,217 l 7,0 0,7 -7,0 z M 28,217 l 7,0 0,7 -7,0 z M 35,217 l 7,0 0,7 -7,0 z M 49,217 l 7,0 0,7 -7,0 z M 63,217 l 7,0 0,7 -7,0 z M 70,217 l 7,0 0,7 -7,0 z M 77,217 l 7,0 0,7 -7,0 z M 84,217 l 7,0 0,7 -7,0 z M 91,217 l 7,0 0,7 -7,0 z M 105,217 l 7,0 0,7 -7,0 z M 126,217 l 7,0 0,7 -7,0 z M 133,217 l 7,0 0,7 -7,0 z M 147,217 l 7,0 0,7 -7,0 z M 210,217 l 7,0 0,7 -7,0 z M 217,217 l 7,0 0,7 -7,0 z M 231,217 l 7,0 0,7 -7,0 z M 238,217 l 7,0 0,7 -7,0 z M 252,217 l 7,0 0,7 -7,0 z M 266,217 l 7,0 0,7 -7,0 z M 273,217 l 7,0 0,7 -7,0 z M 280,217 l 7,0 0,7 -7,0 z M 301,217 l 7,0 0,7 -7,0 z M 315,217 l 7,0 0,7 -7,0 z M 322,217 l 7,0 0,7 -7,0 z M 329,217 l 7,0 0,7 -7,0 z M 336,217 l 7,0 0,7 -7,0 z M 343,217 l 7,0 0,7 -7,0 z M 350,217 l 7,0 0,7 -7,0 z M 371,217 l 7,0 0,7 -7,0 z M 392,217 l 7,0 0,7 -7,0 z M 399,217 l 7,0 0,7 -7,0 z M 406,217 l 7,0 0,7 -7,0 z M 420,217 l 7,0 0,7 -7,0 z M 448,217 l 7,0 0,7 -7,0 z M 455,217 l 7,0 0,7 -7,0 z M 462,217 l 7,0 0,7 -7,0 z M 476,217 l 7,0 0,7 -7,0 z M 483,217 l 7,0 0,7 -7,0 z M 490,217 l 7,0 0,7 -7,0 z M 497,217 l 7,0 0,7 -7,0 z M 7,224 l 7,0 0,7 -7,0 z M 42,224 l 7,0 0,7 -7,0 z M 49,224 l 7,0 0,7 -7,0 z M 56,224 l 7,0 0,7 -7,0 z M 63,224 l 7,0 0,7 -7,0 z M 77,224 l 7,0 0,7 -7,0 z M 140,224 l 7,0 0,7 -7,0 z M 147,224 l 7,0 0,7 -7,0 z M 154,224 l 7,0 0,7 -7,0 z M 161,224 l 7,0 0,7 -7,0 z M 168,224 l 7,0 0,7 -7,0 z M 175,224 l 7,0 0,7 -7,0 z M 189,224 l 7,0 0,7 -7,0 z M 245,224 l 7,0 0,7 -7,0 z M 259,224 l 7,0 0,7 -7,0 z M 273,224 l 7,0 0,7 -7,0 z M 280,224 l 7,0 0,7 -7,0 z M 287,224 l 7,0 0,7 -7,0 z M 308,224 l 7,0 0,7 -7,0 z M 322,224 l 7,0 0,7 -7,0 z M 329,224 l 7,0 0,7 -7,0 z M 336,224 l 7,0 0,7 -7,0 z M 364,224 l 7,0 0,7 -7,0 z M 378,224 l 7,0 0,7 -7,0 z M 399,224 l 7,0 0,7 -7,0 z M 413,224 l 7,0 0,7 -7,0 z M 427,224 l 7,0 0,7 -7,0 z M 441,224 l 7,0 0,7 -7,0 z M 469,224 l 7,0 0,7 -7,0 z M 483,224 l 7,0 0,7 -7,0 z M 490,224 l 7,0 0,7 -7,0 z M 7,231 l 7,0 0,7 -7,0 z M 14,231 l 7,0 0,7 -7,0 z M 21,231 l 7,0 0,7 -7,0 z M 28,231 l 7,0 0,7 -7,0 z M 35,231 l 7,0 0,7 -7,0 z M 49,231 l 7,0 0,7 -7,0 z M 56,231 l 7,0 0,7 -7,0 z M 70,231 l 7,0 0,7 -7,0 z M 91,231 l 7,0 0,7 -7,0 z M 105,231 l 7,0 0,7 -7,0 z M 126,231 l 7,0 0,7 -7,0 z M 133,231 l 7,0 0,7 -7,0 z M 140,231 l 7,0 0,7 -7,0 z M 147,231 l 7,0 0,7 -7,0 z M 168,231 l 7,0 0,7 -7,0 z M 189,231 l 7,0 0,7 -7,0 z M 203,231 l 7,0 0,7 -7,0 z M 210,231 l 7,0 0,7 -7,0 z M 224,231 l 7,0 0,7 -7,0 z M 231,231 l 7,0 0,7 -7,0 z M 245,231 l 7,0 0,7 -7,0 z M 280,231 l 7,0 0,7 -7,0 z M 287,231 l 7,0 0,7 -7,0 z M 294,231 l 7,0 0,7 -7,0 z M 301,231 l 7,0 0,7 -7,0 z M 308,231 l 7,0 0,7 -7,0 z M 329,231 l 7,0 0,7 -7,0 z M 350,231 l 7,0 0,7 -7,0 z M 399,231 l 7,0 0,7 -7,0 z M 406,231 l 7,0 0,7 -7,0 z M 420,231 l 7,0 0,7 -7,0 z M 434,231 l 7,0 0,7 -7,0 z M 441,231 l 7,0 0,7 -7,0 z M 448,231 l 7,0 0,7 -7,0 z M 455,231 l 7,0 0,7 -7,0 z M 469,231 l 7,0 0,7 -7,0 z M 476,231 l 7,0 0,7 -7,0 z M 483,231 l 7,0 0,7 -7,0 z M 497,231 l 7,0 0,7 -7,0 z M 7,238 l 7,0 0,7 -7,0 z M 14,238 l 7,0 0,7 -7,0 z M 21,238 l 7,0 0,7 -7,0 z M 42,238 l 7,0 0,7 -7,0 z M 49,238 l 7,0 0,7 -7,0 z M 77,238 l 7,0 0,7 -7,0 z M 105,238 l 7,0 0,7 -7,0 z M 119,238 l 7,0 0,7 -7,0 z M 126,238 l 7,0 0,7 -7,0 z M 133,238 l 7,0 0,7 -7,0 z M 147,238 l 7,0 0,7 -7,0 z M 161,238 l 7,0 0,7 -7,0 z M 168,238 l 7,0 0,7 -7,0 z M 175,238 l 7,0 0,7 -7,0 z M 196,238 l 7,0 0,7 -7,0 z M 217,238 l 7,0 0,7 -7,0 z M 224,238 l 7,0 0,7 -7,0 z M 231,238 l 7,0 0,7 -7,0 z M 273,238 l 7,0 0,7 -7,0 z M 280,238 l 7,0 0,7 -7,0 z M 301,238 l 7,0 0,7 -7,0 z M 329,238 l 7,0 0,7 -7,0 z M 336,238 l 7,0 0,7 -7,0 z M 357,238 l 7,0 0,7 -7,0 z M 378,238 l 7,0 0,7 -7,0 z M 385,238 l 7,0 0,7 -7,0 z M 406,238 l 7,0 0,7 -7,0 z M 427,238 l 7,0 0,7 -7,0 z M 441,238 l 7,0 0,7 -7,0 z M 448,238 l 7,0 0,7 -7,0 z M 462,238 l 7,0 0,7 -7,0 z M 476,238 l 7,0 0,7 -7,0 z M 0,245 l 7,0 0,7 -7,0 z M 7,245 l 7,0 0,7 -7,0 z M 14,245 l 7,0 0,7 -7,0 z M 21,245 l 7,0 0,7 -7,0 z M 28,245 l 7,0 0,7 -7,0 z M 35,245 l 7,0 0,7 -7,0 z M 49,245 l 7,0 0,7 -7,0 z M 56,245 l 7,0 0,7 -7,0 z M 63,245 l 7,0 0,7 -7,0 z M 70,245 l 7,0 0,7 -7,0 z M 98,245 l 7,0 0,7 -7,0 z M 119,245 l 7,0 0,7 -7,0 z M 133,245 l 7,0 0,7 -7,0 z M 140,245 l 7,0 0,7 -7,0 z M 147,245 l 7,0 0,7 -7,0 z M 168,245 l 7,0 0,7 -7,0 z M 182,245 l 7,0 0,7 -7,0 z M 189,245 l 7,0 0,7 -7,0 z M 196,245 l 7,0 0,7 -7,0 z M 203,245 l 7,0 0,7 -7,0 z M 217,245 l 7,0 0,7 -7,0 z M 231,245 l 7,0 0,7 -7,0 z M 252,245 l 7,0 0,7 -7,0 z M 259,245 l 7,0 0,7 -7,0 z M 273,245 l 7,0 0,7 -7,0 z M 280,245 l 7,0 0,7 -7,0 z M 301,245 l 7,0 0,7 -7,0 z M 315,245 l 7,0 0,7 -7,0 z M 329,245 l 7,0 0,7 -7,0 z M 371,245 l 7,0 0,7 -7,0 z M 378,245 l 7,0 0,7 -7,0 z M 392,245 l 7,0 0,7 -7,0 z M 406,245 l 7,0 0,7 -7,0 z M 420,245 l 7,0 0,7 -7,0 z M 427,245 l 7,0 0,7 -7,0 z M 483,245 l 7,0 0,7 -7,0 z M 497,245 l 7,0 0,7 -7,0 z M 504,245 l 7,0 0,7 -7,0 z M 0,252 l 7,0 0,7 -7,0 z M 21,252 l 7,0 0,7 -7,0 z M 28,252 l 7,0 0,7 -7,0 z M 42,252 l 7,0 0,7 -7,0 z M 91,252 l 7,0 0,7 -7,0 z M 105,252 l 7,0 0,7 -7,0 z M 112,252 l 7,0 0,7 -7,0 z M 119,252 l 7,0 0,7 -7,0 z M 126,252 l 7,0 0,7 -7,0 z M 140,252 l 7,0 0,7 -7,0 z M 147,252 l 7,0 0,7 -7,0 z M 154,252 l 7,0 0,7 -7,0 z M 175,252 l 7,0 0,7 -7,0 z M 196,252 l 7,0 0,7 -7,0 z M 217,252 l 7,0 0,7 -7,0 z M 238,252 l 7,0 0,7 -7,0 z M 245,252 l 7,0 0,7 -7,0 z M 259,252 l 7,0 0,7 -7,0 z M 273,252 l 7,0 0,7 -7,0 z M 280,252 l 7,0 0,7 -7,0 z M 294,252 l 7,0 0,7 -7,0 z M 308,252 l 7,0 0,7 -7,0 z M 315,252 l 7,0 0,7 -7,0 z M 322,252 l 7,0 0,7 -7,0 z M 364,252 l 7,0 0,7 -7,0 z M 371,252 l 7,0 0,7 -7,0 z M 378,252 l 7,0 0,7 -7,0 z M 385,252 l 7,0 0,7 -7,0 z M 392,252 l 7,0 0,7 -7,0 z M 399,252 l 7,0 0,7 -7,0 z M 413,252 l 7,0 0,7 -7,0 z M 427,252 l 7,0 0,7 -7,0 z M 441,252 l 7,0 0,7 -7,0 z M 462,252 l 7,0 0,7 -7,0 z M 476,252 l 7,0 0,7 -7,0 z M 483,252 l 7,0 0,7 -7,0 z M 497,252 l 7,0 0,7 -7,0 z M 504,252 l 7,0 0,7 -7,0 z M 0,259 l 7,0 0,7 -7,0 z M 7,259 l 7,0 0,7 -7,0 z M 28,259 l 7,0 0,7 -7,0 z M 35,259 l 7,0 0,7 -7,0 z M 56,259 l 7,0 0,7 -7,0 z M 63,259 l 7,0 0,7 -7,0 z M 84,259 l 7,0 0,7 -7,0 z M 98,259 l 7,0 0,7 -7,0 z M 105,259 l 7,0 0,7 -7,0 z M 112,259 l 7,0 0,7 -7,0 z M 147,259 l 7,0 0,7 -7,0 z M 189,259 l 7,0 0,7 -7,0 z M 196,259 l 7,0 0,7 -7,0 z M 203,259 l 7,0 0,7 -7,0 z M 217,259 l 7,0 0,7 -7,0 z M 245,259 l 7,0 0,7 -7,0 z M 252,259 l 7,0 0,7 -7,0 z M 259,259 l 7,0 0,7 -7,0 z M 266,259 l 7,0 0,7 -7,0 z M 294,259 l 7,0 0,7 -7,0 z M 301,259 l 7,0 0,7 -7,0 z M 308,259 l 7,0 0,7 -7,0 z M 315,259 l 7,0 0,7 -7,0 z M 336,259 l 7,0 0,7 -7,0 z M 350,259 l 7,0 0,7 -7,0 z M 357,259 l 7,0 0,7 -7,0 z M 364,259 l 7,0 0,7 -7,0 z M 392,259 l 7,0 0,7 -7,0 z M 399,259 l 7,0 0,7 -7,0 z M 406,259 l 7,0 0,7 -7,0 z M 420,259 l 7,0 0,7 -7,0 z M 427,259 l 7,0 0,7 -7,0 z M 434,259 l 7,0 0,7 -7,0 z M 462,259 l 7,0 0,7 -7,0 z M 469,259 l 7,0 0,7 -7,0 z M 483,259 l 7,0 0,7 -7,0 z M 490,259 l 7,0 0,7 -7,0 z M 497,259 l 7,0 0,7 -7,0 z M 504,259 l 7,0 0,7 -7,0 z M 21,266 l 7,0 0,7 -7,0 z M 28,266 l 7,0 0,7 -7,0 z M 35,266 l 7,0 0,7 -7,0 z M 42,266 l 7,0 0,7 -7,0 z M 49,266 l 7,0 0,7 -7,0 z M 63,266 l 7,0 0,7 -7,0 z M 98,266 l 7,0 0,7 -7,0 z M 112,266 l 7,0 0,7 -7,0 z M 126,266 l 7,0 0,7 -7,0 z M 147,266 l 7,0 0,7 -7,0 z M 154,266 l 7,0 0,7 -7,0 z M 161,266 l 7,0 0,7 -7,0 z M 189,266 l 7,0 0,7 -7,0 z M 196,266 l 7,0 0,7 -7,0 z M 210,266 l 7,0 0,7 -7,0 z M 224,266 l 7,0 0,7 -7,0 z M 245,266 l 7,0 0,7 -7,0 z M 252,266 l 7,0 0,7 -7,0 z M 259,266 l 7,0 0,7 -7,0 z M 273,266 l 7,0 0,7 -7,0 z M 301,266 l 7,0 0,7 -7,0 z M 315,266 l 7,0 0,7 -7,0 z M 329,266 l 7,0 0,7 -7,0 z M 371,266 l 7,0 0,7 -7,0 z M 399,266 l 7,0 0,7 -7,0 z M 413,266 l 7,0 0,7 -7,0 z M 420,266 l 7,0 0,7 -7,0 z M 427,266 l 7,0 0,7 -7,0 z M 483,266 l 7,0 0,7 -7,0 z M 497,266 l 7,0 0,7 -7,0 z M 504,266 l 7,0 0,7 -7,0 z M 7,273 l 7,0 0,7 -7,0 z M 35,273 l 7,0 0,7 -7,0 z M 63,273 l 7,0 0,7 -7,0 z M 70,273 l 7,0 0,7 -7,0 z M 77,273 l 7,0 0,7 -7,0 z M 91,273 l 7,0 0,7 -7,0 z M 133,273 l 7,0 0,7 -7,0 z M 140,273 l 7,0 0,7 -7,0 z M 147,273 l 7,0 0,7 -7,0 z M 175,273 l 7,0 0,7 -7,0 z M 196,273 l 7,0 0,7 -7,0 z M 210,273 l 7,0 0,7 -7,0 z M 217,273 l 7,0 0,7 -7,0 z M 252,273 l 7,0 0,7 -7,0 z M 259,273 l 7,0 0,7 -7,0 z M 273,273 l 7,0 0,7 -7,0 z M 301,273 l 7,0 0,7 -7,0 z M 315,273 l 7,0 0,7 -7,0 z M 322,273 l 7,0 0,7 -7,0 z M 336,273 l 7,0 0,7 -7,0 z M 350,273 l 7,0 0,7 -7,0 z M 357,273 l 7,0 0,7 -7,0 z M 364,273 l 7,0 0,7 -7,0 z M 371,273 l 7,0 0,7 -7,0 z M 420,273 l 7,0 0,7 -7,0 z M 441,273 l 7,0 0,7 -7,0 z M 497,273 l 7,0 0,7 -7,0 z M 0,280 l 7,0 0,7 -7,0 z M 7,280 l 7,0 0,7 -7,0 z M 42,280 l 7,0 0,7 -7,0 z M 49,280 l 7,0 0,7 -7,0 z M 56,280 l 7,0 0,7 -7,0 z M 63,280 l 7,0 0,7 -7,0 z M 70,280 l 7,0 0,7 -7,0 z M 77,280 l 7,0 0,7 -7,0 z M 84,280 l 7,0 0,7 -7,0 z M 91,280 l 7,0 0,7 -7,0 z M 105,280 l 7,0 0,7 -7,0 z M 119,280 l 7,0 0,7 -7,0 z M 154,280 l 7,0 0,7 -7,0 z M 161,280 l 7,0 0,7 -7,0 z M 168,280 l 7,0 0,7 -7,0 z M 175,280 l 7,0 0,7 -7,0 z M 189,280 l 7,0 0,7 -7,0 z M 210,280 l 7,0 0,7 -7,0 z M 217,280 l 7,0 0,7 -7,0 z M 238,280 l 7,0 0,7 -7,0 z M 245,280 l 7,0 0,7 -7,0 z M 273,280 l 7,0 0,7 -7,0 z M 294,280 l 7,0 0,7 -7,0 z M 308,280 l 7,0 0,7 -7,0 z M 315,280 l 7,0 0,7 -7,0 z M 322,280 l 7,0 0,7 -7,0 z M 350,280 l 7,0 0,7 -7,0 z M 378,280 l 7,0 0,7 -7,0 z M 385,280 l 7,0 0,7 -7,0 z M 392,280 l 7,0 0,7 -7,0 z M 406,280 l 7,0 0,7 -7,0 z M 413,280 l 7,0 0,7 -7,0 z M 448,280 l 7,0 0,7 -7,0 z M 462,280 l 7,0 0,7 -7,0 z M 476,280 l 7,0 0,7 -7,0 z M 504,280 l 7,0 0,7 -7,0 z M 0,287 l 7,0 0,7 -7,0 z M 14,287 l 7,0 0,7 -7,0 z M 35,287 l 7,0 0,7 -7,0 z M 56,287 l 7,0 0,7 -7,0 z M 63,287 l 7,0 0,7 -7,0 z M 91,287 l 7,0 0,7 -7,0 z M 133,287 l 7,0 0,7 -7,0 z M 140,287 l 7,0 0,7 -7,0 z M 147,287 l 7,0 0,7 -7,0 z M 154,287 l 7,0 0,7 -7,0 z M 161,287 l 7,0 0,7 -7,0 z M 168,287 l 7,0 0,7 -7,0 z M 175,287 l 7,0 0,7 -7,0 z M 182,287 l 7,0 0,7 -7,0 z M 210,287 l 7,0 0,7 -7,0 z M 217,287 l 7,0 0,7 -7,0 z M 252,287 l 7,0 0,7 -7,0 z M 259,287 l 7,0 0,7 -7,0 z M 273,287 l 7,0 0,7 -7,0 z M 287,287 l 7,0 0,7 -7,0 z M 301,287 l 7,0 0,7 -7,0 z M 322,287 l 7,0 0,7 -7,0 z M 364,287 l 7,0 0,7 -7,0 z M 378,287 l 7,0 0,7 -7,0 z M 385,287 l 7,0 0,7 -7,0 z M 392,287 l 7,0 0,7 -7,0 z M 399,287 l 7,0 0,7 -7,0 z M 434,287 l 7,0 0,7 -7,0 z M 441,287 l 7,0 0,7 -7,0 z M 448,287 l 7,0 0,7 -7,0 z M 462,287 l 7,0 0,7 -7,0 z M 490,287 l 7,0 0,7 -7,0 z M 497,287 l 7,0 0,7 -7,0 z M 0,294 l 7,0 0,7 -7,0 z M 7,294 l 7,0 0,7 -7,0 z M 21,294 l 7,0 0,7 -7,0 z M 42,294 l 7,0 0,7 -7,0 z M 49,294 l 7,0 0,7 -7,0 z M 56,294 l 7,0 0,7 -7,0 z M 63,294 l 7,0 0,7 -7,0 z M 70,294 l 7,0 0,7 -7,0 z M 91,294 l 7,0 0,7 -7,0 z M 98,294 l 7,0 0,7 -7,0 z M 105,294 l 7,0 0,7 -7,0 z M 119,294 l 7,0 0,7 -7,0 z M 126,294 l 7,0 0,7 -7,0 z M 147,294 l 7,0 0,7 -7,0 z M 154,294 l 7,0 0,7 -7,0 z M 196,294 l 7,0 0,7 -7,0 z M 210,294 l 7,0 0,7 -7,0 z M 245,294 l 7,0 0,7 -7,0 z M 252,294 l 7,0 0,7 -7,0 z M 273,294 l 7,0 0,7 -7,0 z M 294,294 l 7,0 0,7 -7,0 z M 315,294 l 7,0 0,7 -7,0 z M 322,294 l 7,0 0,7 -7,0 z M 329,294 l 7,0 0,7 -7,0 z M 350,294 l 7,0 0,7 -7,0 z M 357,294 l 7,0 0,7 -7,0 z M 378,294 l 7,0 0,7 -7,0 z M 385,294 l 7,0 0,7 -7,0 z M 427,294 l 7,0 0,7 -7,0 z M 434,294 l 7,0 0,7 -7,0 z M 455,294 l 7,0 0,7 -7,0 z M 469,294 l 7,0 0,7 -7,0 z M 490,294 l 7,0 0,7 -7,0 z M 21,301 l 7,0 0,7 -7,0 z M 35,301 l 7,0 0,7 -7,0 z M 56,301 l 7,0 0,7 -7,0 z M 77,301 l 7,0 0,7 -7,0 z M 84,301 l 7,0 0,7 -7,0 z M 91,301 l 7,0 0,7 -7,0 z M 98,301 l 7,0 0,7 -7,0 z M 105,301 l 7,0 0,7 -7,0 z M 112,301 l 7,0 0,7 -7,0 z M 119,301 l 7,0 0,7 -7,0 z M 126,301 l 7,0 0,7 -7,0 z M 140,301 l 7,0 0,7 -7,0 z M 147,301 l 7,0 0,7 -7,0 z M 161,301 l 7,0 0,7 -7,0 z M 168,301 l 7,0 0,7 -7,0 z M 224,301 l 7,0 0,7 -7,0 z M 231,301 l 7,0 0,7 -7,0 z M 252,301 l 7,0 0,7 -7,0 z M 259,301 l 7,0 0,7 -7,0 z M 273,301 l 7,0 0,7 -7,0 z M 378,301 l 7,0 0,7 -7,0 z M 385,301 l 7,0 0,7 -7,0 z M 392,301 l 7,0 0,7 -7,0 z M 399,301 l 7,0 0,7 -7,0 z M 406,301 l 7,0 0,7 -7,0 z M 413,301 l 7,0 0,7 -7,0 z M 427,301 l 7,0 0,7 -7,0 z M 434,301 l 7,0 0,7 -7,0 z M 441,301 l 7,0 0,7 -7,0 z M 448,301 l 7,0 0,7 -7,0 z M 476,301 l 7,0 0,7 -7,0 z M 497,301 l 7,0 0,7 -7,0 z M 504,301 l 7,0 0,7 -7,0 z M 14,308 l 7,0 0,7 -7,0 z M 21,308 l 7,0 0,7 -7,0 z M 28,308 l 7,0 0,7 -7,0 z M 35,308 l 7,0 0,7 -7,0 z M 42,308 l 7,0 0,7 -7,0 z M 49,308 l 7,0 0,7 -7,0 z M 56,308 l 7,0 0,7 -7,0 z M 70,308 l 7,0 0,7 -7,0 z M 77,308 l 7,0 0,7 -7,0 z M 84,308 l 7,0 0,7 -7,0 z M 98,308 l 7,0 0,7 -7,0 z M 147,308 l 7,0 0,7 -7,0 z M 154,308 l 7,0 0,7 -7,0 z M 168,308 l 7,0 0,7 -7,0 z M 175,308 l 7,0 0,7 -7,0 z M 182,308 l 7,0 0,7 -7,0 z M 189,308 l 7,0 0,7 -7,0 z M 196,308 l 7,0 0,7 -7,0 z M 203,308 l 7,0 0,7 -7,0 z M 210,308 l 7,0 0,7 -7,0 z M 217,308 l 7,0 0,7 -7,0 z M 224,308 l 7,0 0,7 -7,0 z M 231,308 l 7,0 0,7 -7,0 z M 252,308 l 7,0 0,7 -7,0 z M 259,308 l 7,0 0,7 -7,0 z M 280,308 l 7,0 0,7 -7,0 z M 287,308 l 7,0 0,7 -7,0 z M 294,308 l 7,0 0,7 -7,0 z M 301,308 l 7,0 0,7 -7,0 z M 308,308 l 7,0 0,7 -7,0 z M 315,308 l 7,0 0,7 -7,0 z M 322,308 l 7,0 0,7 -7,0 z M 329,308 l 7,0 0,7 -7,0 z M 336,308 l 7,0 0,7 -7,0 z M 350,308 l 7,0 0,7 -7,0 z M 357,308 l 7,0 0,7 -7,0 z M 364,308 l 7,0 0,7 -7,0 z M 392,308 l 7,0 0,7 -7,0 z M 399,308 l 7,0 0,7 -7,0 z M 406,308 l 7,0 0,7 -7,0 z M 434,308 l 7,0 0,7 -7,0 z M 448,308 l 7,0 0,7 -7,0 z M 455,308 l 7,0 0,7 -7,0 z M 462,308 l 7,0 0,7 -7,0 z M 469,308 l 7,0 0,7 -7,0 z M 476,308 l 7,0 0,7 -7,0 z M 490,308 l 7,0 0,7 -7,0 z M 504,308 l 7,0 0,7 -7,0 z M 0,315 l 7,0 0,7 -7,0 z M 14,315 l 7,0 0,7 -7,0 z M 28,315 l 7,0 0,7 -7,0 z M 56,315 l 7,0 0,7 -7,0 z M 63,315 l 7,0 0,7 -7,0 z M 84,315 l 7,0 0,7 -7,0 z M 91,315 l 7,0 0,7 -7,0 z M 98,315 l 7,0 0,7 -7,0 z M 119,315 l 7,0 0,7 -7,0 z M 126,315 l 7,0 0,7 -7,0 z M 140,315 l 7,0 0,7 -7,0 z M 168,315 l 7,0 0,7 -7,0 z M 196,315 l 7,0 0,7 -7,0 z M 217,315 l 7,0 0,7 -7,0 z M 231,315 l 7,0 0,7 -7,0 z M 238,315 l 7,0 0,7 -7,0 z M 266,315 l 7,0 0,7 -7,0 z M 301,315 l 7,0 0,7 -7,0 z M 308,315 l 7,0 0,7 -7,0 z M 336,315 l 7,0 0,7 -7,0 z M 343,315 l 7,0 0,7 -7,0 z M 350,315 l 7,0 0,7 -7,0 z M 371,315 l 7,0 0,7 -7,0 z M 378,315 l 7,0 0,7 -7,0 z M 385,315 l 7,0 0,7 -7,0 z M 406,315 l 7,0 0,7 -7,0 z M 413,315 l 7,0 0,7 -7,0 z M 420,315 l 7,0 0,7 -7,0 z M 448,315 l 7,0 0,7 -7,0 z M 476,315 l 7,0 0,7 -7,0 z M 483,315 l 7,0 0,7 -7,0 z M 497,315 l 7,0 0,7 -7,0 z M 0,322 l 7,0 0,7 -7,0 z M 7,322 l 7,0 0,7 -7,0 z M 21,322 l 7,0 0,7 -7,0 z M 28,322 l 7,0 0,7 -7,0 z M 42,322 l 7,0 0,7 -7,0 z M 56,322 l 7,0 0,7 -7,0 z M 63,322 l 7,0 0,7 -7,0 z M 84,322 l 7,0 0,7 -7,0 z M 91,322 l 7,0 0,7 -7,0 z M 105,322 l 7,0 0,7 -7,0 z M 126,322 l 7,0 0,7 -7,0 z M 147,322 l 7,0 0,7 -7,0 z M 161,322 l 7,0 0,7 -7,0 z M 168,322 l 7,0 0,7 -7,0 z M 182,322 l 7,0 0,7 -7,0 z M 196,322 l 7,0 0,7 -7,0 z M 217,322 l 7,0 0,7 -7,0 z M 224,322 l 7,0 0,7 -7,0 z M 231,322 l 7,0 0,7 -7,0 z M 245,322 l 7,0 0,7 -7,0 z M 252,322 l 7,0 0,7 -7,0 z M 259,322 l 7,0 0,7 -7,0 z M 266,322 l 7,0 0,7 -7,0 z M 273,322 l 7,0 0,7 -7,0 z M 280,322 l 7,0 0,7 -7,0 z M 287,322 l 7,0 0,7 -7,0 z M 294,322 l 7,0 0,7 -7,0 z M 301,322 l 7,0 0,7 -7,0 z M 308,322 l 7,0 0,7 -7,0 z M 322,322 l 7,0 0,7 -7,0 z M 336,322 l 7,0 0,7 -7,0 z M 343,322 l 7,0 0,7 -7,0 z M 364,322 l 7,0 0,7 -7,0 z M 378,322 l 7,0 0,7 -7,0 z M 399,322 l 7,0 0,7 -7,0 z M 413,322 l 7,0 0,7 -7,0 z M 420,322 l 7,0 0,7 -7,0 z M 427,322 l 7,0 0,7 -7,0 z M 441,322 l 7,0 0,7 -7,0 z M 448,322 l 7,0 0,7 -7,0 z M 462,322 l 7,0 0,7 -7,0 z M 476,322 l 7,0 0,7 -7,0 z M 497,322 l 7,0 0,7 -7,0 z M 504,322 l 7,0 0,7 -7,0 z M 7,329 l 7,0 0,7 -7,0 z M 14,329 l 7,0 0,7 -7,0 z M 28,329 l 7,0 0,7 -7,0 z M 56,329 l 7,0 0,7 -7,0 z M 91,329 l 7,0 0,7 -7,0 z M 126,329 l 7,0 0,7 -7,0 z M 161,329 l 7,0 0,7 -7,0 z M 168,329 l 7,0 0,7 -7,0 z M 196,329 l 7,0 0,7 -7,0 z M 217,329 l 7,0 0,7 -7,0 z M 231,329 l 7,0 0,7 -7,0 z M 252,329 l 7,0 0,7 -7,0 z M 273,329 l 7,0 0,7 -7,0 z M 308,329 l 7,0 0,7 -7,0 z M 336,329 l 7,0 0,7 -7,0 z M 364,329 l 7,0 0,7 -7,0 z M 378,329 l 7,0 0,7 -7,0 z M 399,329 l 7,0 0,7 -7,0 z M 406,329 l 7,0 0,7 -7,0 z M 420,329 l 7,0 0,7 -7,0 z M 427,329 l 7,0 0,7 -7,0 z M 448,329 l 7,0 0,7 -7,0 z M 476,329 l 7,0 0,7 -7,0 z M 483,329 l 7,0 0,7 -7,0 z M 490,329 l 7,0 0,7 -7,0 z M 497,329 l 7,0 0,7 -7,0 z M 14,336 l 7,0 0,7 -7,0 z M 21,336 l 7,0 0,7 -7,0 z M 28,336 l 7,0 0,7 -7,0 z M 35,336 l 7,0 0,7 -7,0 z M 42,336 l 7,0 0,7 -7,0 z M 49,336 l 7,0 0,7 -7,0 z M 56,336 l 7,0 0,7 -7,0 z M 77,336 l 7,0 0,7 -7,0 z M 91,336 l 7,0 0,7 -7,0 z M 98,336 l 7,0 0,7 -7,0 z M 105,336 l 7,0 0,7 -7,0 z M 119,336 l 7,0 0,7 -7,0 z M 154,336 l 7,0 0,7 -7,0 z M 161,336 l 7,0 0,7 -7,0 z M 168,336 l 7,0 0,7 -7,0 z M 175,336 l 7,0 0,7 -7,0 z M 182,336 l 7,0 0,7 -7,0 z M 189,336 l 7,0 0,7 -7,0 z M 196,336 l 7,0 0,7 -7,0 z M 203,336 l 7,0 0,7 -7,0 z M 224,336 l 7,0 0,7 -7,0 z M 252,336 l 7,0 0,7 -7,0 z M 259,336 l 7,0 0,7 -7,0 z M 266,336 l 7,0 0,7 -7,0 z M 273,336 l 7,0 0,7 -7,0 z M 287,336 l 7,0 0,7 -7,0 z M 301,336 l 7,0 0,7 -7,0 z M 308,336 l 7,0 0,7 -7,0 z M 315,336 l 7,0 0,7 -7,0 z M 322,336 l 7,0 0,7 -7,0 z M 329,336 l 7,0 0,7 -7,0 z M 336,336 l 7,0 0,7 -7,0 z M 357,336 l 7,0 0,7 -7,0 z M 364,336 l 7,0 0,7 -7,0 z M 371,336 l 7,0 0,7 -7,0 z M 378,336 l 7,0 0,7 -7,0 z M 392,336 l 7,0 0,7 -7,0 z M 399,336 l 7,0 0,7 -7,0 z M 448,336 l 7,0 0,7 -7,0 z M 455,336 l 7,0 0,7 -7,0 z M 462,336 l 7,0 0,7 -7,0 z M 469,336 l 7,0 0,7 -7,0 z M 476,336 l 7,0 0,7 -7,0 z M 483,336 l 7,0 0,7 -7,0 z M 0,343 l 7,0 0,7 -7,0 z M 7,343 l 7,0 0,7 -7,0 z M 14,343 l 7,0 0,7 -7,0 z M 21,343 l 7,0 0,7 -7,0 z M 28,343 l 7,0 0,7 -7,0 z M 35,343 l 7,0 0,7 -7,0 z M 49,343 l 7,0 0,7 -7,0 z M 56,343 l 7,0 0,7 -7,0 z M 63,343 l 7,0 0,7 -7,0 z M 70,343 l 7,0 0,7 -7,0 z M 91,343 l 7,0 0,7 -7,0 z M 112,343 l 7,0 0,7 -7,0 z M 126,343 l 7,0 0,7 -7,0 z M 140,343 l 7,0 0,7 -7,0 z M 168,343 l 7,0 0,7 -7,0 z M 175,343 l 7,0 0,7 -7,0 z M 182,343 l 7,0 0,7 -7,0 z M 203,343 l 7,0 0,7 -7,0 z M 210,343 l 7,0 0,7 -7,0 z M 217,343 l 7,0 0,7 -7,0 z M 231,343 l 7,0 0,7 -7,0 z M 238,343 l 7,0 0,7 -7,0 z M 245,343 l 7,0 0,7 -7,0 z M 266,343 l 7,0 0,7 -7,0 z M 280,343 l 7,0 0,7 -7,0 z M 315,343 l 7,0 0,7 -7,0 z M 343,343 l 7,0 0,7 -7,0 z M 350,343 l 7,0 0,7 -7,0 z M 371,343 l 7,0 0,7 -7,0 z M 385,343 l 7,0 0,7 -7,0 z M 406,343 l 7,0 0,7 -7,0 z M 420,343 l 7,0 0,7 -7,0 z M 434,343 l 7,0 0,7 -7,0 z M 462,343 l 7,0 0,7 -7,0 z M 469,343 l 7,0 0,7 -7,0 z M 483,343 l 7,0 0,7 -7,0 z M 7,350 l 7,0 0,7 -7,0 z M 14,350 l 7,0 0,7 -7,0 z M 28,350 l 7,0 0,7 -7,0 z M 42,350 l 7,0 0,7 -7,0 z M 56,350 l 7,0 0,7 -7,0 z M 63,350 l 7,0 0,7 -7,0 z M 70,350 l 7,0 0,7 -7,0 z M 77,350 l 7,0 0,7 -7,0 z M 91,350 l 7,0 0,7 -7,0 z M 112,350 l 7,0 0,7 -7,0 z M 133,350 l 7,0 0,7 -7,0 z M 161,350 l 7,0 0,7 -7,0 z M 168,350 l 7,0 0,7 -7,0 z M 189,350 l 7,0 0,7 -7,0 z M 210,350 l 7,0 0,7 -7,0 z M 252,350 l 7,0 0,7 -7,0 z M 266,350 l 7,0 0,7 -7,0 z M 273,350 l 7,0 0,7 -7,0 z M 294,350 l 7,0 0,7 -7,0 z M 301,350 l 7,0 0,7 -7,0 z M 308,350 l 7,0 0,7 -7,0 z M 315,350 l 7,0 0,7 -7,0 z M 364,350 l 7,0 0,7 -7,0 z M 378,350 l 7,0 0,7 -7,0 z M 399,350 l 7,0 0,7 -7,0 z M 406,350 l 7,0 0,7 -7,0 z M 413,350 l 7,0 0,7 -7,0 z M 455,350 l 7,0 0,7 -7,0 z M 462,350 l 7,0 0,7 -7,0 z M 490,350 l 7,0 0,7 -7,0 z M 0,357 l 7,0 0,7 -7,0 z M 7,357 l 7,0 0,7 -7,0 z M 35,357 l 7,0 0,7 -7,0 z M 49,357 l 7,0 0,7 -7,0 z M 70,357 l 7,0 0,7 -7,0 z M 77,357 l 7,0 0,7 -7,0 z M 84,357 l 7,0 0,7 -7,0 z M 91,357 l 7,0 0,7 -7,0 z M 98,357 l 7,0 0,7 -7,0 z M 105,357 l 7,0 0,7 -7,0 z M 126,357 l 7,0 0,7 -7,0 z M 154,357 l 7,0 0,7 -7,0 z M 182,357 l 7,0 0,7 -7,0 z M 189,357 l 7,0 0,7 -7,0 z M 210,357 l 7,0 0,7 -7,0 z M 224,357 l 7,0 0,7 -7,0 z M 231,357 l 7,0 0,7 -7,0 z M 273,357 l 7,0 0,7 -7,0 z M 301,357 l 7,0 0,7 -7,0 z M 315,357 l 7,0 0,7 -7,0 z M 322,357 l 7,0 0,7 -7,0 z M 329,357 l 7,0 0,7 -7,0 z M 336,357 l 7,0 0,7 -7,0 z M 343,357 l 7,0 0,7 -7,0 z M 350,357 l 7,0 0,7 -7,0 z M 378,357 l 7,0 0,7 -7,0 z M 385,357 l 7,0 0,7 -7,0 z M 399,357 l 7,0 0,7 -7,0 z M 413,357 l 7,0 0,7 -7,0 z M 420,357 l 7,0 0,7 -7,0 z M 441,357 l 7,0 0,7 -7,0 z M 448,357 l 7,0 0,7 -7,0 z M 455,357 l 7,0 0,7 -7,0 z M 462,357 l 7,0 0,7 -7,0 z M 497,357 l 7,0 0,7 -7,0 z M 504,357 l 7,0 0,7 -7,0 z M 0,364 l 7,0 0,7 -7,0 z M 35,364 l 7,0 0,7 -7,0 z M 42,364 l 7,0 0,7 -7,0 z M 49,364 l 7,0 0,7 -7,0 z M 77,364 l 7,0 0,7 -7,0 z M 84,364 l 7,0 0,7 -7,0 z M 91,364 l 7,0 0,7 -7,0 z M 98,364 l 7,0 0,7 -7,0 z M 105,364 l 7,0 0,7 -7,0 z M 133,364 l 7,0 0,7 -7,0 z M 140,364 l 7,0 0,7 -7,0 z M 161,364 l 7,0 0,7 -7,0 z M 168,364 l 7,0 0,7 -7,0 z M 175,364 l 7,0 0,7 -7,0 z M 182,364 l 7,0 0,7 -7,0 z M 189,364 l 7,0 0,7 -7,0 z M 203,364 l 7,0 0,7 -7,0 z M 210,364 l 7,0 0,7 -7,0 z M 231,364 l 7,0 0,7 -7,0 z M 238,364 l 7,0 0,7 -7,0 z M 280,364 l 7,0 0,7 -7,0 z M 287,364 l 7,0 0,7 -7,0 z M 294,364 l 7,0 0,7 -7,0 z M 301,364 l 7,0 0,7 -7,0 z M 308,364 l 7,0 0,7 -7,0 z M 315,364 l 7,0 0,7 -7,0 z M 322,364 l 7,0 0,7 -7,0 z M 329,364 l 7,0 0,7 -7,0 z M 336,364 l 7,0 0,7 -7,0 z M 350,364 l 7,0 0,7 -7,0 z M 371,364 l 7,0 0,7 -7,0 z M 378,364 l 7,0 0,7 -7,0 z M 385,364 l 7,0 0,7 -7,0 z M 392,364 l 7,0 0,7 -7,0 z M 399,364 l 7,0 0,7 -7,0 z M 413,364 l 7,0 0,7 -7,0 z M 427,364 l 7,0 0,7 -7,0 z M 441,364 l 7,0 0,7 -7,0 z M 448,364 l 7,0 0,7 -7,0 z M 455,364 l 7,0 0,7 -7,0 z M 462,364 l 7,0 0,7 -7,0 z M 483,364 l 7,0 0,7 -7,0 z M 504,364 l 7,0 0,7 -7,0 z M 21,371 l 7,0 0,7 -7,0 z M 56,371 l 7,0 0,7 -7,0 z M 63,371 l 7,0 0,7 -7,0 z M 84,371 l 7,0 0,7 -7,0 z M 91,371 l 7,0 0,7 -7,0 z M 98,371 l 7,0 0,7 -7,0 z M 105,371 l 7,0 0,7 -7,0 z M 112,371 l 7,0 0,7 -7,0 z M 126,371 l 7,0 0,7 -7,0 z M 140,371 l 7,0 0,7 -7,0 z M 147,371 l 7,0 0,7 -7,0 z M 154,371 l 7,0 0,7 -7,0 z M 161,371 l 7,0 0,7 -7,0 z M 182,371 l 7,0 0,7 -7,0 z M 189,371 l 7,0 0,7 -7,0 z M 210,371 l 7,0 0,7 -7,0 z M 245,371 l 7,0 0,7 -7,0 z M 252,371 l 7,0 0,7 -7,0 z M 266,371 l 7,0 0,7 -7,0 z M 287,371 l 7,0 0,7 -7,0 z M 294,371 l 7,0 0,7 -7,0 z M 315,371 l 7,0 0,7 -7,0 z M 322,371 l 7,0 0,7 -7,0 z M 336,371 l 7,0 0,7 -7,0 z M 343,371 l 7,0 0,7 -7,0 z M 357,371 l 7,0 0,7 -7,0 z M 364,371 l 7,0 0,7 -7,0 z M 371,371 l 7,0 0,7 -7,0 z M 406,371 l 7,0 0,7 -7,0 z M 434,371 l 7,0 0,7 -7,0 z M 448,371 l 7,0 0,7 -7,0 z M 455,371 l 7,0 0,7 -7,0 z M 469,371 l 7,0 0,7 -7,0 z M 483,371 l 7,0 0,7 -7,0 z M 497,371 l 7,0 0,7 -7,0 z M 504,371 l 7,0 0,7 -7,0 z M 7,378 l 7,0 0,7 -7,0 z M 14,378 l 7,0 0,7 -7,0 z M 21,378 l 7,0 0,7 -7,0 z M 35,378 l 7,0 0,7 -7,0 z M 42,378 l 7,0 0,7 -7,0 z M 49,378 l 7,0 0,7 -7,0 z M 56,378 l 7,0 0,7 -7,0 z M 112,378 l 7,0 0,7 -7,0 z M 119,378 l 7,0 0,7 -7,0 z M 133,378 l 7,0 0,7 -7,0 z M 147,378 l 7,0 0,7 -7,0 z M 161,378 l 7,0 0,7 -7,0 z M 168,378 l 7,0 0,7 -7,0 z M 175,378 l 7,0 0,7 -7,0 z M 182,378 l 7,0 0,7 -7,0 z M 203,378 l 7,0 0,7 -7,0 z M 210,378 l 7,0 0,7 -7,0 z M 217,378 l 7,0 0,7 -7,0 z M 252,378 l 7,0 0,7 -7,0 z M 294,378 l 7,0 0,7 -7,0 z M 336,378 l 7,0 0,7 -7,0 z M 343,378 l 7,0 0,7 -7,0 z M 357,378 l 7,0 0,7 -7,0 z M 378,378 l 7,0 0,7 -7,0 z M 392,378 l 7,0 0,7 -7,0 z M 399,378 l 7,0 0,7 -7,0 z M 441,378 l 7,0 0,7 -7,0 z M 448,378 l 7,0 0,7 -7,0 z M 462,378 l 7,0 0,7 -7,0 z M 469,378 l 7,0 0,7 -7,0 z M 476,378 l 7,0 0,7 -7,0 z M 483,378 l 7,0 0,7 -7,0 z M 490,378 l 7,0 0,7 -7,0 z M 504,378 l 7,0 0,7 -7,0 z M 7,385 l 7,0 0,7 -7,0 z M 14,385 l 7,0 0,7 -7,0 z M 35,385 l 7,0 0,7 -7,0 z M 49,385 l 7,0 0,7 -7,0 z M 84,385 l 7,0 0,7 -7,0 z M 105,385 l 7,0 0,7 -7,0 z M 112,385 l 7,0 0,7 -7,0 z M 126,385 l 7,0 0,7 -7,0 z M 147,385 l 7,0 0,7 -7,0 z M 168,385 l 7,0 0,7 -7,0 z M 189,385 l 7,0 0,7 -7,0 z M 203,385 l 7,0 0,7 -7,0 z M 280,385 l 7,0 0,7 -7,0 z M 329,385 l 7,0 0,7 -7,0 z M 336,385 l 7,0 0,7 -7,0 z M 392,385 l 7,0 0,7 -7,0 z M 406,385 l 7,0 0,7 -7,0 z M 420,385 l 7,0 0,7 -7,0 z M 441,385 l 7,0 0,7 -7,0 z M 462,385 l 7,0 0,7 -7,0 z M 476,385 l 7,0 0,7 -7,0 z M 483,385 l 7,0 0,7 -7,0 z M 504,385 l 7,0 0,7 -7,0 z M 0,392 l 7,0 0,7 -7,0 z M 7,392 l 7,0 0,7 -7,0 z M 21,392 l 7,0 0,7 -7,0 z M 35,392 l 7,0 0,7 -7,0 z M 42,392 l 7,0 0,7 -7,0 z M 49,392 l 7,0 0,7 -7,0 z M 56,392 l 7,0 0,7 -7,0 z M 63,392 l 7,0 0,7 -7,0 z M 70,392 l 7,0 0,7 -7,0 z M 105,392 l 7,0 0,7 -7,0 z M 112,392 l 7,0 0,7 -7,0 z M 119,392 l 7,0 0,7 -7,0 z M 140,392 l 7,0 0,7 -7,0 z M 154,392 l 7,0 0,7 -7,0 z M 175,392 l 7,0 0,7 -7,0 z M 182,392 l 7,0 0,7 -7,0 z M 231,392 l 7,0 0,7 -7,0 z M 238,392 l 7,0 0,7 -7,0 z M 280,392 l 7,0 0,7 -7,0 z M 301,392 l 7,0 0,7 -7,0 z M 308,392 l 7,0 0,7 -7,0 z M 315,392 l 7,0 0,7 -7,0 z M 336,392 l 7,0 0,7 -7,0 z M 378,392 l 7,0 0,7 -7,0 z M 392,392 l 7,0 0,7 -7,0 z M 399,392 l 7,0 0,7 -7,0 z M 406,392 l 7,0 0,7 -7,0 z M 413,392 l 7,0 0,7 -7,0 z M 434,392 l 7,0 0,7 -7,0 z M 441,392 l 7,0 0,7 -7,0 z M 455,392 l 7,0 0,7 -7,0 z M 483,392 l 7,0 0,7 -7,0 z M 490,392 l 7,0 0,7 -7,0 z M 504,392 l 7,0 0,7 -7,0 z M 14,399 l 7,0 0,7 -7,0 z M 21,399 l 7,0 0,7 -7,0 z M 28,399 l 7,0 0,7 -7,0 z M 35,399 l 7,0 0,7 -7,0 z M 49,399 l 7,0 0,7 -7,0 z M 70,399 l 7,0 0,7 -7,0 z M 77,399 l 7,0 0,7 -7,0 z M 112,399 l 7,0 0,7 -7,0 z M 126,399 l 7,0 0,7 -7,0 z M 133,399 l 7,0 0,7 -7,0 z M 140,399 l 7,0 0,7 -7,0 z M 147,399 l 7,0 0,7 -7,0 z M 161,399 l 7,0 0,7 -7,0 z M 168,399 l 7,0 0,7 -7,0 z M 175,399 l 7,0 0,7 -7,0 z M 189,399 l 7,0 0,7 -7,0 z M 210,399 l 7,0 0,7 -7,0 z M 224,399 l 7,0 0,7 -7,0 z M 252,399 l 7,0 0,7 -7,0 z M 280,399 l 7,0 0,7 -7,0 z M 287,399 l 7,0 0,7 -7,0 z M 294,399 l 7,0 0,7 -7,0 z M 308,399 l 7,0 0,7 -7,0 z M 315,399 l 7,0 0,7 -7,0 z M 322,399 l 7,0 0,7 -7,0 z M 343,399 l 7,0 0,7 -7,0 z M 357,399 l 7,0 0,7 -7,0 z M 378,399 l 7,0 0,7 -7,0 z M 385,399 l 7,0 0,7 -7,0 z M 413,399 l 7,0 0,7 -7,0 z M 420,399 l 7,0 0,7 -7,0 z M 462,399 l 7,0 0,7 -7,0 z M 483,399 l 7,0 0,7 -7,0 z M 497,399 l 7,0 0,7 -7,0 z M 7,406 l 7,0 0,7 -7,0 z M 14,406 l 7,0 0,7 -7,0 z M 42,406 l 7,0 0,7 -7,0 z M 49,406 l 7,0 0,7 -7,0 z M 56,406 l 7,0 0,7 -7,0 z M 70,406 l 7,0 0,7 -7,0 z M 77,406 l 7,0 0,7 -7,0 z M 84,406 l 7,0 0,7 -7,0 z M 140,406 l 7,0 0,7 -7,0 z M 147,406 l 7,0 0,7 -7,0 z M 154,406 l 7,0 0,7 -7,0 z M 168,406 l 7,0 0,7 -7,0 z M 175,406 l 7,0 0,7 -7,0 z M 182,406 l 7,0 0,7 -7,0 z M 189,406 l 7,0 0,7 -7,0 z M 231,406 l 7,0 0,7 -7,0 z M 252,406 l 7,0 0,7 -7,0 z M 294,406 l 7,0 0,7 -7,0 z M 308,406 l 7,0 0,7 -7,0 z M 329,406 l 7,0 0,7 -7,0 z M 343,406 l 7,0 0,7 -7,0 z M 357,406 l 7,0 0,7 -7,0 z M 364,406 l 7,0 0,7 -7,0 z M 371,406 l 7,0 0,7 -7,0 z M 378,406 l 7,0 0,7 -7,0 z M 392,406 l 7,0 0,7 -7,0 z M 399,406 l 7,0 0,7 -7,0 z M 413,406 l 7,0 0,7 -7,0 z M 420,406 l 7,0 0,7 -7,0 z M 427,406 l 7,0 0,7 -7,0 z M 441,406 l 7,0 0,7 -7,0 z M 448,406 l 7,0 0,7 -7,0 z M 462,406 l 7,0 0,7 -7,0 z M 469,406 l 7,0 0,7 -7,0 z M 483,406 l 7,0 0,7 -7,0 z M 490,406 l 7,0 0,7 -7,0 z M 497,406 l 7,0 0,7 -7,0 z M 504,406 l 7,0 0,7 -7,0 z M 0,413 l 7,0 0,7 -7,0 z M 21,413 l 7,0 0,7 -7,0 z M 35,413 l 7,0 0,7 -7,0 z M 49,413 l 7,0 0,7 -7,0 z M 56,413 l 7,0 0,7 -7,0 z M 70,413 l 7,0 0,7 -7,0 z M 77,413 l 7,0 0,7 -7,0 z M 98,413 l 7,0 0,7 -7,0 z M 126,413 l 7,0 0,7 -7,0 z M 147,413 l 7,0 0,7 -7,0 z M 175,413 l 7,0 0,7 -7,0 z M 189,413 l 7,0 0,7 -7,0 z M 203,413 l 7,0 0,7 -7,0 z M 210,413 l 7,0 0,7 -7,0 z M 217,413 l 7,0 0,7 -7,0 z M 224,413 l 7,0 0,7 -7,0 z M 231,413 l 7,0 0,7 -7,0 z M 245,413 l 7,0 0,7 -7,0 z M 252,413 l 7,0 0,7 -7,0 z M 259,413 l 7,0 0,7 -7,0 z M 266,413 l 7,0 0,7 -7,0 z M 280,413 l 7,0 0,7 -7,0 z M 287,413 l 7,0 0,7 -7,0 z M 294,413 l 7,0 0,7 -7,0 z M 301,413 l 7,0 0,7 -7,0 z M 308,413 l 7,0 0,7 -7,0 z M 315,413 l 7,0 0,7 -7,0 z M 357,413 l 7,0 0,7 -7,0 z M 378,413 l 7,0 0,7 -7,0 z M 399,413 l 7,0 0,7 -7,0 z M 427,413 l 7,0 0,7 -7,0 z M 455,413 l 7,0 0,7 -7,0 z M 476,413 l 7,0 0,7 -7,0 z M 497,413 l 7,0 0,7 -7,0 z M 504,413 l 7,0 0,7 -7,0 z M 0,420 l 7,0 0,7 -7,0 z M 28,420 l 7,0 0,7 -7,0 z M 35,420 l 7,0 0,7 -7,0 z M 42,420 l 7,0 0,7 -7,0 z M 49,420 l 7,0 0,7 -7,0 z M 56,420 l 7,0 0,7 -7,0 z M 63,420 l 7,0 0,7 -7,0 z M 70,420 l 7,0 0,7 -7,0 z M 84,420 l 7,0 0,7 -7,0 z M 91,420 l 7,0 0,7 -7,0 z M 140,420 l 7,0 0,7 -7,0 z M 147,420 l 7,0 0,7 -7,0 z M 168,420 l 7,0 0,7 -7,0 z M 175,420 l 7,0 0,7 -7,0 z M 182,420 l 7,0 0,7 -7,0 z M 203,420 l 7,0 0,7 -7,0 z M 210,420 l 7,0 0,7 -7,0 z M 245,420 l 7,0 0,7 -7,0 z M 252,420 l 7,0 0,7 -7,0 z M 259,420 l 7,0 0,7 -7,0 z M 273,420 l 7,0 0,7 -7,0 z M 280,420 l 7,0 0,7 -7,0 z M 287,420 l 7,0 0,7 -7,0 z M 294,420 l 7,0 0,7 -7,0 z M 322,420 l 7,0 0,7 -7,0 z M 336,420 l 7,0 0,7 -7,0 z M 350,420 l 7,0 0,7 -7,0 z M 364,420 l 7,0 0,7 -7,0 z M 378,420 l 7,0 0,7 -7,0 z M 385,420 l 7,0 0,7 -7,0 z M 392,420 l 7,0 0,7 -7,0 z M 399,420 l 7,0 0,7 -7,0 z M 406,420 l 7,0 0,7 -7,0 z M 441,420 l 7,0 0,7 -7,0 z M 490,420 l 7,0 0,7 -7,0 z M 0,427 l 7,0 0,7 -7,0 z M 14,427 l 7,0 0,7 -7,0 z M 28,427 l 7,0 0,7 -7,0 z M 35,427 l 7,0 0,7 -7,0 z M 49,427 l 7,0 0,7 -7,0 z M 56,427 l 7,0 0,7 -7,0 z M 63,427 l 7,0 0,7 -7,0 z M 98,427 l 7,0 0,7 -7,0 z M 105,427 l 7,0 0,7 -7,0 z M 112,427 l 7,0 0,7 -7,0 z M 126,427 l 7,0 0,7 -7,0 z M 133,427 l 7,0 0,7 -7,0 z M 147,427 l 7,0 0,7 -7,0 z M 168,427 l 7,0 0,7 -7,0 z M 189,427 l 7,0 0,7 -7,0 z M 217,427 l 7,0 0,7 -7,0 z M 231,427 l 7,0 0,7 -7,0 z M 238,427 l 7,0 0,7 -7,0 z M 266,427 l 7,0 0,7 -7,0 z M 315,427 l 7,0 0,7 -7,0 z M 322,427 l 7,0 0,7 -7,0 z M 336,427 l 7,0 0,7 -7,0 z M 343,427 l 7,0 0,7 -7,0 z M 350,427 l 7,0 0,7 -7,0 z M 371,427 l 7,0 0,7 -7,0 z M 406,427 l 7,0 0,7 -7,0 z M 413,427 l 7,0 0,7 -7,0 z M 420,427 l 7,0 0,7 -7,0 z M 434,427 l 7,0 0,7 -7,0 z M 455,427 l 7,0 0,7 -7,0 z M 462,427 l 7,0 0,7 -7,0 z M 476,427 l 7,0 0,7 -7,0 z M 497,427 l 7,0 0,7 -7,0 z M 504,427 l 7,0 0,7 -7,0 z M 0,434 l 7,0 0,7 -7,0 z M 7,434 l 7,0 0,7 -7,0 z M 21,434 l 7,0 0,7 -7,0 z M 35,434 l 7,0 0,7 -7,0 z M 42,434 l 7,0 0,7 -7,0 z M 49,434 l 7,0 0,7 -7,0 z M 63,434 l 7,0 0,7 -7,0 z M 70,434 l 7,0 0,7 -7,0 z M 77,434 l 7,0 0,7 -7,0 z M 91,434 l 7,0 0,7 -7,0 z M 98,434 l 7,0 0,7 -7,0 z M 105,434 l 7,0 0,7 -7,0 z M 112,434 l 7,0 0,7 -7,0 z M 126,434 l 7,0 0,7 -7,0 z M 133,434 l 7,0 0,7 -7,0 z M 140,434 l 7,0 0,7 -7,0 z M 147,434 l 7,0 0,7 -7,0 z M 168,434 l 7,0 0,7 -7,0 z M 182,434 l 7,0 0,7 -7,0 z M 189,434 l 7,0 0,7 -7,0 z M 196,434 l 7,0 0,7 -7,0 z M 203,434 l 7,0 0,7 -7,0 z M 217,434 l 7,0 0,7 -7,0 z M 224,434 l 7,0 0,7 -7,0 z M 238,434 l 7,0 0,7 -7,0 z M 245,434 l 7,0 0,7 -7,0 z M 259,434 l 7,0 0,7 -7,0 z M 266,434 l 7,0 0,7 -7,0 z M 294,434 l 7,0 0,7 -7,0 z M 329,434 l 7,0 0,7 -7,0 z M 336,434 l 7,0 0,7 -7,0 z M 371,434 l 7,0 0,7 -7,0 z M 378,434 l 7,0 0,7 -7,0 z M 399,434 l 7,0 0,7 -7,0 z M 434,434 l 7,0 0,7 -7,0 z M 441,434 l 7,0 0,7 -7,0 z M 448,434 l 7,0 0,7 -7,0 z M 462,434 l 7,0 0,7 -7,0 z M 469,434 l 7,0 0,7 -7,0 z M 504,434 l 7,0 0,7 -7,0 z M 21,441 l 7,0 0,7 -7,0 z M 28,441 l 7,0 0,7 -7,0 z M 49,441 l 7,0 0,7 -7,0 z M 56,441 l 7,0 0,7 -7,0 z M 70,441 l 7,0 0,7 -7,0 z M 77,441 l 7,0 0,7 -7,0 z M 84,441 l 7,0 0,7 -7,0 z M 98,441 l 7,0 0,7 -7,0 z M 126,441 l 7,0 0,7 -7,0 z M 133,441 l 7,0 0,7 -7,0 z M 189,441 l 7,0 0,7 -7,0 z M 196,441 l 7,0 0,7 -7,0 z M 217,441 l 7,0 0,7 -7,0 z M 224,441 l 7,0 0,7 -7,0 z M 231,441 l 7,0 0,7 -7,0 z M 294,441 l 7,0 0,7 -7,0 z M 301,441 l 7,0 0,7 -7,0 z M 308,441 l 7,0 0,7 -7,0 z M 315,441 l 7,0 0,7 -7,0 z M 329,441 l 7,0 0,7 -7,0 z M 350,441 l 7,0 0,7 -7,0 z M 357,441 l 7,0 0,7 -7,0 z M 364,441 l 7,0 0,7 -7,0 z M 378,441 l 7,0 0,7 -7,0 z M 399,441 l 7,0 0,7 -7,0 z M 406,441 l 7,0 0,7 -7,0 z M 420,441 l 7,0 0,7 -7,0 z M 434,441 l 7,0 0,7 -7,0 z M 455,441 l 7,0 0,7 -7,0 z M 469,441 l 7,0 0,7 -7,0 z M 476,441 l 7,0 0,7 -7,0 z M 483,441 l 7,0 0,7 -7,0 z M 490,441 l 7,0 0,7 -7,0 z M 497,441 l 7,0 0,7 -7,0 z M 0,448 l 7,0 0,7 -7,0 z M 28,448 l 7,0 0,7 -7,0 z M 42,448 l 7,0 0,7 -7,0 z M 49,448 l 7,0 0,7 -7,0 z M 63,448 l 7,0 0,7 -7,0 z M 77,448 l 7,0 0,7 -7,0 z M 84,448 l 7,0 0,7 -7,0 z M 105,448 l 7,0 0,7 -7,0 z M 112,448 l 7,0 0,7 -7,0 z M 119,448 l 7,0 0,7 -7,0 z M 133,448 l 7,0 0,7 -7,0 z M 147,448 l 7,0 0,7 -7,0 z M 154,448 l 7,0 0,7 -7,0 z M 161,448 l 7,0 0,7 -7,0 z M 168,448 l 7,0 0,7 -7,0 z M 175,448 l 7,0 0,7 -7,0 z M 182,448 l 7,0 0,7 -7,0 z M 189,448 l 7,0 0,7 -7,0 z M 196,448 l 7,0 0,7 -7,0 z M 203,448 l 7,0 0,7 -7,0 z M 217,448 l 7,0 0,7 -7,0 z M 252,448 l 7,0 0,7 -7,0 z M 259,448 l 7,0 0,7 -7,0 z M 266,448 l 7,0 0,7 -7,0 z M 273,448 l 7,0 0,7 -7,0 z M 280,448 l 7,0 0,7 -7,0 z M 287,448 l 7,0 0,7 -7,0 z M 308,448 l 7,0 0,7 -7,0 z M 315,448 l 7,0 0,7 -7,0 z M 322,448 l 7,0 0,7 -7,0 z M 329,448 l 7,0 0,7 -7,0 z M 336,448 l 7,0 0,7 -7,0 z M 357,448 l 7,0 0,7 -7,0 z M 364,448 l 7,0 0,7 -7,0 z M 371,448 l 7,0 0,7 -7,0 z M 378,448 l 7,0 0,7 -7,0 z M 385,448 l 7,0 0,7 -7,0 z M 413,448 l 7,0 0,7 -7,0 z M 427,448 l 7,0 0,7 -7,0 z M 441,448 l 7,0 0,7 -7,0 z M 448,448 l 7,0 0,7 -7,0 z M 455,448 l 7,0 0,7 -7,0 z M 462,448 l 7,0 0,7 -7,0 z M 469,448 l 7,0 0,7 -7,0 z M 476,448 l 7,0 0,7 -7,0 z M 483,448 l 7,0 0,7 -7,0 z M 490,448 l 7,0 0,7 -7,0 z M 504,448 l 7,0 0,7 -7,0 z M 56,455 l 7,0 0,7 -7,0 z M 63,455 l 7,0 0,7 -7,0 z M 77,455 l 7,0 0,7 -7,0 z M 98,455 l 7,0 0,7 -7,0 z M 105,455 l 7,0 0,7 -7,0 z M 112,455 l 7,0 0,7 -7,0 z M 126,455 l 7,0 0,7 -7,0 z M 140,455 l 7,0 0,7 -7,0 z M 154,455 l 7,0 0,7 -7,0 z M 161,455 l 7,0 0,7 -7,0 z M 168,455 l 7,0 0,7 -7,0 z M 196,455 l 7,0 0,7 -7,0 z M 203,455 l 7,0 0,7 -7,0 z M 210,455 l 7,0 0,7 -7,0 z M 217,455 l 7,0 0,7 -7,0 z M 238,455 l 7,0 0,7 -7,0 z M 245,455 l 7,0 0,7 -7,0 z M 259,455 l 7,0 0,7 -7,0 z M 280,455 l 7,0 0,7 -7,0 z M 294,455 l 7,0 0,7 -7,0 z M 308,455 l 7,0 0,7 -7,0 z M 336,455 l 7,0 0,7 -7,0 z M 343,455 l 7,0 0,7 -7,0 z M 350,455 l 7,0 0,7 -7,0 z M 385,455 l 7,0 0,7 -7,0 z M 399,455 l 7,0 0,7 -7,0 z M 406,455 l 7,0 0,7 -7,0 z M 413,455 l 7,0 0,7 -7,0 z M 420,455 l 7,0 0,7 -7,0 z M 434,455 l 7,0 0,7 -7,0 z M 448,455 l 7,0 0,7 -7,0 z M 476,455 l 7,0 0,7 -7,0 z M 483,455 l 7,0 0,7 -7,0 z M 490,455 l 7,0 0,7 -7,0 z M 504,455 l 7,0 0,7 -7,0 z M 0,462 l 7,0 0,7 -7,0 z M 7,462 l 7,0 0,7 -7,0 z M 14,462 l 7,0 0,7 -7,0 z M 21,462 l 7,0 0,7 -7,0 z M 28,462 l 7,0 0,7 -7,0 z M 35,462 l 7,0 0,7 -7,0 z M 42,462 l 7,0 0,7 -7,0 z M 56,462 l 7,0 0,7 -7,0 z M 84,462 l 7,0 0,7 -7,0 z M 112,462 l 7,0 0,7 -7,0 z M 119,462 l 7,0 0,7 -7,0 z M 133,462 l 7,0 0,7 -7,0 z M 147,462 l 7,0 0,7 -7,0 z M 154,462 l 7,0 0,7 -7,0 z M 168,462 l 7,0 0,7 -7,0 z M 182,462 l 7,0 0,7 -7,0 z M 196,462 l 7,0 0,7 -7,0 z M 203,462 l 7,0 0,7 -7,0 z M 224,462 l 7,0 0,7 -7,0 z M 231,462 l 7,0 0,7 -7,0 z M 259,462 l 7,0 0,7 -7,0 z M 266,462 l 7,0 0,7 -7,0 z M 273,462 l 7,0 0,7 -7,0 z M 280,462 l 7,0 0,7 -7,0 z M 308,462 l 7,0 0,7 -7,0 z M 322,462 l 7,0 0,7 -7,0 z M 336,462 l 7,0 0,7 -7,0 z M 364,462 l 7,0 0,7 -7,0 z M 371,462 l 7,0 0,7 -7,0 z M 399,462 l 7,0 0,7 -7,0 z M 406,462 l 7,0 0,7 -7,0 z M 413,462 l 7,0 0,7 -7,0 z M 420,462 l 7,0 0,7 -7,0 z M 434,462 l 7,0 0,7 -7,0 z M 441,462 l 7,0 0,7 -7,0 z M 448,462 l 7,0 0,7 -7,0 z M 462,462 l 7,0 0,7 -7,0 z M 476,462 l 7,0 0,7 -7,0 z M 490,462 l 7,0 0,7 -7,0 z M 0,469 l 7,0 0,7 -7,0 z M 42,469 l 7,0 0,7 -7,0 z M 77,469 l 7,0 0,7 -7,0 z M 119,469 l 7,0 0,7 -7,0 z M 133,469 l 7,0 0,7 -7,0 z M 147,469 l 7,0 0,7 -7,0 z M 161,469 l 7,0 0,7 -7,0 z M 168,469 l 7,0 0,7 -7,0 z M 196,469 l 7,0 0,7 -7,0 z M 203,469 l 7,0 0,7 -7,0 z M 217,469 l 7,0 0,7 -7,0 z M 224,469 l 7,0 0,7 -7,0 z M 252,469 l 7,0 0,7 -7,0 z M 273,469 l 7,0 0,7 -7,0 z M 280,469 l 7,0 0,7 -7,0 z M 287,469 l 7,0 0,7 -7,0 z M 301,469 l 7,0 0,7 -7,0 z M 308,469 l 7,0 0,7 -7,0 z M 336,469 l 7,0 0,7 -7,0 z M 343,469 l 7,0 0,7 -7,0 z M 350,469 l 7,0 0,7 -7,0 z M 399,469 l 7,0 0,7 -7,0 z M 413,469 l 7,0 0,7 -7,0 z M 420,469 l 7,0 0,7 -7,0 z M 427,469 l 7,0 0,7 -7,0 z M 448,469 l 7,0 0,7 -7,0 z M 476,469 l 7,0 0,7 -7,0 z M 483,469 l 7,0 0,7 -7,0 z M 490,469 l 7,0 0,7 -7,0 z M 504,469 l 7,0 0,7 -7,0 z M 0,476 l 7,0 0,7 -7,0 z M 14,476 l 7,0 0,7 -7,0 z M 21,476 l 7,0 0,7 -7,0 z M 28,476 l 7,0 0,7 -7,0 z M 42,476 l 7,0 0,7 -7,0 z M 56,476 l 7,0 0,7 -7,0 z M 77,476 l 7,0 0,7 -7,0 z M 84,476 l 7,0 0,7 -7,0 z M 91,476 l 7,0 0,7 -7,0 z M 98,476 l 7,0 0,7 -7,0 z M 105,476 l 7,0 0,7 -7,0 z M 119,476 l 7,0 0,7 -7,0 z M 126,476 l 7,0 0,7 -7,0 z M 140,476 l 7,0 0,7 -7,0 z M 147,476 l 7,0 0,7 -7,0 z M 154,476 l 7,0 0,7 -7,0 z M 168,476 l 7,0 0,7 -7,0 z M 175,476 l 7,0 0,7 -7,0 z M 182,476 l 7,0 0,7 -7,0 z M 189,476 l 7,0 0,7 -7,0 z M 196,476 l 7,0 0,7 -7,0 z M 224,476 l 7,0 0,7 -7,0 z M 231,476 l 7,0 0,7 -7,0 z M 238,476 l 7,0 0,7 -7,0 z M 273,476 l 7,0 0,7 -7,0 z M 280,476 l 7,0 0,7 -7,0 z M 287,476 l 7,0 0,7 -7,0 z M 294,476 l 7,0 0,7 -7,0 z M 308,476 l 7,0 0,7 -7,0 z M 315,476 l 7,0 0,7 -7,0 z M 322,476 l 7,0 0,7 -7,0 z M 329,476 l 7,0 0,7 -7,0 z M 336,476 l 7,0 0,7 -7,0 z M 350,476 l 7,0 0,7 -7,0 z M 364,476 l 7,0 0,7 -7,0 z M 371,476 l 7,0 0,7 -7,0 z M 378,476 l 7,0 0,7 -7,0 z M 385,476 l 7,0 0,7 -7,0 z M 399,476 l 7,0 0,7 -7,0 z M 413,476 l 7,0 0,7 -7,0 z M 427,476 l 7,0 0,7 -7,0 z M 448,476 l 7,0 0,7 -7,0 z M 455,476 l 7,0 0,7 -7,0 z M 462,476 l 7,0 0,7 -7,0 z M 469,476 l 7,0 0,7 -7,0 z M 476,476 l 7,0 0,7 -7,0 z M 497,476 l 7,0 0,7 -7,0 z M 504,476 l 7,0 0,7 -7,0 z M 0,483 l 7,0 0,7 -7,0 z M 14,483 l 7,0 0,7 -7,0 z M 21,483 l 7,0 0,7 -7,0 z M 28,483 l 7,0 0,7 -7,0 z M 42,483 l 7,0 0,7 -7,0 z M 56,483 l 7,0 0,7 -7,0 z M 77,483 l 7,0 0,7 -7,0 z M 84,483 l 7,0 0,7 -7,0 z M 91,483 l 7,0 0,7 -7,0 z M 98,483 l 7,0 0,7 -7,0 z M 140,483 l 7,0 0,7 -7,0 z M 147,483 l 7,0 0,7 -7,0 z M 161,483 l 7,0 0,7 -7,0 z M 168,483 l 7,0 0,7 -7,0 z M 182,483 l 7,0 0,7 -7,0 z M 203,483 l 7,0 0,7 -7,0 z M 217,483 l 7,0 0,7 -7,0 z M 231,483 l 7,0 0,7 -7,0 z M 252,483 l 7,0 0,7 -7,0 z M 266,483 l 7,0 0,7 -7,0 z M 287,483 l 7,0 0,7 -7,0 z M 315,483 l 7,0 0,7 -7,0 z M 336,483 l 7,0 0,7 -7,0 z M 357,483 l 7,0 0,7 -7,0 z M 364,483 l 7,0 0,7 -7,0 z M 399,483 l 7,0 0,7 -7,0 z M 406,483 l 7,0 0,7 -7,0 z M 427,483 l 7,0 0,7 -7,0 z M 434,483 l 7,0 0,7 -7,0 z M 441,483 l 7,0 0,7 -7,0 z M 476,483 l 7,0 0,7 -7,0 z M 483,483 l 7,0 0,7 -7,0 z M 504,483 l 7,0 0,7 -7,0 z M 0,490 l 7,0 0,7 -7,0 z M 14,490 l 7,0 0,7 -7,0 z M 21,490 l 7,0 0,7 -7,0 z M 28,490 l 7,0 0,7 -7,0 z M 42,490 l 7,0 0,7 -7,0 z M 56,490 l 7,0 0,7 -7,0 z M 63,490 l 7,0 0,7 -7,0 z M 77,490 l 7,0 0,7 -7,0 z M 112,490 l 7,0 0,7 -7,0 z M 126,490 l 7,0 0,7 -7,0 z M 140,490 l 7,0 0,7 -7,0 z M 147,490 l 7,0 0,7 -7,0 z M 154,490 l 7,0 0,7 -7,0 z M 168,490 l 7,0 0,7 -7,0 z M 175,490 l 7,0 0,7 -7,0 z M 182,490 l 7,0 0,7 -7,0 z M 189,490 l 7,0 0,7 -7,0 z M 210,490 l 7,0 0,7 -7,0 z M 217,490 l 7,0 0,7 -7,0 z M 231,490 l 7,0 0,7 -7,0 z M 280,490 l 7,0 0,7 -7,0 z M 287,490 l 7,0 0,7 -7,0 z M 294,490 l 7,0 0,7 -7,0 z M 364,490 l 7,0 0,7 -7,0 z M 406,490 l 7,0 0,7 -7,0 z M 413,490 l 7,0 0,7 -7,0 z M 420,490 l 7,0 0,7 -7,0 z M 427,490 l 7,0 0,7 -7,0 z M 441,490 l 7,0 0,7 -7,0 z M 448,490 l 7,0 0,7 -7,0 z M 455,490 l 7,0 0,7 -7,0 z M 462,490 l 7,0 0,7 -7,0 z M 490,490 l 7,0 0,7 -7,0 z M 504,490 l 7,0 0,7 -7,0 z M 0,497 l 7,0 0,7 -7,0 z M 42,497 l 7,0 0,7 -7,0 z M 56,497 l 7,0 0,7 -7,0 z M 63,497 l 7,0 0,7 -7,0 z M 70,497 l 7,0 0,7 -7,0 z M 84,497 l 7,0 0,7 -7,0 z M 98,497 l 7,0 0,7 -7,0 z M 105,497 l 7,0 0,7 -7,0 z M 112,497 l 7,0 0,7 -7,0 z M 126,497 l 7,0 0,7 -7,0 z M 140,497 l 7,0 0,7 -7,0 z M 147,497 l 7,0 0,7 -7,0 z M 154,497 l 7,0 0,7 -7,0 z M 161,497 l 7,0 0,7 -7,0 z M 168,497 l 7,0 0,7 -7,0 z M 182,497 l 7,0 0,7 -7,0 z M 203,497 l 7,0 0,7 -7,0 z M 217,497 l 7,0 0,7 -7,0 z M 245,497 l 7,0 0,7 -7,0 z M 252,497 l 7,0 0,7 -7,0 z M 273,497 l 7,0 0,7 -7,0 z M 280,497 l 7,0 0,7 -7,0 z M 294,497 l 7,0 0,7 -7,0 z M 308,497 l 7,0 0,7 -7,0 z M 315,497 l 7,0 0,7 -7,0 z M 343,497 l 7,0 0,7 -7,0 z M 357,497 l 7,0 0,7 -7,0 z M 364,497 l 7,0 0,7 -7,0 z M 371,497 l 7,0 0,7 -7,0 z M 378,497 l 7,0 0,7 -7,0 z M 399,497 l 7,0 0,7 -7,0 z M 406,497 l 7,0 0,7 -7,0 z M 413,497 l 7,0 0,7 -7,0 z M 420,497 l 7,0 0,7 -7,0 z M 441,497 l 7,0 0,7 -7,0 z M 448,497 l 7,0 0,7 -7,0 z M 462,497 l 7,0 0,7 -7,0 z M 483,497 l 7,0 0,7 -7,0 z M 504,497 l 7,0 0,7 -7,0 z M 0,504 l 7,0 0,7 -7,0 z M 7,504 l 7,0 0,7 -7,0 z M 14,504 l 7,0 0,7 -7,0 z M 21,504 l 7,0 0,7 -7,0 z M 28,504 l 7,0 0,7 -7,0 z M 35,504 l 7,0 0,7 -7,0 z M 42,504 l 7,0 0,7 -7,0 z M 56,504 l 7,0 0,7 -7,0 z M 70,504 l 7,0 0,7 -7,0 z M 77,504 l 7,0 0,7 -7,0 z M 84,504 l 7,0 0,7 -7,0 z M 91,504 l 7,0 0,7 -7,0 z M 98,504 l 7,0 0,7 -7,0 z M 105,504 l 7,0 0,7 -7,0 z M 133,504 l 7,0 0,7 -7,0 z M 154,504 l 7,0 0,7 -7,0 z M 168,504 l 7,0 0,7 -7,0 z M 175,504 l 7,0 0,7 -7,0 z M 189,504 l 7,0 0,7 -7,0 z M 217,504 l 7,0 0,7 -7,0 z M 231,504 l 7,0 0,7 -7,0 z M 238,504 l 7,0 0,7 -7,0 z M 273,504 l 7,0 0,7 -7,0 z M 294,504 l 7,0 0,7 -7,0 z M 301,504 l 7,0 0,7 -7,0 z M 322,504 l 7,0 0,7 -7,0 z M 329,504 l 7,0 0,7 -7,0 z M 336,504 l 7,0 0,7 -7,0 z M 357,504 l 7,0 0,7 -7,0 z M 371,504 l 7,0 0,7 -7,0 z M 385,504 l 7,0 0,7 -7,0 z M 420,504 l 7,0 0,7 -7,0 z M 469,504 l 7,0 0,7 -7,0 z M 483,504 l 7,0 0,7 -7,0 z M 497,504 l 7,0 0,7 -7,0 z M 504,504 l 7,0 0,7 -7,0 z " />
	</g>
</svg>
